<?xml version="1.0" encoding="UTF-8" standalone="no"?>
<svg
   xmlns:dc="http://purl.org/dc/elements/1.1/"
   xmlns:cc="http://creativecommons.org/ns#"
   xmlns:rdf="http://www.w3.org/1999/02/22-rdf-syntax-ns#"
   xmlns:svg="http://www.w3.org/2000/svg"
   xmlns="http://www.w3.org/2000/svg"
   xmlns:sodipodi="http://sodipodi.sourceforge.net/DTD/sodipodi-0.dtd"
   xmlns:inkscape="http://www.inkscape.org/namespaces/inkscape"
   id="Layer_1"
   data-name="Layer 1"
   width="128"
   height="128"
   viewBox="0 0 128 128"
   version="1.1"
   sodipodi:docname="ActionInstance.svg"
   inkscape:version="1.0.2-2 (e86c870879, 2021-01-15)"
   inkscape:export-filename="C:\Users\ammoussaoui\modelio\eclipse\modules\CamelDesigner\src\main\conf\res\icon\gui\Measurement_48.png"
   inkscape:export-xdpi="36.157539"
   inkscape:export-ydpi="36.157539">
  <metadata
     id="metadata25">
    <rdf:RDF>
      <cc:Work
         rdf:about="">
        <dc:format>image/svg+xml</dc:format>
        <dc:type
           rdf:resource="http://purl.org/dc/dcmitype/StillImage" />
        <dc:title>Generic-GCP</dc:title>
      </cc:Work>
    </rdf:RDF>
  </metadata>
  <defs
     id="defs23" />
  <sodipodi:namedview
     pagecolor="#ffffff"
     bordercolor="#666666"
     borderopacity="1"
     objecttolerance="10"
     gridtolerance="10"
     guidetolerance="10"
     inkscape:pageopacity="0"
     inkscape:pageshadow="2"
     inkscape:window-width="1366"
     inkscape:window-height="705"
     id="namedview21"
     showgrid="false"
     inkscape:zoom="1.84375"
     inkscape:cx="-13.658328"
     inkscape:cy="92.990824"
     inkscape:window-x="-8"
     inkscape:window-y="-8"
     inkscape:window-maximized="1"
     inkscape:current-layer="Layer_1"
     inkscape:document-rotation="0" />
  <title
     id="title2">Generic-GCP</title>
  <path
     style="fill:#aaffc3;fill-opacity:1;stroke-width:0.202048"
     d="M 38.534494,127.48372 C 35.358151,126.92021 32.274632,125.21609 30.367307,122.9701 29.55233,122.0104 26.424228,116.29049 15.85799,96.439004 1.0699076,68.655656 1.0568306,68.630448 0.56043259,66.948442 0.02993659,65.150896 0.00666559,61.703396 0.51228559,59.816641 0.80277359,58.732672 4.4929986,51.187854 14.048622,32.14101 26.728916,6.865891 27.234283,5.8994242 28.586187,4.3394151 30.20178,2.4751199 32.193698,1.2378499 34.726044,0.52568179 c 1.472312,-0.4140573 2.165474,-0.4244576 28.085337,-0.4213887 28.942115,0.00346 27.555265,-0.051665 30.335515,1.20497551 1.81728,0.8213911 3.63914,2.1654422 4.73169,3.4907287 0.66684,0.8088912 5.136194,8.9800947 14.896324,27.2345647 7.669,14.343437 14.12787,26.597751 14.35304,27.231832 0.97213,2.737616 1.01765,6.353161 0.11388,9.045318 -0.20033,0.596725 -6.26268,12.864322 -13.4719,27.261312 -10.28961,20.548666 -13.32367,26.441056 -14.112444,27.407566 -1.29728,1.5896 -3.25475,2.94675 -5.52469,3.83042 l -1.8097,0.7045 -26.65388,0.0267 c -14.659629,0.0147 -26.870257,-0.0117 -27.134724,-0.0585 z"
     id="path8"
     inkscape:connector-curvature="0"
     inkscape:export-filename="C:\Users\ammoussaoui\modelio\eclipse\modules\CamelDesigner\src\main\conf\res\icon\gui\DataMeasurement_48.png"
     inkscape:export-xdpi="36.074654"
     inkscape:export-ydpi="36.074654" />
  <path
     d="m 119.68004,82.384164 -1.90373,-1.125603 c -4.75136,-2.769545 -10.37551,-2.768697 -15.12613,0.0021 l -2.5824,1.527061 -2.586095,-1.529178 c -4.751357,-2.769545 -10.375505,-2.768697 -15.126127,0.0017 l -1.900399,1.123909 c -1.00317,0.590327 -1.632558,1.772678 -1.63034,3.062593 V 113.8151 c 0,1.20265 0.547902,2.31852 1.446232,2.94442 0.898331,0.6259 2.017091,0.67163 2.952096,0.12065 4.205703,-2.45236 9.184526,-2.45319 13.390581,-0.003 l 3.017676,1.78497 c 0.01175,0.006 0.02335,0.01 0.03437,0.0173 0.01513,0.009 0.0304,0.016 0.04597,0.0233 0.02335,0.01 0.04744,0.0199 0.07079,0.0283 0.01513,0.006 0.02996,0.0114 0.04524,0.0156 0.02673,0.009 0.05331,0.0143 0.08034,0.019 0.01322,0.003 0.02556,0.006 0.03848,0.009 0.08004,0.0129 0.161136,0.0129 0.241156,0 0.0132,-10e-4 0.026,-0.006 0.0389,-0.009 0.0267,-0.006 0.0533,-0.0114 0.08,-0.019 0.0151,-0.004 0.03,-0.01 0.0452,-0.0156 0.0241,-0.009 0.0474,-0.0178 0.0711,-0.0283 0.0151,-0.007 0.0304,-0.0152 0.0455,-0.0233 0.0117,-0.006 0.0233,-0.0114 0.0345,-0.0173 l 3.01434,-1.78243 c 4.20569,-2.45235 9.18451,-2.4532 13.39058,-0.003 0.93537,0.55349 2.05487,0.50902 2.95432,-0.1165 0.89944,-0.62591 1.44845,-1.74261 1.44845,-2.94613 V 85.446756 c 0.003,-1.289913 -0.62717,-2.472687 -1.63071,-3.062592 z M 89.92158,112.87329 c -2.630176,-10e-4 -5.22331,0.71102 -7.566022,2.07885 -0.347109,0.2054 -0.762751,0.18888 -1.096524,-0.0436 -0.333773,-0.23206 -0.537518,-0.64665 -0.537518,-1.09342 V 85.446756 c -0.0011,-0.478953 0.233017,-0.917677 0.605316,-1.136614 l 1.896683,-1.121792 c 4.205702,-2.451936 9.184526,-2.452785 13.39058,-0.0021 l 2.505347,1.481746 v 31.250114 l -1.637757,-0.96807 c -2.340862,-1.36657 -4.931763,-2.07843 -7.560105,-2.07674 z m 29.49248,0.94181 c 0,0.44762 -0.20449,0.86263 -0.53938,1.09469 -0.33487,0.23207 -0.75126,0.24732 -1.09837,0.0402 -4.75136,-2.76954 -10.37551,-2.76869 -15.12613,0.001 l -1.63404,0.96638 V 84.667994 l 2.50163,-1.47963 c 4.20569,-2.451936 9.18451,-2.452785 13.39058,-0.0021 l 1.9004,1.123909 c 0.3723,0.218937 0.60642,0.657663 0.60531,1.136613 z m 0,0"
     id="path142"
     style="fill:#333333;stroke-width:0.101395" />
</svg>
