<?xml version="1.0" encoding="UTF-8" standalone="no"?>
<svg
   xmlns:dc="http://purl.org/dc/elements/1.1/"
   xmlns:cc="http://creativecommons.org/ns#"
   xmlns:rdf="http://www.w3.org/1999/02/22-rdf-syntax-ns#"
   xmlns:svg="http://www.w3.org/2000/svg"
   xmlns="http://www.w3.org/2000/svg"
   xmlns:sodipodi="http://sodipodi.sourceforge.net/DTD/sodipodi-0.dtd"
   xmlns:inkscape="http://www.inkscape.org/namespaces/inkscape"
   id="Layer_1"
   data-name="Layer 1"
   width="128"
   height="128"
   viewBox="0 0 128 128"
   version="1.1"
   sodipodi:docname="ApplicationMeasurement.svg"
   inkscape:version="1.0.2-2 (e86c870879, 2021-01-15)"
   inkscape:export-filename="C:\Project\Recherche\MORPHEMIC\PaaSMeasurement_48.png"
   inkscape:export-xdpi="36"
   inkscape:export-ydpi="36">
  <metadata
     id="metadata25">
    <rdf:RDF>
      <cc:Work
         rdf:about="">
        <dc:format>image/svg+xml</dc:format>
        <dc:type
           rdf:resource="http://purl.org/dc/dcmitype/StillImage" />
        <dc:title>Generic-GCP</dc:title>
      </cc:Work>
    </rdf:RDF>
  </metadata>
  <defs
     id="defs23" />
  <sodipodi:namedview
     pagecolor="#ffffff"
     bordercolor="#666666"
     borderopacity="1"
     objecttolerance="10"
     gridtolerance="10"
     guidetolerance="10"
     inkscape:pageopacity="0"
     inkscape:pageshadow="2"
     inkscape:window-width="1366"
     inkscape:window-height="705"
     id="namedview21"
     showgrid="false"
     inkscape:zoom="1.84375"
     inkscape:cx="-2.0130888"
     inkscape:cy="65.499104"
     inkscape:window-x="-8"
     inkscape:window-y="-8"
     inkscape:window-maximized="1"
     inkscape:current-layer="Layer_1"
     inkscape:document-rotation="0" />
  <title
     id="title2">Generic-GCP</title>
  <path
     inkscape:connector-curvature="0"
     id="path4"
     style="fill:#4285f4"
     d="M 126.47,58.12 100.17,12.38 C 98.157561,8.811194 93.206435,6.5742145 89.11,6.5 H 38.7 c -4.097011,0.072195 -8.849064,2.3097272 -10.86,5.88 L 1.53,58 c -2.0353442,3.541745 -2.0353442,7.898255 0,11.44 l 26.3,46 c 1.990324,3.61954 6.732395,5.93082 10.86,6.09 H 89.3 c 4.127386,-0.14167 8.876176,-2.44336 10.87,-6.06 l 26.3,-45.74 c 2.04949,-3.598656 2.04949,-8.011344 0,-11.61 z"
     sodipodi:nodetypes="ccccccccccccc" />
  <path
     style="fill:#aaffc3;fill-opacity:1;stroke-width:0.202909"
     d="m 37.450818,127.94513 c -3.166753,-0.56831 -6.221268,-2.28699 -8.09035,-4.55219 -0.798641,-0.96789 -3.82937,-6.73667 -14.057672,-26.757794 C 0.98767589,68.614388 0.97502814,68.588964 0.50726317,66.892582 0.00736851,65.079679 0.04278381,61.602712 0.58052618,59.699842 0.88946755,58.606611 4.7081306,50.997313 14.587992,31.787715 27.698553,6.2966123 28.220374,5.3218865 29.59883,3.7485461 c 1.64733,-1.8802257 3.660317,-3.12806849 6.204781,-3.84632208 1.479362,-0.41759507 2.172706,-0.42808418 28.092514,-0.42498884 28.942054,0.003462 27.556148,-0.0521025 30.314994,1.2152717 1.803301,0.82841012 3.602288,2.18394682 4.672272,3.52055742 0.653069,0.8158041 4.983319,9.0568317 14.432699,27.4672967 7.42483,14.465995 13.67509,26.825032 13.88946,27.464524 0.92553,2.761014 0.9095,6.407457 -0.0401,9.122622 -0.21048,0.601824 -6.48167,12.974242 -13.93597,27.494262 -10.63942,20.724251 -13.773792,26.667001 -14.57901,27.641751 -1.324336,1.60319 -3.304912,2.97195 -5.589898,3.86316 l -1.821699,0.71052 -26.65433,0.027 c -14.659882,0.0148 -26.870058,-0.0117 -27.133725,-0.059 z"
     id="path8"
     inkscape:connector-curvature="0" />
  <text
     xml:space="preserve"
     style="font-style:normal;font-variant:normal;font-weight:bold;font-stretch:normal;font-size:50.6667px;line-height:18.6954px;font-family:sans-serif;-inkscape-font-specification:'sans-serif, Bold';font-variant-ligatures:normal;font-variant-caps:normal;font-variant-numeric:normal;font-feature-settings:normal;text-align:start;letter-spacing:0px;word-spacing:0px;writing-mode:lr-tb;text-anchor:start;fill:#000000;fill-opacity:1;stroke:none;stroke-width:0.747817"
     x="30.796143"
     y="50.861763"
     id="text5085"
     transform="scale(0.74781653,1.3372264)"><tspan
       sodipodi:role="line"
       id="tspan5083"
       x="30.796143"
       y="50.861763"
       style="font-style:normal;font-variant:normal;font-weight:bold;font-stretch:normal;font-size:50.6667px;font-family:sans-serif;-inkscape-font-specification:'sans-serif, Bold';font-variant-ligatures:normal;font-variant-caps:normal;font-variant-numeric:normal;font-feature-settings:normal;text-align:start;writing-mode:lr-tb;text-anchor:start;fill:#ffffff;stroke-width:0.747817">App</tspan></text>
  <g
     id="g277"
     transform="matrix(0.07840259,0,0,0.07477567,43.389826,84.993025)"
     style="fill:#ffffff">
    <path
       d="M 183.801,219.469 C 216.195,225.795 249,211.406 249,196 c 0,-11.801 -20.955,-25 -49,-25 -26.242,0 -49,12.319 -49,25 0,9.737 14.102,19.827 32.801,23.469 z"
       id="path269"
       style="fill:#ffffff" />
    <path
       d="M 342.54,293 H 399 V 256.809 C 382.912,272.025 362.635,283.917 342.54,293 Z"
       id="path271"
       style="fill:#ffffff" />
    <path
       d="m 45.367,250.197 c 27.787,17.054 65.187,30.906 102.608,38.005 C 262.345,309.932 399,252.573 399,196 399,160.65 377.304,127.975 337.907,103.993 300.836,81.428 251.859,69 200,69 93.225,69 0,122.702 0,196 c 0,17.391 16.757,36.638 45.367,54.197 z m 76.293,-61.47 C 126.685,161.083 159.634,141 200,141 c 44.299,0 79,24.159 79,55 0,30.841 -34.701,55 -79,55 -7.47,0 -14.852,-0.701 -21.941,-2.086 C 143.933,242.268 121,221.002 121,196 c 0,-2.438 0.223,-4.886 0.66,-7.273 z"
       id="path273"
       style="fill:#ffffff" />
    <path
       d="m 200,323 c -19.641,0 -39.027,-1.791 -57.62,-5.324 C 95.29,308.743 35.318,287.039 0,254.41 V 348 c 0,28.588 20.419,54.918 55.683,74.142 19.902,10.844 41.913,17.638 65.423,20.193 1.133,0.123 0.205,0.083 23.895,0.12 v -54.031 c 0,-8.077 6.207,-15.027 14.275,-15.407 C 167.889,372.611 175,379.475 175,388 v 54.501 l 50,0.078 v -54.155 c 0,-8.077 6.207,-15.027 14.275,-15.407 C 247.889,372.611 255,379.475 255,388 v 54.625 l 50,0.078 v -54.279 c 0,-8.077 6.207,-15.027 14.275,-15.407 C 327.889,372.611 335,379.475 335,388 v 54.75 l 50,0.078 v -54.404 c 0,-8.077 6.207,-15.027 14.275,-15.407 C 407.889,372.611 415,379.475 415,388 v 54.874 L 496.977,443 C 504.825,443 512,436.854 512,427.744 V 338 c 0,-8.284 -6.716,-15 -15,-15 z"
       id="path275"
       style="fill:#ffffff" />
  </g>
  <path
     style="fill:#ffffff;stroke-width:0.542373"
     d=""
     id="path291" />
</svg>
