<?xml version="1.0" encoding="UTF-8" standalone="no"?>
<svg
   xmlns:dc="http://purl.org/dc/elements/1.1/"
   xmlns:cc="http://creativecommons.org/ns#"
   xmlns:rdf="http://www.w3.org/1999/02/22-rdf-syntax-ns#"
   xmlns:svg="http://www.w3.org/2000/svg"
   xmlns="http://www.w3.org/2000/svg"
   xmlns:sodipodi="http://sodipodi.sourceforge.net/DTD/sodipodi-0.dtd"
   xmlns:inkscape="http://www.inkscape.org/namespaces/inkscape"
   id="Layer_1"
   data-name="Layer 1"
   width="128"
   height="128"
   viewBox="0 0 128 128"
   version="1.1"
   sodipodi:docname="BinaryEventPattern.svg"
   inkscape:version="1.0.2-2 (e86c870879, 2021-01-15)"
   inkscape:export-filename="C:\Users\ammoussaoui\modelio\eclipse\modules\CamelDesigner\src\main\conf\res\icon\gui\Measurement_48.png"
   inkscape:export-xdpi="36.157539"
   inkscape:export-ydpi="36.157539">
  <metadata
     id="metadata25">
    <rdf:RDF>
      <cc:Work
         rdf:about="">
        <dc:format>image/svg+xml</dc:format>
        <dc:type
           rdf:resource="http://purl.org/dc/dcmitype/StillImage" />
        <dc:title>Generic-GCP</dc:title>
      </cc:Work>
    </rdf:RDF>
  </metadata>
  <defs
     id="defs23">
    <filter
       inkscape:collect="always"
       style="color-interpolation-filters:sRGB"
       id="filter1015"
       x="-1.0787319e-05"
       width="1.0000216"
       y="-1.0812709e-05"
       height="1.0000216">
      <feGaussianBlur
         inkscape:collect="always"
         stdDeviation="0.00057416526"
         id="feGaussianBlur1017" />
    </filter>
    <pattern
       y="0"
       x="0"
       height="6"
       width="6"
       patternUnits="userSpaceOnUse"
       id="EMFhbasepattern" />
    <pattern
       y="0"
       x="0"
       height="6"
       width="6"
       patternUnits="userSpaceOnUse"
       id="EMFhbasepattern-3" />
    <pattern
       y="0"
       x="0"
       height="6"
       width="6"
       patternUnits="userSpaceOnUse"
       id="EMFhbasepattern-2" />
    <pattern
       y="0"
       x="0"
       height="6"
       width="6"
       patternUnits="userSpaceOnUse"
       id="EMFhbasepattern-1" />
    <pattern
       y="0"
       x="0"
       height="6"
       width="6"
       patternUnits="userSpaceOnUse"
       id="EMFhbasepattern-5" />
  </defs>
  <sodipodi:namedview
     pagecolor="#ffffff"
     bordercolor="#666666"
     borderopacity="1"
     objecttolerance="10"
     gridtolerance="10"
     guidetolerance="10"
     inkscape:pageopacity="0"
     inkscape:pageshadow="2"
     inkscape:window-width="1366"
     inkscape:window-height="705"
     id="namedview21"
     showgrid="false"
     inkscape:zoom="1.84375"
     inkscape:cx="96.361616"
     inkscape:cy="115.20307"
     inkscape:window-x="-8"
     inkscape:window-y="-8"
     inkscape:window-maximized="1"
     inkscape:current-layer="Layer_1"
     inkscape:document-rotation="0" />
  <title
     id="title2">Generic-GCP</title>
  <path
     style="opacity:0.981;fill:#bcec4c;fill-opacity:0.960784;stroke-width:0.202048;filter:url(#filter1015)"
     d="m 38.534494,128.02609 c -3.176343,-0.56351 -6.259862,-2.26763 -8.167187,-4.51362 C 29.55233,122.55277 26.424228,116.83286 15.85799,96.981377 1.0699074,69.198029 1.0568304,69.172821 0.56043244,67.490815 0.02993644,65.693269 0.00666544,62.245769 0.51228244,60.359014 0.80277044,59.275045 4.4929955,51.730227 14.048619,32.683383 26.728913,7.4082639 27.23428,6.4417971 28.586184,4.881788 30.201777,3.0174928 32.193695,1.7802228 34.726041,1.0680547 36.198353,0.65399739 36.891515,0.64359709 62.811378,0.64666599 c 28.942115,0.00346 27.555265,-0.051665 30.335515,1.20497551 1.81728,0.8213911 3.63914,2.1654422 4.73169,3.4907287 0.66684,0.8088912 5.136187,8.9800948 14.896317,27.2345648 7.669,14.343437 14.12787,26.597751 14.35304,27.231832 0.97213,2.737616 1.01765,6.353161 0.11388,9.045318 -0.20033,0.596725 -6.26268,12.864322 -13.4719,27.261312 -10.28961,20.548663 -13.32367,26.441053 -14.112436,27.407563 -1.297281,1.5896 -3.254751,2.94675 -5.524691,3.83042 l -1.8097,0.7045 -26.65388,0.0267 c -14.659629,0.0147 -26.870257,-0.0117 -27.134724,-0.0585 z"
     id="path8"
     inkscape:connector-curvature="0"
     inkscape:export-filename="C:\Users\ammoussaoui\modelio\eclipse\modules\CamelDesigner\src\main\conf\res\icon\gui\DataMeasurement_48.png"
     inkscape:export-xdpi="36.074654"
     inkscape:export-ydpi="36.074654" />
  <style
     type="text/css"
     id="style1245">.st0{fill-rule:evenodd;clip-rule:evenodd;}</style>
  <g
     id="pattern-random-21"
     transform="matrix(3.148631,0,0,2.68157,20.778113,22.81646)">
	<polygon
   points="16,18 16,15 24,15 24,9 4,9 4,3 7,3 7,6 14,6 14,3 17,3 17,6 24,6 24,2 22,2 22,5 19,5 19,2 12,2 12,5 9,5 9,2 2,2 2,11 19,11 19,14 6,14 6,18 3,18 3,14 2,14 2,19 7,19 7,16 10,16 10,22 2,22 2,24 17,24 20,24 20,22 12,22 12,16 15,16 15,19 23,19 23,24 24,24 24,18 "
   id="polygon2109" />

	<polygon
   points="9,20 9,17 8,17 8,20 1,20 1,13 4,13 4,17 5,17 5,13 18,13 18,12 1,12 1,1 10,1 10,4 11,4 11,1 20,1 20,4 21,4 21,1 25,1 25,7 16,7 16,4 15,4 15,7 6,7 6,4 5,4 5,8 6,8 25,8 25,16 17,16 17,17 25,17 25,25 22,25 22,21 22,20 14,20 14,17 13,17 13,20 13,21 14,21 21,21 21,24 21,25 21,26 26,26 26,0 0,0 0,26 17,26 17,25 1,25 1,21 8,21 9,21 "
   id="polygon2111" />

</g>
  <g
     id="g2170"
     style="fill:none;fill-rule:evenodd;stroke:none;stroke-width:1"
     transform="matrix(1.2937853,0,0,1.1355932,86.711865,98.101696)">
    <polygon
       id="Path"
       points="24,0 24,24 0,24 0,0 " />
    <path
       d="M 19,3 H 5 C 3.9,3 3,3.9 3,5 v 14 c 0,1.1 0.9,2 2,2 h 14 c 1.1,0 2,-0.9 2,-2 V 5 C 21,3.9 20.1,3 19,3 Z m 0,16 H 5 V 5 h 14 z m -4,-4 h -4 v -2 h 2 c 1.1,0 2,-0.89 2,-2 V 9 C 15,7.89 14.1,7 13,7 H 9 v 2 h 4 v 2 h -2 c -1.1,0 -2,0.89 -2,2 v 4 h 6 z"
       id="🔹-Icon-Color"
       fill="#1d1d1d" />
  </g>
</svg>
