<?xml version="1.0" encoding="UTF-8" standalone="no"?>
<svg
   xmlns:dc="http://purl.org/dc/elements/1.1/"
   xmlns:cc="http://creativecommons.org/ns#"
   xmlns:rdf="http://www.w3.org/1999/02/22-rdf-syntax-ns#"
   xmlns:svg="http://www.w3.org/2000/svg"
   xmlns="http://www.w3.org/2000/svg"
   xmlns:sodipodi="http://sodipodi.sourceforge.net/DTD/sodipodi-0.dtd"
   xmlns:inkscape="http://www.inkscape.org/namespaces/inkscape"
   id="Layer_1"
   data-name="Layer 1"
   width="128"
   height="128"
   viewBox="0 0 128 128"
   version="1.1"
   sodipodi:docname="Cause.svg"
   inkscape:version="1.0.2-2 (e86c870879, 2021-01-15)"
   inkscape:export-filename="C:\Users\ammoussaoui\modelio\eclipse\modules\CamelDesigner\src\main\conf\res\icon\gui\SoftwareComponentMeasurement_48.png"
   inkscape:export-xdpi="36.072632"
   inkscape:export-ydpi="36.072632">
  <metadata
     id="metadata25">
    <rdf:RDF>
      <cc:Work
         rdf:about="">
        <dc:format>image/svg+xml</dc:format>
        <dc:type
           rdf:resource="http://purl.org/dc/dcmitype/StillImage" />
        <dc:title>Generic-GCP</dc:title>
      </cc:Work>
    </rdf:RDF>
  </metadata>
  <defs
     id="defs23" />
  <sodipodi:namedview
     pagecolor="#ffffff"
     bordercolor="#666666"
     borderopacity="1"
     objecttolerance="10"
     gridtolerance="10"
     guidetolerance="10"
     inkscape:pageopacity="0"
     inkscape:pageshadow="2"
     inkscape:window-width="1366"
     inkscape:window-height="705"
     id="namedview21"
     showgrid="false"
     inkscape:zoom="1.84375"
     inkscape:cx="22.557621"
     inkscape:cy="140.10581"
     inkscape:window-x="-8"
     inkscape:window-y="-8"
     inkscape:window-maximized="1"
     inkscape:current-layer="Layer_1"
     inkscape:document-rotation="0" />
  <title
     id="title2">Generic-GCP</title>
  <path
     style="fill:#aaffc3;fill-opacity:1;stroke-width:0.202048"
     d="m 39.61924,128.02608 c -3.176343,-0.56351 -6.259862,-2.26763 -8.167187,-4.51362 -0.814977,-0.9597 -3.943079,-6.67961 -14.509317,-26.531081 C 2.1546533,69.198031 2.1415763,69.172823 1.6451782,67.490817 1.1146822,65.693271 1.0914112,62.245771 1.5970312,60.359016 1.8875192,59.275047 5.5777442,51.730229 15.133368,32.683385 27.813662,7.4082676 28.319029,6.4418008 29.670933,4.8817917 31.286526,3.0174964 33.278444,1.7802265 35.81079,1.0680584 37.283102,0.65400104 37.976264,0.64360074 63.896127,0.64666964 c 28.942115,0.00346 27.555265,-0.051665 30.335515,1.20497556 1.81728,0.821391 3.63914,2.1654421 4.731692,3.4907287 0.66684,0.8088912 5.136186,8.9800931 14.896316,27.2345631 7.669,14.343437 14.12787,26.597751 14.35304,27.231832 0.97213,2.737616 1.01765,6.353161 0.11388,9.045318 -0.20033,0.596725 -6.26268,12.864322 -13.4719,27.261312 -10.28961,20.548651 -13.32366,26.441041 -14.11244,27.407551 -1.297276,1.5896 -3.254748,2.94675 -5.524688,3.83042 l -1.8097,0.7045 -26.65388,0.0267 c -14.659629,0.0147 -26.870257,-0.0117 -27.134724,-0.0585 z"
     id="path8"
     inkscape:connector-curvature="0"
     inkscape:export-filename="C:\Users\ammoussaoui\modelio\eclipse\modules\CamelDesigner\src\main\conf\res\icon\gui\Cause_24.png"
     inkscape:export-xdpi="18.036318"
     inkscape:export-ydpi="18.036318" />
  <g
     id="g361"
     transform="matrix(0.0569914,0,0,0.06532772,35.728445,30.301197)"
     style="fill:#666666">
    <g
       id="g304"
       style="fill:#666666">
	<path
   d="m 502.29,788.199 h -47 c -33.1,0 -60,26.9 -60,60 v 64.9 c 0,33.1 26.9,60 60,60 h 47 c 33.101,0 60,-26.9 60,-60 v -64.9 c 0,-33.199 -26.899,-60 -60,-60 z"
   id="path300"
   style="fill:#666666" />

	<path
   d="m 170.89,285.8 86.7,10.8 c 27.5,3.4 53.6,-12.4 63.5,-38.3 12.5,-32.7 29.9,-58.5 52.2,-77.3 31.601,-26.6 70.9,-40 117.9,-40 48.7,0 87.5,12.8 116.3,38.3 28.8,25.6 43.1,56.2 43.1,92.1 0,25.8 -8.1,49.4 -24.3,70.8 -10.5,13.6 -42.8,42.2 -96.7,85.9 -54,43.7 -89.899,83.099 -107.899,118.099 -18.4,35.801 -24.8,75.5 -26.4,115.301 -1.399,34.1 25.8,62.5 60,62.5 h 49 c 31.2,0 57,-23.9 59.8,-54.9 2,-22.299 5.7,-39.199 11.301,-50.699 9.399,-19.701 33.699,-45.701 72.699,-78.1 C 723.59,477.8 772.79,428.4 795.891,392 c 23,-36.3 34.6,-74.8 34.6,-115.5 0,-73.5 -31.3,-138 -94,-193.4 -62.6,-55.4 -147,-83.1 -253,-83.1 -100.8,0 -182.1,27.3 -244.1,82 -52.8,46.6 -84.9,101.8 -96.2,165.5 -3.501,18.6 9.199,36 27.699,38.3 z"
   id="path302"
   style="fill:#666666" />

</g>
    <g
       id="g306"
       style="fill:#666666">
</g>
    <g
       id="g308"
       style="fill:#666666">
</g>
    <g
       id="g310"
       style="fill:#666666">
</g>
    <g
       id="g312"
       style="fill:#666666">
</g>
    <g
       id="g314"
       style="fill:#666666">
</g>
    <g
       id="g316"
       style="fill:#666666">
</g>
    <g
       id="g318"
       style="fill:#666666">
</g>
    <g
       id="g320"
       style="fill:#666666">
</g>
    <g
       id="g322"
       style="fill:#666666">
</g>
    <g
       id="g324"
       style="fill:#666666">
</g>
    <g
       id="g326"
       style="fill:#666666">
</g>
    <g
       id="g328"
       style="fill:#666666">
</g>
    <g
       id="g330"
       style="fill:#666666">
</g>
    <g
       id="g332"
       style="fill:#666666">
</g>
    <g
       id="g334"
       style="fill:#666666">
</g>
  </g>
</svg>
