<?xml version="1.0" encoding="UTF-8" standalone="no"?>
<svg
   id="Layer_1"
   data-name="Layer 1"
   width="128"
   height="128"
   viewBox="0 0 128 128"
   version="1.1"
   sodipodi:docname="Cause.svg"
   inkscape:version="1.1.1 (3bf5ae0d25, 2021-09-20)"
   inkscape:export-filename="C:\Users\ammoussaoui\modelio\eclipse\modules\CamelDesigner\src\main\conf\res\icon\gui\SoftwareComponentMeasurement_48.png"
   inkscape:export-xdpi="36.072632"
   inkscape:export-ydpi="36.072632"
   xmlns:inkscape="http://www.inkscape.org/namespaces/inkscape"
   xmlns:sodipodi="http://sodipodi.sourceforge.net/DTD/sodipodi-0.dtd"
   xmlns="http://www.w3.org/2000/svg"
   xmlns:svg="http://www.w3.org/2000/svg"
   xmlns:rdf="http://www.w3.org/1999/02/22-rdf-syntax-ns#"
   xmlns:cc="http://creativecommons.org/ns#"
   xmlns:dc="http://purl.org/dc/elements/1.1/">
  <metadata
     id="metadata25">
    <rdf:RDF>
      <cc:Work
         rdf:about="">
        <dc:format>image/svg+xml</dc:format>
        <dc:type
           rdf:resource="http://purl.org/dc/dcmitype/StillImage" />
        <dc:title>Generic-GCP</dc:title>
      </cc:Work>
    </rdf:RDF>
  </metadata>
  <defs
     id="defs23" />
  <sodipodi:namedview
     pagecolor="#ffffff"
     bordercolor="#666666"
     borderopacity="1"
     objecttolerance="10"
     gridtolerance="10"
     guidetolerance="10"
     inkscape:pageopacity="0"
     inkscape:pageshadow="2"
     inkscape:window-width="1920"
     inkscape:window-height="1001"
     id="namedview21"
     showgrid="false"
     inkscape:zoom="1.84375"
     inkscape:cx="23.050847"
     inkscape:cy="140.20339"
     inkscape:window-x="-9"
     inkscape:window-y="-9"
     inkscape:window-maximized="1"
     inkscape:current-layer="Layer_1"
     inkscape:document-rotation="0"
     inkscape:pagecheckerboard="0" />
  <title
     id="title2">Generic-GCP</title>
  <path
     style="fill:#ff00ff;fill-opacity:1;stroke-width:0.202048"
     d="m 39.61924,128.02608 c -3.176343,-0.56351 -6.259862,-2.26763 -8.167187,-4.51362 -0.814977,-0.9597 -3.943079,-6.67961 -14.509317,-26.531081 C 2.1546533,69.198031 2.1415763,69.172823 1.6451782,67.490817 1.1146822,65.693271 1.0914112,62.245771 1.5970312,60.359016 1.8875192,59.275047 5.5777442,51.730229 15.133368,32.683385 27.813662,7.4082676 28.319029,6.4418008 29.670933,4.8817917 31.286526,3.0174964 33.278444,1.7802265 35.81079,1.0680584 37.283102,0.65400104 37.976264,0.64360074 63.896127,0.64666964 c 28.942115,0.00346 27.555265,-0.051665 30.335515,1.20497556 1.81728,0.821391 3.63914,2.1654421 4.731692,3.4907287 0.66684,0.8088912 5.136186,8.9800931 14.896316,27.2345631 7.669,14.343437 14.12787,26.597751 14.35304,27.231832 0.97213,2.737616 1.01765,6.353161 0.11388,9.045318 -0.20033,0.596725 -6.26268,12.864322 -13.4719,27.261312 -10.28961,20.548651 -13.32366,26.441041 -14.11244,27.407551 -1.297276,1.5896 -3.254748,2.94675 -5.524688,3.83042 l -1.8097,0.7045 -26.65388,0.0267 c -14.659629,0.0147 -26.870257,-0.0117 -27.134724,-0.0585 z"
     id="path8"
     inkscape:connector-curvature="0"
     inkscape:export-filename="C:\Users\ammoussaoui\modelio\eclipse\modules\CamelDesigner\src\main\conf\res\icon\gui\Cause_24.png"
     inkscape:export-xdpi="18.036318"
     inkscape:export-ydpi="18.036318" />
</svg>
