<?xml version="1.0" encoding="UTF-8" standalone="no"?>
<svg
   xmlns:dc="http://purl.org/dc/elements/1.1/"
   xmlns:cc="http://creativecommons.org/ns#"
   xmlns:rdf="http://www.w3.org/1999/02/22-rdf-syntax-ns#"
   xmlns:svg="http://www.w3.org/2000/svg"
   xmlns="http://www.w3.org/2000/svg"
   xmlns:sodipodi="http://sodipodi.sourceforge.net/DTD/sodipodi-0.dtd"
   xmlns:inkscape="http://www.inkscape.org/namespaces/inkscape"
   id="Layer_1"
   data-name="Layer 1"
   width="128"
   height="128"
   viewBox="0 0 128 128"
   version="1.1"
   sodipodi:docname="Certifiable.svg"
   inkscape:version="1.0.2-2 (e86c870879, 2021-01-15)"
   inkscape:export-filename="C:\Users\ammoussaoui\modelio\eclipse\modules\CamelDesigner\src\main\conf\res\icon\gui\Certifiable_48.png"
   inkscape:export-xdpi="36.074642"
   inkscape:export-ydpi="36.074642">
  <metadata
     id="metadata25">
    <rdf:RDF>
      <cc:Work
         rdf:about="">
        <dc:format>image/svg+xml</dc:format>
        <dc:type
           rdf:resource="http://purl.org/dc/dcmitype/StillImage" />
        <dc:title>Generic-GCP</dc:title>
      </cc:Work>
    </rdf:RDF>
  </metadata>
  <defs
     id="defs23" />
  <sodipodi:namedview
     pagecolor="#ffffff"
     bordercolor="#666666"
     borderopacity="1"
     objecttolerance="10"
     gridtolerance="10"
     guidetolerance="10"
     inkscape:pageopacity="0"
     inkscape:pageshadow="2"
     inkscape:window-width="1366"
     inkscape:window-height="705"
     id="namedview21"
     showgrid="false"
     inkscape:zoom="1.84375"
     inkscape:cx="83.340067"
     inkscape:cy="81.058621"
     inkscape:window-x="-8"
     inkscape:window-y="-8"
     inkscape:window-maximized="1"
     inkscape:current-layer="Layer_1"
     inkscape:document-rotation="0" />
  <title
     id="title2">Generic-GCP</title>
  <path
     style="fill:#ffff00;fill-opacity:1;stroke-width:0.202906"
     d="m 38.535558,129.11029 c -3.16675,-0.5683 -6.22126,-2.28693 -8.09035,-4.55204 -0.79864,-0.96786 -3.82937,-6.73646 -14.05767,-26.756902 C 2.0724178,69.781517 2.0597778,69.756095 1.5920078,68.059772 c -0.49989,-1.812847 -0.46448,-5.28969 0.0733,-7.192505 0.30894,-1.093195 4.12761,-8.702231 14.0074702,-27.911196 13.11056,-25.4902515 13.63238,-26.4649455 15.01084,-28.0382325 1.64733,-1.880163 3.66031,-3.127965 6.20478,-3.846194 1.47936,-0.41758196 2.1727,-0.42807096 28.09251,-0.42497596 28.94206,0.0035 27.55615,-0.0521 30.315,1.21523196 1.8033,0.828383 3.60228,2.183874 4.67227,3.520441 0.653072,0.815776 4.983322,9.0565295 14.432702,27.4663755 7.42483,14.465523 13.67509,26.824142 13.88946,27.46362 0.92553,2.760918 0.9095,6.407237 -0.0401,9.122309 -0.21048,0.601804 -6.48167,12.973818 -13.93597,27.493351 -10.63942,20.723553 -13.7738,26.666103 -14.579012,27.640833 -1.32434,1.60313 -3.30492,2.97184 -5.5899,3.86303 l -1.8217,0.71049 -26.65433,0.027 c -14.65988,0.0148 -26.87006,-0.0118 -27.13373,-0.059 z"
     id="path8"
     inkscape:connector-curvature="0"
     inkscape:export-filename="C:\Users\ammoussaoui\modelio\eclipse\modules\CamelDesigner\src\main\conf\res\icon\gui\SecuritySLO_48.png"
     inkscape:export-xdpi="36.074654"
     inkscape:export-ydpi="36.074654" />
  <g
     id="g124"
     transform="matrix(1.1230885,0,0,1.1566581,36.317845,36.441576)">
    <g
       id="Layer_1-4">
	<path
   d="M 45.293,19.562 45.992,12.879 39.853,10.148 37.123,4.009 30.44,4.707 25,0.765 19.561,4.707 12.879,4.009 10.148,10.147 4.009,12.879 4.707,19.561 0.765,25 l 3.942,5.438 -0.699,6.683 6.139,2.731 2.73,6.139 6.683,-0.698 5.44,3.942 5.439,-3.942 6.682,0.698 2.731,-6.138 6.139,-2.732 L 45.293,30.439 49.235,25 Z m -1.442,16.323 -5.514,2.453 -2.453,5.513 -5.999,-0.626 -4.885,3.54 -4.885,-3.54 -6,0.626 L 11.662,38.337 6.149,35.885 6.775,29.886 3.235,25 l 3.541,-4.885 -0.626,-6 5.514,-2.453 2.453,-5.513 5.999,0.626 4.884,-3.54 4.885,3.54 6,-0.626 2.453,5.514 5.513,2.452 -0.626,5.999 3.54,4.886 -3.541,4.885 z"
   id="path105" />

	<polygon
   points="37.293,15.293 21,31.586 14.707,25.293 13.293,26.707 21,34.414 38.707,16.707 "
   id="polygon107" />

</g>
    <g
       id="g110">
</g>
  </g>
</svg>
