<?xml version="1.0" encoding="iso-8859-1"?>
<!-- Generator: Adobe Illustrator 22.1.0, SVG Export Plug-In . SVG Version: 6.00 Build 0)  -->
<svg version="1.1" xmlns="http://www.w3.org/2000/svg" xmlns:xlink="http://www.w3.org/1999/xlink" x="0px" y="0px"
	 viewBox="0 0 50 50" style="enable-background:new 0 0 50 50;" xml:space="preserve">
<g id="Layer_1">
	<path d="M11.899,49c2.911,0,5.648-1.134,7.707-3.192l9.201-9.201C30.866,34.548,32,31.811,32,28.899
		c0-4.825-3.098-9.014-7.708-10.424l-0.584,1.912C27.472,21.539,30,24.959,30,28.899c0,2.377-0.926,4.612-2.606,6.293l-9.201,9.201
		C16.512,46.074,14.276,47,11.899,47C6.992,47,3,43.008,3,38.101c0-2.377,0.926-4.612,2.606-6.293l9.201-9.201
		c0.291-0.291,0.604-0.563,0.93-0.809l-1.205-1.597c-0.398,0.301-0.782,0.634-1.139,0.991l-9.201,9.201
		C2.134,32.452,1,35.189,1,38.101C1,44.11,5.89,49,11.899,49z"/>
	<path d="M38.101,1c-2.911,0-5.648,1.134-7.707,3.192l-9.201,9.201C19.134,15.452,18,18.189,18,21.101
		c0,5.208,3.705,9.707,8.81,10.699l0.381-1.963c-4.166-0.81-7.19-4.483-7.19-8.736c0-2.377,0.926-4.612,2.606-6.293l9.201-9.201
		C33.488,3.926,35.724,3,38.101,3C43.008,3,47,6.992,47,11.899c0,2.377-0.926,4.612-2.606,6.293l-9.2,9.201
		c-0.259,0.258-0.53,0.499-0.809,0.716l1.23,1.576c0.342-0.267,0.676-0.562,0.991-0.877l9.201-9.201
		C47.866,17.548,49,14.811,49,11.899C49,5.89,44.11,1,38.101,1z"/>
</g>
<g>
</g>
</svg>
