<?xml version="1.0" encoding="UTF-8" standalone="no"?>
<svg
   id="Layer_1"
   data-name="Layer 1"
   width="128"
   height="128"
   viewBox="0 0 128 128"
   version="1.1"
   sodipodi:docname="Conditional.svg"
   inkscape:version="1.1.1 (3bf5ae0d25, 2021-09-20)"
   inkscape:export-filename="C:\Users\ammoussaoui\modelio\eclipse\modules\CamelDesigner\src\main\conf\res\icon\gui\Conditional_24.png"
   inkscape:export-xdpi="17.837633"
   inkscape:export-ydpi="17.837633"
   xmlns:inkscape="http://www.inkscape.org/namespaces/inkscape"
   xmlns:sodipodi="http://sodipodi.sourceforge.net/DTD/sodipodi-0.dtd"
   xmlns="http://www.w3.org/2000/svg"
   xmlns:svg="http://www.w3.org/2000/svg"
   xmlns:rdf="http://www.w3.org/1999/02/22-rdf-syntax-ns#"
   xmlns:cc="http://creativecommons.org/ns#"
   xmlns:dc="http://purl.org/dc/elements/1.1/">
  <metadata
     id="metadata25">
    <rdf:RDF>
      <cc:Work
         rdf:about="">
        <dc:format>image/svg+xml</dc:format>
        <dc:type
           rdf:resource="http://purl.org/dc/dcmitype/StillImage" />
        <dc:title>Generic-GCP</dc:title>
      </cc:Work>
    </rdf:RDF>
  </metadata>
  <defs
     id="defs23" />
  <sodipodi:namedview
     pagecolor="#ffffff"
     bordercolor="#666666"
     borderopacity="1"
     objecttolerance="10"
     gridtolerance="10"
     guidetolerance="10"
     inkscape:pageopacity="0"
     inkscape:pageshadow="2"
     inkscape:window-width="1920"
     inkscape:window-height="1001"
     id="namedview21"
     showgrid="false"
     inkscape:zoom="1.84375"
     inkscape:cx="-13.559322"
     inkscape:cy="92.474576"
     inkscape:window-x="-9"
     inkscape:window-y="1341"
     inkscape:window-maximized="1"
     inkscape:current-layer="Layer_1"
     inkscape:document-rotation="0"
     inkscape:pagecheckerboard="0" />
  <title
     id="title2">Generic-GCP</title>
  <path
     style="fill:#ff9955;fill-opacity:1;stroke-width:0.202048"
     d="m 35.822633,128.0261 c -3.17635,-0.56351 -6.25987,-2.26763 -8.16719,-4.51362 -0.81498,-0.9597 -3.94308,-6.67961 -14.50932,-26.531104 -14.7880803,-27.78335 -14.8011603,-27.80856 -15.2975503,-29.49056 -0.5305,-1.79755 -0.55377,-5.24505 -0.0481,-7.1318 0.29049,-1.08397 3.98071,-8.62879 13.5363303,-27.67563 12.6803,-25.2751216 13.18567,-26.2415886 14.53757,-27.8015976 1.61559,-1.864295 3.60751,-3.101565 6.13986,-3.813734 1.47231,-0.41405703 2.16547,-0.42445703 28.08533,-0.42138803 28.94212,0.0035 27.55527,-0.05166 30.33552,1.20497503 1.81728,0.821391 3.63914,2.165442 4.73169,3.490729 0.66684,0.808891 5.136197,8.9800946 14.896327,27.2345656 7.669,14.34344 14.12787,26.59775 14.35304,27.23183 0.97213,2.73762 1.01765,6.35316 0.11388,9.04532 -0.20033,0.59672 -6.26268,12.86432 -13.4719,27.26131 -10.28961,20.548674 -13.323674,26.441064 -14.112447,27.407574 -1.29728,1.5896 -3.25475,2.94675 -5.52469,3.83042 l -1.8097,0.7045 -26.65388,0.0267 c -14.65963,0.0147 -26.87026,-0.0117 -27.13473,-0.0585 z"
     id="path8"
     inkscape:connector-curvature="0"
     inkscape:export-filename="C:\Users\ammoussaoui\modelio\eclipse\modules\CamelDesigner\src\main\conf\res\icon\gui\DataMeasurement_48.png"
     inkscape:export-xdpi="36.074654"
     inkscape:export-ydpi="36.074654" />
  <path
     d="M 47.089684,81.796607 -3.1411986,61.830508 47.089684,41.864407 Z M 37.222903,72.312718 V 51.348305 L 10.851689,61.830508 Z m 38.570142,9.483889 v -39.9322 l 50.230865,19.966101 z"
     id="path6772"
     style="stroke-width:0.113102" />
  <path
     d="m 59.246705,68.983052 q 0.05,-3.6 0.825,-5.25 0.775,-1.65 2.925,-3.600003 2.1,-1.9 3.225,-3.525 1.125,-1.625 1.125,-3.475 0,-2.25 -1.5,-3.75 -1.5,-1.5 -4.2,-1.5 -2.6,0 -4,1.475 -1.4,1.475 -2.05,3.075 l -4.2,-1.85 q 1.1,-2.95 3.725,-5.025 2.625,-2.075 6.525,-2.075 5,0 7.7,2.775 2.7,2.775 2.7,6.675 0,2.4 -1.025,4.35 -1.025,1.95 -3.275,4.1 -2.45,2.350003 -2.95,3.600003 -0.5,1.25 -0.55,4 z m 2.4,12.5 q -1.45,0 -2.475,-1.025 -1.025,-1.025 -1.025,-2.475 0,-1.45 1.025,-2.475 1.025,-1.025 2.475,-1.025 1.45,0 2.475,1.025 1.025,1.025 1.025,2.475 0,1.45 -1.025,2.475 -1.025,1.025 -2.475,1.025 z"
     id="path6789"
     style="stroke-width:0.05" />
</svg>
