<?xml version="1.0" encoding="UTF-8" standalone="no"?>
<svg
   xmlns:dc="http://purl.org/dc/elements/1.1/"
   xmlns:cc="http://creativecommons.org/ns#"
   xmlns:rdf="http://www.w3.org/1999/02/22-rdf-syntax-ns#"
   xmlns:svg="http://www.w3.org/2000/svg"
   xmlns="http://www.w3.org/2000/svg"
   xmlns:sodipodi="http://sodipodi.sourceforge.net/DTD/sodipodi-0.dtd"
   xmlns:inkscape="http://www.inkscape.org/namespaces/inkscape"
   id="Layer_1"
   data-name="Layer 1"
   width="128"
   height="128"
   viewBox="0 0 128 128"
   version="1.1"
   sodipodi:docname="ContainerMeasurement.svg"
   inkscape:version="1.0.2-2 (e86c870879, 2021-01-15)"
   inkscape:export-filename="C:\Project\Recherche\MORPHEMIC\PaaSMeasurement_48.png"
   inkscape:export-xdpi="36"
   inkscape:export-ydpi="36">
  <metadata
     id="metadata25">
    <rdf:RDF>
      <cc:Work
         rdf:about="">
        <dc:format>image/svg+xml</dc:format>
        <dc:type
           rdf:resource="http://purl.org/dc/dcmitype/StillImage" />
        <dc:title>Generic-GCP</dc:title>
      </cc:Work>
    </rdf:RDF>
  </metadata>
  <defs
     id="defs23" />
  <sodipodi:namedview
     pagecolor="#ffffff"
     bordercolor="#666666"
     borderopacity="1"
     objecttolerance="10"
     gridtolerance="10"
     guidetolerance="10"
     inkscape:pageopacity="0"
     inkscape:pageshadow="2"
     inkscape:window-width="1366"
     inkscape:window-height="705"
     id="namedview21"
     showgrid="false"
     inkscape:zoom="1.84375"
     inkscape:cx="86.237288"
     inkscape:cy="108.88893"
     inkscape:window-x="-8"
     inkscape:window-y="-8"
     inkscape:window-maximized="1"
     inkscape:current-layer="Layer_1"
     inkscape:document-rotation="0" />
  <title
     id="title2">Generic-GCP</title>
  <path
     style="fill:#aaffc3;fill-opacity:1;stroke-width:0.20247"
     d="m 37.450818,127.93659 c -3.166753,-0.56585 -6.221268,-2.27711 -8.09035,-4.53252 -0.798641,-0.96371 -3.82937,-6.70758 -14.057672,-26.642233 C 0.98767592,68.862107 0.97502792,68.836787 0.50726292,67.147737 c -0.499894,-1.80508 -0.464479,-5.26703 0.07326,-7.16168 0.308942,-1.08851 4.12760498,-8.66494 14.00746608,-27.79158 C 27.69855,6.8134672 28.220371,5.8429572 29.598827,4.2764072 c 1.64733,-1.872104 3.660317,-3.114557 6.204781,-3.82970904 1.479362,-0.415791 2.172706,-0.426235 28.092514,-0.423153 28.94205,0.0035 27.55615,-0.05188 30.31499,1.21002304 1.80331,0.824832 3.60229,2.174515 4.67228,3.505349 0.653065,0.81228 4.983318,9.0177198 14.432698,27.3486698 7.42483,14.40352 13.67509,26.70918 13.88946,27.34591 0.92553,2.74909 0.9095,6.37978 -0.0401,9.08322 -0.21048,0.59923 -6.48167,12.91821 -13.93597,27.37552 -10.63942,20.634743 -13.773798,26.551823 -14.579008,27.522373 -1.32434,1.59627 -3.30492,2.95911 -5.5899,3.84647 l -1.8217,0.70745 -26.654332,0.0268 c -14.659882,0.0147 -26.870058,-0.0117 -27.133725,-0.0587 z"
     id="path8"
     inkscape:connector-curvature="0"
     inkscape:export-filename="C:\Users\ammoussaoui\modelio\eclipse\modules\CamelDesigner\src\main\conf\res\icon\gui\ContainerMeasurement_24.png"
     inkscape:export-xdpi="18.037327"
     inkscape:export-ydpi="18.037327" />
  <g
     id="g843"
     transform="matrix(0.08792373,0,0,0.06462431,77.55932,91.117199)"
     style="fill:#4d4d4d">
    <path
       d="M 183.801,219.469 C 216.195,225.795 249,211.406 249,196 c 0,-11.801 -20.955,-25 -49,-25 -26.242,0 -49,12.319 -49,25 0,9.737 14.102,19.827 32.801,23.469 z"
       id="path835"
       style="fill:#4d4d4d" />
    <path
       d="M 342.54,293 H 399 V 256.809 C 382.912,272.025 362.635,283.917 342.54,293 Z"
       id="path837"
       style="fill:#4d4d4d" />
    <path
       d="m 45.367,250.197 c 27.787,17.054 65.187,30.906 102.608,38.005 C 262.345,309.932 399,252.573 399,196 399,160.65 377.304,127.975 337.907,103.993 300.836,81.428 251.859,69 200,69 93.225,69 0,122.702 0,196 c 0,17.391 16.757,36.638 45.367,54.197 z m 76.293,-61.47 C 126.685,161.083 159.634,141 200,141 c 44.299,0 79,24.159 79,55 0,30.841 -34.701,55 -79,55 -7.47,0 -14.852,-0.701 -21.941,-2.086 C 143.933,242.268 121,221.002 121,196 c 0,-2.438 0.223,-4.886 0.66,-7.273 z"
       id="path839"
       style="fill:#4d4d4d" />
    <path
       d="m 200,323 c -19.641,0 -39.027,-1.791 -57.62,-5.324 C 95.29,308.743 35.318,287.039 0,254.41 V 348 c 0,28.588 20.419,54.918 55.683,74.142 19.902,10.844 41.913,17.638 65.423,20.193 1.133,0.123 0.205,0.083 23.895,0.12 v -54.031 c 0,-8.077 6.207,-15.027 14.275,-15.407 C 167.889,372.611 175,379.475 175,388 v 54.501 l 50,0.078 v -54.155 c 0,-8.077 6.207,-15.027 14.275,-15.407 C 247.889,372.611 255,379.475 255,388 v 54.625 l 50,0.078 v -54.279 c 0,-8.077 6.207,-15.027 14.275,-15.407 C 327.889,372.611 335,379.475 335,388 v 54.75 l 50,0.078 v -54.404 c 0,-8.077 6.207,-15.027 14.275,-15.407 C 407.889,372.611 415,379.475 415,388 v 54.874 L 496.977,443 C 504.825,443 512,436.854 512,427.744 V 338 c 0,-8.284 -6.716,-15 -15,-15 z"
       id="path841"
       style="fill:#4d4d4d" />
  </g>
  <g
     id="g908"
     transform="matrix(3.9864174,0,0,3.9059069,17.322036,10.910455)"
     style="fill:#ffffff">
    <path
       d="M 6.5,20 C 6.376,20 6.255,19.953 6.162,19.869 6.059,19.774 6,19.641 6,19.5 V 5.5 C 6,5.36 6.059,5.226 6.162,5.131 6.266,5.036 6.402,4.988 6.544,5.002 l 17,1.5 C 23.802,6.525 24,6.741 24,7 v 11 c 0,0.259 -0.198,0.476 -0.456,0.498 l -17,1.5 C 6.529,19.999 6.515,20 6.5,20 Z M 7,6.046 V 18.954 L 23,17.542 V 7.458 Z M 23.5,18 h 0.01 z"
       id="path879"
       style="fill:#ffffff" />
    <path
       d="M 6.5,20 C 6.46,20 6.42,19.995 6.379,19.985 l -6,-1.5 C 0.156,18.43 0,18.229 0,18 V 7 C 0,6.771 0.156,6.571 0.379,6.515 l 6,-1.5 C 6.643,4.946 6.918,5.111 6.985,5.379 7.052,5.646 6.89,5.918 6.621,5.985 L 1,7.391 V 17.61 l 5.621,1.405 C 6.89,19.082 7.052,19.354 6.985,19.621 6.929,19.849 6.725,20 6.5,20 Z"
       id="path881"
       style="fill:#ffffff" />
    <path
       d="M 3.5,19.25 C 3.224,19.25 3,19.026 3,18.75 V 6.25 C 3,5.974 3.224,5.75 3.5,5.75 3.776,5.75 4,5.974 4,6.25 v 12.5 c 0,0.276 -0.224,0.5 -0.5,0.5 z"
       id="path883"
       style="fill:#ffffff" />
    <path
       d="M 9.5,18 C 9.224,18 9,17.776 9,17.5 V 7.5 C 9,7.224 9.224,7 9.5,7 9.776,7 10,7.224 10,7.5 v 10 C 10,17.776 9.776,18 9.5,18 Z"
       id="path885"
       style="fill:#ffffff" />
    <path
       d="M 13.5,17.5 C 13.224,17.5 13,17.276 13,17 V 8 C 13,7.724 13.224,7.5 13.5,7.5 13.776,7.5 14,7.724 14,8 v 9 c 0,0.276 -0.224,0.5 -0.5,0.5 z"
       id="path887"
       style="fill:#ffffff" />
    <path
       d="M 17.5,17 C 17.224,17 17,16.776 17,16.5 v -8 C 17,8.224 17.224,8 17.5,8 17.776,8 18,8.224 18,8.5 v 8 c 0,0.276 -0.224,0.5 -0.5,0.5 z"
       id="path889"
       style="fill:#ffffff" />
    <path
       d="M 21.5,16.5 C 21.224,16.5 21,16.276 21,16 V 9 C 21,8.724 21.224,8.5 21.5,8.5 21.776,8.5 22,8.724 22,9 v 7 c 0,0.276 -0.224,0.5 -0.5,0.5 z"
       id="path891"
       style="fill:#ffffff" />
  </g>
</svg>
