<?xml version="1.0" encoding="UTF-8" standalone="no"?>
<svg
   id="Layer_1"
   data-name="Layer 1"
   width="128"
   height="128"
   viewBox="0 0 128 128"
   version="1.1"
   sodipodi:docname="ContainerConfiguration.svg"
   inkscape:version="1.1.1 (3bf5ae0d25, 2021-09-20)"
   inkscape:export-filename="C:\Users\ammoussaoui\modelio\eclipse\modules\CamelDesigner\src\main\conf\res\icon\gui\ContainerConfiguration_24.png"
   inkscape:export-xdpi="18.000002"
   inkscape:export-ydpi="18.000002"
   xmlns:inkscape="http://www.inkscape.org/namespaces/inkscape"
   xmlns:sodipodi="http://sodipodi.sourceforge.net/DTD/sodipodi-0.dtd"
   xmlns="http://www.w3.org/2000/svg"
   xmlns:svg="http://www.w3.org/2000/svg"
   xmlns:rdf="http://www.w3.org/1999/02/22-rdf-syntax-ns#"
   xmlns:cc="http://creativecommons.org/ns#"
   xmlns:dc="http://purl.org/dc/elements/1.1/">
  <metadata
     id="metadata25">
    <rdf:RDF>
      <cc:Work
         rdf:about="">
        <dc:format>image/svg+xml</dc:format>
        <dc:type
           rdf:resource="http://purl.org/dc/dcmitype/StillImage" />
        <dc:title>Generic-GCP</dc:title>
      </cc:Work>
    </rdf:RDF>
  </metadata>
  <defs
     id="defs23" />
  <sodipodi:namedview
     pagecolor="#ffffff"
     bordercolor="#666666"
     borderopacity="1"
     objecttolerance="10"
     gridtolerance="10"
     guidetolerance="10"
     inkscape:pageopacity="0"
     inkscape:pageshadow="2"
     inkscape:window-width="1920"
     inkscape:window-height="1001"
     id="namedview21"
     showgrid="false"
     inkscape:zoom="1.84375"
     inkscape:cx="-13.559322"
     inkscape:cy="49.084746"
     inkscape:window-x="-9"
     inkscape:window-y="1341"
     inkscape:window-maximized="1"
     inkscape:current-layer="Layer_1"
     inkscape:document-rotation="0"
     inkscape:pagecheckerboard="0" />
  <title
     id="title2">Generic-GCP</title>
  <path
     style="fill:#ff9955;fill-opacity:1;stroke-width:0.202048"
     d="M 39.076867,127.48372 C 35.900524,126.92021 32.817005,125.21609 30.90968,122.9701 30.094703,122.0104 26.966601,116.29049 16.400363,96.439004 1.6122805,68.655656 1.5992035,68.630448 1.1028055,66.948442 0.57230947,65.150896 0.54903847,61.703396 1.0546585,59.816641 1.3451465,58.732672 5.0353715,51.187854 14.590995,32.14101 27.271289,6.865891 27.776656,5.8994242 29.12856,4.3394151 c 1.615593,-1.8642952 3.607511,-3.1015652 6.139857,-3.81373331 1.472312,-0.4140573 2.165474,-0.4244576 28.085337,-0.4213887 28.942115,0.00346 27.555265,-0.051665 30.335515,1.20497551 1.81728,0.8213911 3.63914,2.1654422 4.73169,3.4907287 0.66684,0.8088912 5.136191,8.9800947 14.896321,27.2345647 7.669,14.343437 14.12787,26.597751 14.35304,27.231832 0.97213,2.737616 1.01765,6.353161 0.11388,9.045318 -0.20033,0.596725 -6.26268,12.864322 -13.4719,27.261312 -10.28961,20.548666 -13.32367,26.441056 -14.11244,27.407566 -1.297281,1.5896 -3.254751,2.94675 -5.524691,3.83042 l -1.8097,0.7045 -26.65388,0.0267 c -14.659629,0.0147 -26.870257,-0.0117 -27.134724,-0.0585 z"
     id="path8"
     inkscape:connector-curvature="0"
     inkscape:export-filename="C:\Users\ammoussaoui\modelio\eclipse\modules\CamelDesigner\src\main\conf\res\icon\gui\DataMeasurement_48.png"
     inkscape:export-xdpi="36.074654"
     inkscape:export-ydpi="36.074654" />
  <path
     d="m 110.89398,116.90373 -3.9587,-0.51041 c -0.23176,-0.62665 -0.54859,-1.22899 -0.94513,-1.79911 l 2.31091,-2.598 c 0.18689,-0.20976 0.15474,-0.49561 -0.075,-0.67737 l -2.60497,-2.05378 c -0.23243,-0.18282 -0.59816,-0.20659 -0.86475,-0.055 l -3.24402,1.83926 c -0.72944,-0.31808 -1.49975,-0.57064 -2.298859,-0.75399 l -0.690596,-3.10999 c -0.05627,-0.25256 -0.334246,-0.43749 -0.659784,-0.43749 h -3.684072 c -0.328217,0 -0.608207,0.18757 -0.661123,0.4433 l -0.640359,3.09309 c -0.803798,0.18229 -1.575443,0.43221 -2.302211,0.74606 l -3.235285,-1.82288 c -0.267263,-0.15059 -0.630981,-0.12628 -0.863413,0.056 l -2.603634,2.05378 c -0.229752,0.18124 -0.261904,0.46656 -0.07502,0.67632 l 2.276757,2.56947 c -0.405248,0.57857 -0.728107,1.19095 -0.963218,1.82816 l -3.905786,0.51305 c -0.322859,0.0423 -0.559979,0.26313 -0.559979,0.52098 v 2.90604 c 0,0.25626 0.233101,0.47554 0.552611,0.52045 l 3.905786,0.54633 c 0.233771,0.63563 0.55663,1.24802 0.963218,1.82817 l -2.30489,2.54305 c -0.190232,0.20976 -0.16009,0.49773 0.071,0.68107 l 2.604304,2.05589 c 0.229752,0.18124 0.592131,0.2066 0.858054,0.0592 l 3.262079,-1.80227 c 0.732126,0.31755 1.505781,0.56958 2.307569,0.7524 l 0.653755,3.09678 c 0.05292,0.25415 0.332237,0.44066 0.659784,0.44066 h 3.684072 c 0.324869,0 0.602849,-0.18387 0.659114,-0.4359 l 0.699974,-3.11211 c 0.803132,-0.18651 1.572762,-0.44013 2.297522,-0.75821 l 3.28552,1.81812 c 0.2666,0.14848 0.62831,0.12259 0.85873,-0.0587 l 2.6043,-2.05589 c 0.23176,-0.18334 0.26191,-0.47236 0.0697,-0.68265 l -2.34307,-2.5663 c 0.39721,-0.57065 0.7127,-1.17405 0.94245,-1.80069 l 3.96406,-0.54898 c 0.32085,-0.0444 0.55395,-0.26419 0.55395,-0.52045 v -2.90604 c 6.7e-4,-0.2589 -0.23712,-0.47976 -0.56132,-0.5215 z m -14.843462,5.69531 c -2.589568,0 -4.688819,-1.65591 -4.688819,-3.6986 0,-2.04268 2.099251,-3.6986 4.688819,-3.6986 2.589568,0 4.688822,1.65592 4.688822,3.6986 0,2.04269 -2.099254,3.6986 -4.688822,3.6986 z"
     id="path4362"
     style="stroke-width:0.594912" />
  <g
     style="fill:#ffe6d5"
     id="g4417"
     transform="matrix(2.9529185,0,0,2.0640299,11.118647,22.508487)">
    <path
       d="M 32,18 H 18 a 2,2 0 0 0 -2,2 v 12 a 2,2 0 0 0 2,2 h 14 a 2,2 0 0 0 2,-2 V 20 A 2,2 0 0 0 32,18 Z M 18,32 V 20 h 14 v 12 z"
       class="clr-i-solid clr-i-solid-path-1"
       id="path4393"
       style="fill:#ffe6d5" />
    <path
       d="m 21,21.7 a 0.7,0.7 0 0 0 -0.7,0.7 v 7.49 a 0.7,0.7 0 0 0 1.4,0 V 22.4 A 0.7,0.7 0 0 0 21,21.7 Z"
       class="clr-i-solid clr-i-solid-path-2"
       id="path4395"
       style="fill:#ffe6d5" />
    <path
       d="m 25,21.82 a 0.7,0.7 0 0 0 -0.7,0.7 V 30 a 0.7,0.7 0 1 0 1.4,0 V 22.52 A 0.7,0.7 0 0 0 25,21.82 Z"
       class="clr-i-solid clr-i-solid-path-3"
       id="path4397"
       style="fill:#ffe6d5" />
    <path
       d="m 29,21.7 a 0.7,0.7 0 0 0 -0.7,0.7 v 7.49 a 0.7,0.7 0 1 0 1.4,0 V 22.4 A 0.7,0.7 0 0 0 29,21.7 Z"
       class="clr-i-solid clr-i-solid-path-4"
       id="path4399"
       style="fill:#ffe6d5" />
    <path
       d="M 18,16 H 28 V 8.12 c 0,-1.68 -5.38,-3 -12,-3 -6.62,0 -12,1.32 -12,3 V 28 c 0,1.5 4.33,2.75 10,3 V 25.22 A 29.17,29.17 0 0 1 6,23.93 v -1.49 l 0.24,0.1 A 26.63,26.63 0 0 0 14,23.82 V 20 A 4,4 0 0 1 14.29,18.53 29.19,29.19 0 0 1 6,17.23 v -1.48 l 0.24,0.09 a 29,29 0 0 0 9,1.32 v 0 A 4,4 0 0 1 18,16 Z M 6,10.54 V 9.05 L 6.24,9.14 A 30.12,30.12 0 0 0 16,10.47 28.33,28.33 0 0 0 26,9.05 v 1.5 A 32.53,32.53 0 0 1 16,11.87 32.44,32.44 0 0 1 6,10.54 Z"
       class="clr-i-solid clr-i-solid-path-5"
       id="path4401"
       style="fill:#ffe6d5" />
    <rect
       x="0"
       y="0"
       width="36"
       height="36"
       fill-opacity="0"
       id="rect4403"
       style="fill:#ffe6d5" />
  </g>
</svg>
