<?xml version="1.0" encoding="UTF-8" standalone="no"?>
<svg
   xmlns:dc="http://purl.org/dc/elements/1.1/"
   xmlns:cc="http://creativecommons.org/ns#"
   xmlns:rdf="http://www.w3.org/1999/02/22-rdf-syntax-ns#"
   xmlns:svg="http://www.w3.org/2000/svg"
   xmlns="http://www.w3.org/2000/svg"
   xmlns:sodipodi="http://sodipodi.sourceforge.net/DTD/sodipodi-0.dtd"
   xmlns:inkscape="http://www.inkscape.org/namespaces/inkscape"
   id="Layer_1"
   data-name="Layer 1"
   width="128"
   height="128"
   viewBox="0 0 128 128"
   version="1.1"
   sodipodi:docname="CommunicationMeasurement.svg"
   inkscape:version="1.0.2-2 (e86c870879, 2021-01-15)"
   inkscape:export-filename="C:\Users\ammoussaoui\modelio\eclipse\modules\CamelDesigner\src\main\conf\res\icon\gui\CommunicationMeasurement_24.png"
   inkscape:export-xdpi="18.091095"
   inkscape:export-ydpi="18.091095">
  <metadata
     id="metadata25">
    <rdf:RDF>
      <cc:Work
         rdf:about="">
        <dc:format>image/svg+xml</dc:format>
        <dc:type
           rdf:resource="http://purl.org/dc/dcmitype/StillImage" />
        <dc:title>Generic-GCP</dc:title>
      </cc:Work>
    </rdf:RDF>
  </metadata>
  <defs
     id="defs23" />
  <sodipodi:namedview
     pagecolor="#ffffff"
     bordercolor="#666666"
     borderopacity="1"
     objecttolerance="10"
     gridtolerance="10"
     guidetolerance="10"
     inkscape:pageopacity="0"
     inkscape:pageshadow="2"
     inkscape:window-width="1366"
     inkscape:window-height="705"
     id="namedview21"
     showgrid="false"
     inkscape:zoom="1.84375"
     inkscape:cx="23.236881"
     inkscape:cy="22.109273"
     inkscape:window-x="-8"
     inkscape:window-y="-8"
     inkscape:window-maximized="1"
     inkscape:current-layer="Layer_1"
     inkscape:document-rotation="0" />
  <title
     id="title2">Generic-GCP</title>
  <path
     inkscape:connector-curvature="0"
     id="path4"
     style="fill:#4285f4"
     d="M 126.47,58.12 100.17,12.38 C 98.157561,8.811194 93.206435,6.5742145 89.11,6.5 H 38.7 c -4.097011,0.072195 -8.849064,2.3097272 -10.86,5.88 L 1.53,58 c -2.0353442,3.541745 -2.0353442,7.898255 0,11.44 l 26.3,46 c 1.990324,3.61954 6.732395,5.93082 10.86,6.09 H 89.3 c 4.127386,-0.14167 8.876176,-2.44336 10.87,-6.06 l 26.3,-45.74 c 2.04949,-3.598656 2.04949,-8.011344 0,-11.61 z"
     sodipodi:nodetypes="ccccccccccccc" />
  <path
     style="fill:#aaffc3;fill-opacity:1;stroke-width:0.201979"
     d="m 37.993191,127.3969 c -3.166753,-0.56311 -6.221268,-2.26608 -8.09035,-4.51054 C 29.1042,121.92732 26.073471,116.21131 15.845169,96.373349 1.5300488,68.608941 1.517401,68.583751 1.0496361,66.902887 0.54974139,65.106569 0.58515669,61.661411 1.1228991,59.77595 1.4318404,58.692721 5.2505035,51.153037 15.130365,32.119179 28.240926,6.8612827 28.762747,5.8954744 30.141203,4.3365279 31.788533,2.4735034 33.80152,1.2370766 36.345984,0.52539402 37.825346,0.11161933 38.51869,0.10122615 64.438498,0.10429323 c 28.942054,0.003431 27.556148,-0.0516254 30.314994,1.20415367 1.803301,0.8208314 3.602288,2.1639669 4.672272,3.4883488 0.653066,0.8083405 4.983316,8.9739763 14.432696,27.2160113 7.42483,14.333653 13.67509,26.579622 13.88946,27.213264 0.92553,2.735754 0.9095,6.348837 -0.0401,9.039162 -0.21048,0.596318 -6.48167,12.855547 -13.93597,27.242731 -10.63942,20.534656 -13.773789,26.423036 -14.579007,27.388876 -1.324336,1.58852 -3.304912,2.94476 -5.589898,3.82782 l -1.821699,0.70402 -26.65433,0.0267 c -14.659882,0.0147 -26.870058,-0.0117 -27.133725,-0.0584 z"
     id="path8"
     inkscape:connector-curvature="0"
     inkscape:export-filename="C:\Users\ammoussaoui\modelio\eclipse\modules\CamelDesigner\src\main\conf\res\icon\gui\HistoryRecord_24.png"
     inkscape:export-xdpi="18.091095"
     inkscape:export-ydpi="18.091095" />
  <g
     id="g122"
     transform="matrix(0.08417014,0,0,0.08963494,-18.145785,-35.295955)">
    <g
       id="g213"
       transform="matrix(1.8374803,0,0,1.5599999,511.99807,696.31993)"
       style="fill:#ffffff">
      <path
         d="m 512,437 c 0,-8.284 -6.716,-15 -15,-15 H 392.322 C 394.548,367.843 408.254,312.908 421.553,259.633 436.522,199.673 452,137.672 452,75 452,33.645 418.355,0 377,0 H 75 C 33.645,0 0,33.645 0,75 0,83.284 6.716,90 15,90 H 119.687 C 117.46,144.155 103.747,199.093 90.447,252.367 75.478,312.327 60,374.328 60,437 c 0,41.355 33.645,75 75,75 H 437.001 C 478.355,512 512,478.355 512,437 Z M 32.57,60 C 38.761,42.539 55.444,30 75,30 c 19.556,0 36.239,12.539 42.43,30 z M 90,437 C 90,378.016 105.024,317.834 119.553,259.633 134.522,199.673 150,137.672 150,75 150,58.129 144.397,42.544 134.959,30 H 377 c 24.813,0 45,20.187 45,45 0,58.984 -15.024,119.166 -29.553,177.367 C 378.673,307.539 364.479,364.44 362.298,422 H 195 c -8.284,0 -15,6.716 -15,15 0,24.813 -20.187,45 -45,45 -24.813,0 -45,-20.187 -45,-45 z m 347,45 H 194.944 c 6.568,-8.727 11.29,-18.919 13.549,-30 H 479.42 c -6.192,17.459 -22.865,30 -42.42,30 z"
         id="path203"
         style="fill:#ffffff" />
      <path
         d="m 195,150 h 176.995 c 8.284,0 15,-6.716 15,-15 0,-8.284 -6.716,-15 -15,-15 H 195 c -8.284,0 -15,6.716 -15,15 0,8.284 6.716,15 15,15 z"
         id="path205"
         style="fill:#ffffff" />
      <path
         d="m 180.921,210 h 179.055 c 8.284,0 15,-6.716 15,-15 0,-8.284 -6.716,-15 -15,-15 H 180.921 c -8.284,0 -15,6.716 -15,15 0,8.284 6.716,15 15,15 z"
         id="path207"
         style="fill:#ffffff" />
      <path
         d="m 166.863,270 h 178.273 c 8.284,0 15,-6.716 15,-15 0,-8.284 -6.716,-15 -15,-15 H 166.863 c -8.284,0 -15,6.716 -15,15 0,8.284 6.716,15 15,15 z"
         id="path209"
         style="fill:#ffffff" />
      <path
         d="m 152.023,330 h 179.056 c 8.284,0 15,-6.716 15,-15 0,-8.284 -6.716,-15 -15,-15 H 152.023 c -8.284,0 -15,6.716 -15,15 0,8.284 6.716,15 15,15 z"
         id="path211"
         style="fill:#ffffff" />
    </g>
  </g>
</svg>
