<?xml version="1.0" encoding="UTF-8" standalone="no"?>
<svg
   xmlns:dc="http://purl.org/dc/elements/1.1/"
   xmlns:cc="http://creativecommons.org/ns#"
   xmlns:rdf="http://www.w3.org/1999/02/22-rdf-syntax-ns#"
   xmlns:svg="http://www.w3.org/2000/svg"
   xmlns="http://www.w3.org/2000/svg"
   xmlns:sodipodi="http://sodipodi.sourceforge.net/DTD/sodipodi-0.dtd"
   xmlns:inkscape="http://www.inkscape.org/namespaces/inkscape"
   id="Layer_1"
   data-name="Layer 1"
   width="128"
   height="128"
   viewBox="0 0 128 128"
   version="1.1"
   sodipodi:docname="HistoryInfo.svg"
   inkscape:version="1.0.2-2 (e86c870879, 2021-01-15)"
   inkscape:export-filename="C:\Users\ammoussaoui\modelio\eclipse\modules\CamelDesigner\src\main\conf\res\icon\gui\HistoryInfo_24.png"
   inkscape:export-xdpi="17.92115"
   inkscape:export-ydpi="17.92115">
  <metadata
     id="metadata25">
    <rdf:RDF>
      <cc:Work
         rdf:about="">
        <dc:format>image/svg+xml</dc:format>
        <dc:type
           rdf:resource="http://purl.org/dc/dcmitype/StillImage" />
        <dc:title>Generic-GCP</dc:title>
      </cc:Work>
    </rdf:RDF>
  </metadata>
  <defs
     id="defs23" />
  <sodipodi:namedview
     pagecolor="#ffffff"
     bordercolor="#666666"
     borderopacity="1"
     objecttolerance="10"
     gridtolerance="10"
     guidetolerance="10"
     inkscape:pageopacity="0"
     inkscape:pageshadow="2"
     inkscape:window-width="1366"
     inkscape:window-height="705"
     id="namedview21"
     showgrid="false"
     inkscape:zoom="1.84375"
     inkscape:cx="162.16949"
     inkscape:cy="108.88893"
     inkscape:window-x="-8"
     inkscape:window-y="-8"
     inkscape:window-maximized="1"
     inkscape:current-layer="Layer_1"
     inkscape:document-rotation="0" />
  <title
     id="title2">Generic-GCP</title>
  <path
     style="fill:#aaffc3;fill-opacity:1;stroke-width:0.204983"
     d="m 37.501806,129.01981 c -3.187276,-0.57626 -6.261598,-2.31895 -8.142793,-4.6158 C 28.555196,123.42257 25.50482,117.57316 15.210215,97.272236 0.80229915,68.859867 0.78956714,68.834087 0.31877498,67.113998 -0.18436561,65.275756 -0.148716,61.750197 0.39255016,59.820732 0.70349282,58.712224 4.5469067,50.996578 14.490812,31.518509 27.68637,5.6711463 28.211572,4.6827976 29.598958,3.0874689 c 1.658009,-1.9065042 3.684048,-3.17178634 6.245001,-3.90007774 1.488961,-0.42343146 2.186795,-0.43406756 28.274627,-0.43092806 29.129663,0.00346 27.734779,-0.052829 30.511503,1.23225556 1.814989,0.83998828 3.625641,2.21446924 4.702556,3.56975934 0.657304,0.8272057 5.015625,9.183411 14.526265,27.851177 7.47295,14.668171 13.76372,27.199934 13.97949,27.848365 0.93153,2.799601 0.91539,6.497006 -0.0403,9.250117 -0.21184,0.610236 -6.52369,13.15557 -14.02631,27.878519 -10.70838,21.013894 -13.863075,27.039704 -14.673515,28.028074 -1.332914,1.62559 -3.326333,3.01349 -5.626134,3.91715 l -1.8335,0.72045 -26.827112,0.0273 c -14.754921,0.015 -27.044243,-0.0119 -27.309621,-0.0597 z"
     id="path8"
     inkscape:connector-curvature="0" />
  <g
     id="g102"
     transform="matrix(0.16101695,0,0,0.16101695,23.864671,22.084749)"
     style="fill:#ffffff">
    <path
       d="m 512,437 c 0,-8.284 -6.716,-15 -15,-15 H 392.322 C 394.548,367.843 408.254,312.908 421.553,259.633 436.522,199.673 452,137.672 452,75 452,33.645 418.355,0 377,0 H 75 C 33.645,0 0,33.645 0,75 0,83.284 6.716,90 15,90 H 119.687 C 117.46,144.155 103.747,199.093 90.447,252.367 75.478,312.327 60,374.328 60,437 c 0,41.355 33.645,75 75,75 H 437.001 C 478.355,512 512,478.355 512,437 Z M 32.57,60 C 38.761,42.539 55.444,30 75,30 c 19.556,0 36.239,12.539 42.43,30 z M 90,437 C 90,378.016 105.024,317.834 119.553,259.633 134.522,199.673 150,137.672 150,75 150,58.129 144.397,42.544 134.959,30 H 377 c 24.813,0 45,20.187 45,45 0,58.984 -15.024,119.166 -29.553,177.367 C 378.673,307.539 364.479,364.44 362.298,422 H 195 c -8.284,0 -15,6.716 -15,15 0,24.813 -20.187,45 -45,45 -24.813,0 -45,-20.187 -45,-45 z m 347,45 H 194.944 c 6.568,-8.727 11.29,-18.919 13.549,-30 H 479.42 c -6.192,17.459 -22.865,30 -42.42,30 z"
       id="path92"
       style="fill:#ffffff" />
    <path
       d="m 195,150 h 176.995 c 8.284,0 15,-6.716 15,-15 0,-8.284 -6.716,-15 -15,-15 H 195 c -8.284,0 -15,6.716 -15,15 0,8.284 6.716,15 15,15 z"
       id="path94"
       style="fill:#ffffff" />
    <path
       d="m 180.921,210 h 179.055 c 8.284,0 15,-6.716 15,-15 0,-8.284 -6.716,-15 -15,-15 H 180.921 c -8.284,0 -15,6.716 -15,15 0,8.284 6.716,15 15,15 z"
       id="path96"
       style="fill:#ffffff" />
    <path
       d="m 166.863,270 h 178.273 c 8.284,0 15,-6.716 15,-15 0,-8.284 -6.716,-15 -15,-15 H 166.863 c -8.284,0 -15,6.716 -15,15 0,8.284 6.716,15 15,15 z"
       id="path98"
       style="fill:#ffffff" />
    <path
       d="m 152.023,330 h 179.056 c 8.284,0 15,-6.716 15,-15 0,-8.284 -6.716,-15 -15,-15 H 152.023 c -8.284,0 -15,6.716 -15,15 0,8.284 6.716,15 15,15 z"
       id="path100"
       style="fill:#ffffff" />
  </g>
  <g
     id="g322"
     transform="matrix(0.0390825,0,0,0.0343397,96.54237,106.30509)"
     style="fill:#333333">
    <path
       d="M 256,0 C 114.613,0 0,114.617 0,256 0,397.391 114.613,512 256,512 397.387,512 512,397.391 512,256 512,114.617 397.387,0 256,0 Z m 0,128 c 17.674,0 32,14.328 32,32 0,17.68 -14.326,32 -32,32 -17.674,0 -32,-14.32 -32,-32 0,-17.672 14.326,-32 32,-32 z m 48,256 h -96 c -8.836,0 -16,-7.156 -16,-16 0,-8.836 7.164,-16 16,-16 h 16 v -96 h -16 c -8.836,0 -16,-7.156 -16,-16 0,-8.836 7.164,-16 16,-16 h 64 c 8.836,0 16,7.164 16,16 v 112 h 16 c 8.836,0 16,7.164 16,16 0,8.844 -7.164,16 -16,16 z"
       id="path267"
       style="fill:#333333" />
    <g
       id="g269"
       style="fill:#333333">
</g>
    <g
       id="g271"
       style="fill:#333333">
</g>
    <g
       id="g273"
       style="fill:#333333">
</g>
    <g
       id="g275"
       style="fill:#333333">
</g>
    <g
       id="g277"
       style="fill:#333333">
</g>
    <g
       id="g279"
       style="fill:#333333">
</g>
    <g
       id="g281"
       style="fill:#333333">
</g>
    <g
       id="g283"
       style="fill:#333333">
</g>
    <g
       id="g285"
       style="fill:#333333">
</g>
    <g
       id="g287"
       style="fill:#333333">
</g>
    <g
       id="g289"
       style="fill:#333333">
</g>
    <g
       id="g291"
       style="fill:#333333">
</g>
    <g
       id="g293"
       style="fill:#333333">
</g>
    <g
       id="g295"
       style="fill:#333333">
</g>
    <g
       id="g297"
       style="fill:#333333">
</g>
  </g>
</svg>
