<?xml version="1.0" encoding="UTF-8" standalone="no"?>
<svg
   id="Layer_1"
   data-name="Layer 1"
   width="128"
   height="128"
   viewBox="0 0 128 128"
   version="1.1"
   sodipodi:docname="IfThenConstraint.svg"
   inkscape:version="1.1.1 (3bf5ae0d25, 2021-09-20)"
   inkscape:export-filename="C:\Users\ammoussaoui\modelio\eclipse\modules\CamelDesigner\src\main\conf\res\icon\gui\IfThenConstraint_24.png"
   inkscape:export-xdpi="18"
   inkscape:export-ydpi="18"
   xmlns:inkscape="http://www.inkscape.org/namespaces/inkscape"
   xmlns:sodipodi="http://sodipodi.sourceforge.net/DTD/sodipodi-0.dtd"
   xmlns="http://www.w3.org/2000/svg"
   xmlns:svg="http://www.w3.org/2000/svg"
   xmlns:rdf="http://www.w3.org/1999/02/22-rdf-syntax-ns#"
   xmlns:cc="http://creativecommons.org/ns#"
   xmlns:dc="http://purl.org/dc/elements/1.1/">
  <metadata
     id="metadata25">
    <rdf:RDF>
      <cc:Work
         rdf:about="">
        <dc:format>image/svg+xml</dc:format>
        <dc:type
           rdf:resource="http://purl.org/dc/dcmitype/StillImage" />
        <dc:title>Generic-GCP</dc:title>
      </cc:Work>
    </rdf:RDF>
  </metadata>
  <defs
     id="defs23">
    <pattern
       y="0"
       x="0"
       height="6"
       width="6"
       patternUnits="userSpaceOnUse"
       id="EMFhbasepattern" />
    <pattern
       y="0"
       x="0"
       height="6"
       width="6"
       patternUnits="userSpaceOnUse"
       id="EMFhbasepattern-3" />
    <pattern
       y="0"
       x="0"
       height="6"
       width="6"
       patternUnits="userSpaceOnUse"
       id="EMFhbasepattern-2" />
    <pattern
       y="0"
       x="0"
       height="6"
       width="6"
       patternUnits="userSpaceOnUse"
       id="EMFhbasepattern-1" />
    <pattern
       y="0"
       x="0"
       height="6"
       width="6"
       patternUnits="userSpaceOnUse"
       id="EMFhbasepattern-5" />
  </defs>
  <sodipodi:namedview
     pagecolor="#ffffff"
     bordercolor="#666666"
     borderopacity="1"
     objecttolerance="10"
     gridtolerance="10"
     guidetolerance="10"
     inkscape:pageopacity="0"
     inkscape:pageshadow="2"
     inkscape:window-width="1920"
     inkscape:window-height="1001"
     id="namedview21"
     showgrid="false"
     inkscape:zoom="1.84375"
     inkscape:cx="-100.88136"
     inkscape:cy="140.20339"
     inkscape:window-x="-9"
     inkscape:window-y="-9"
     inkscape:window-maximized="1"
     inkscape:current-layer="g15113"
     inkscape:document-rotation="0"
     inkscape:pagecheckerboard="0">
    <inkscape:grid
       type="xygrid"
       id="grid799" />
  </sodipodi:namedview>
  <title
     id="title2">Generic-GCP</title>
  <g
     id="g797"
     transform="matrix(0.90960453,0,0,0.95480226,40.717515,39.045198)"
     style="fill:#ffffff">
    <g
       id="Layer_1-9"
       style="fill:#ffffff">
      <path
         d="m 11.899,49 c 2.911,0 5.648,-1.134 7.707,-3.192 l 9.201,-9.201 C 30.866,34.548 32,31.811 32,28.899 32,24.074 28.902,19.885 24.292,18.475 l -0.584,1.912 c 3.764,1.152 6.292,4.572 6.292,8.512 0,2.377 -0.926,4.612 -2.606,6.293 l -9.201,9.201 C 16.512,46.074 14.276,47 11.899,47 6.992,47 3,43.008 3,38.101 3,35.724 3.926,33.489 5.606,31.808 l 9.201,-9.201 c 0.291,-0.291 0.604,-0.563 0.93,-0.809 l -1.205,-1.597 c -0.398,0.301 -0.782,0.634 -1.139,0.991 L 4.192,30.393 C 2.134,32.452 1,35.189 1,38.101 1,44.11 5.89,49 11.899,49 Z"
         id="path780"
         style="fill:#ffffff" />
      <path
         d="M 38.101,1 C 35.19,1 32.453,2.134 30.394,4.192 l -9.201,9.201 C 19.134,15.452 18,18.189 18,21.101 c 0,5.208 3.705,9.707 8.81,10.699 l 0.381,-1.963 c -4.166,-0.81 -7.19,-4.483 -7.19,-8.736 0,-2.377 0.926,-4.612 2.606,-6.293 L 31.808,5.607 C 33.488,3.926 35.724,3 38.101,3 43.008,3 47,6.992 47,11.899 c 0,2.377 -0.926,4.612 -2.606,6.293 l -9.2,9.201 c -0.259,0.258 -0.53,0.499 -0.809,0.716 l 1.23,1.576 c 0.342,-0.267 0.676,-0.562 0.991,-0.877 l 9.201,-9.201 C 47.866,17.548 49,14.811 49,11.899 49,5.89 44.11,1 38.101,1 Z"
         id="path782"
         style="fill:#ffffff" />
    </g>
    <g
       id="g785"
       style="fill:#ffffff" />
  </g>
  <g
     id="g1081"
     transform="matrix(1.061108,0,0,1.061108,-121.04605,21.052501)">
    <g
       transform="matrix(3.230437,-1.4626805,1.4626805,3.230437,-9.3871092,42.998146)"
       id="g927">
      <g
         id="g874" />
      <g
         id="g876" />
      <g
         id="g878" />
      <g
         id="g880" />
      <g
         id="g882" />
      <g
         id="g884" />
      <g
         id="g886" />
      <g
         id="g888" />
      <g
         id="g890" />
      <g
         id="g892" />
      <g
         id="g894" />
      <g
         id="g896" />
      <g
         id="g898" />
      <g
         id="g900" />
      <g
         id="g902" />
      <g
         id="g855"
         transform="matrix(0.25689038,0.11631508,-0.11631508,0.25689038,2.6632737,-2.554589)">
        <text
           xml:space="preserve"
           style="font-style:normal;font-variant:normal;font-weight:normal;font-stretch:normal;font-size:49.9197px;line-height:1.25;font-family:sans-serif;-inkscape-font-specification:'sans-serif, Normal';font-variant-ligatures:normal;font-variant-caps:normal;font-variant-numeric:normal;font-feature-settings:normal;text-align:start;letter-spacing:0px;word-spacing:0px;writing-mode:lr-tb;text-anchor:start;fill:#000000;fill-opacity:1;stroke:none;stroke-width:1.24799"
           x="5.4791756"
           y="60.735191"
           id="text931"><tspan
             style="stroke-width:1.24799"
             y="60.735191"
             x="5.4791756"
             id="tspan834"
             sodipodi:role="line" /></text>
      </g>
    </g>
  </g>
  <path
     d="M 94.526008,106.94731 H 73.59489 c -2.310793,0 -4.186219,-1.89567 -4.186219,-4.2314 0,-2.33574 1.875426,-4.231411 4.186219,-4.231411 h 16.744898 c 2.310794,0 4.18622,-1.895662 4.18622,-4.231403 v -16.92564 c 0,-2.335738 1.875436,-4.23141 4.186232,-4.23141 2.31079,0 4.18622,1.895672 4.18622,4.23141 v 21.157043 c 0,4.675711 -3.746672,8.462811 -8.372452,8.462811 z M 19.173977,51.938999 V 30.781951 c 0,-4.675707 3.746672,-8.462819 8.372449,-8.462819 h 20.931118 c 2.310793,0 4.186229,1.895671 4.186229,4.23141 0,2.335737 -1.875436,4.231409 -4.186229,4.231409 H 31.732646 c -2.310794,0 -4.18622,1.895671 -4.18622,4.23141 v 16.925638 c 0,2.335737 -1.875436,4.23141 -4.186229,4.23141 -2.310794,0 -4.18622,-1.895673 -4.18622,-4.23141 z m 0.0419,12.694229 -0.0419,0.04232 v -0.08463 z"
     id="focus_point_round-[#844]"
     style="fill:#ffffff;fill-rule:evenodd;stroke:none;stroke-width:4.20875"
     sodipodi:nodetypes="sssssssssssssssssssssscccc" />
  <g
     id="g15113"
     transform="matrix(1.0174877,0,0,1.105437,2.5794479,-7.1964682)">
    <path
       style="fill:#f032e6;fill-opacity:1;stroke-width:0.188936"
       d="M 35.698168,121.34829 C 32.623921,120.84073 29.658634,119.30576 27.844151,117.2827 27.06884,116.41827 24.126643,111.26613 14.197127,93.385135 0.30017493,68.359605 0.28789737,68.336895 -0.16620343,66.821845 c -0.48529223,-1.61912 -0.45091173,-4.72442 0.07112,-6.42389 C 0.20483284,59.421585 3.9119462,52.625675 13.503201,35.469448 26.23078,12.70317 26.737358,11.832636 28.075547,10.427476 29.674756,8.7482357 31.62894,7.6337787 34.099076,6.9923017 c 1.436147,-0.372957 2.109238,-0.382325 27.271884,-0.37956 28.096608,0.0031 26.751187,-0.04653 29.429443,1.085367 1.750623,0.739859 3.497059,1.9504961 4.535787,3.1442303 0.633991,0.7286 4.83775,8.088719 14.01109,24.53123 7.20794,12.919676 13.27562,23.957616 13.48373,24.528756 0.89849,2.46588 0.88293,5.72254 -0.0389,8.14747 -0.20433,0.5375 -6.29233,11.58739 -13.52888,24.55532 -10.328616,18.508965 -13.371431,23.816475 -14.153127,24.687035 -1.28565,1.43182 -3.20837,2.65427 -5.426608,3.45021 l -1.768484,0.63457 -25.875712,0.0241 c -14.231643,0.0132 -26.085139,-0.0105 -26.341104,-0.0527 z"
       id="path8-1"
       inkscape:connector-curvature="0"
       inkscape:export-filename="C:\Users\ammoussaoui\modelio\eclipse\modules\CamelDesigner\src\main\conf\res\icon\gui\CompositeConstraint_24.png"
       inkscape:export-xdpi="18.260742"
       inkscape:export-ydpi="18.260742" />
    <text
       xml:space="preserve"
       style="font-style:normal;font-weight:normal;font-size:32.392px;line-height:1.25;font-family:sans-serif;fill:#000000;fill-opacity:1;stroke:none;stroke-width:0.8098"
       x="26.040621"
       y="50.158714"
       id="text22209"
       transform="scale(0.92614674,1.0797425)"><tspan
         sodipodi:role="line"
         id="tspan22207"
         style="stroke-width:0.8098"
         x="26.040621"
         y="50.158714">  If</tspan><tspan
         sodipodi:role="line"
         style="stroke-width:0.8098"
         x="26.040621"
         y="90.648712"
         id="tspan23989">Then</tspan><tspan
         sodipodi:role="line"
         style="stroke-width:0.8098"
         x="26.040621"
         y="131.1387"
         id="tspan22607" /></text>
  </g>
</svg>
