<?xml version="1.0" encoding="UTF-8" standalone="no"?>
<svg
   id="Layer_1"
   data-name="Layer 1"
   width="128"
   height="128"
   viewBox="0 0 128 128"
   version="1.1"
   sodipodi:docname="ImageConfiguration.svg"
   inkscape:version="1.1.1 (3bf5ae0d25, 2021-09-20)"
   inkscape:export-filename="C:\Users\ammoussaoui\modelio\eclipse\modules\CamelDesigner\src\main\conf\res\icon\gui\ImageConfiguration_48.png"
   inkscape:export-xdpi="36.072636"
   inkscape:export-ydpi="36.072636"
   xmlns:inkscape="http://www.inkscape.org/namespaces/inkscape"
   xmlns:sodipodi="http://sodipodi.sourceforge.net/DTD/sodipodi-0.dtd"
   xmlns="http://www.w3.org/2000/svg"
   xmlns:svg="http://www.w3.org/2000/svg"
   xmlns:rdf="http://www.w3.org/1999/02/22-rdf-syntax-ns#"
   xmlns:cc="http://creativecommons.org/ns#"
   xmlns:dc="http://purl.org/dc/elements/1.1/">
  <metadata
     id="metadata25">
    <rdf:RDF>
      <cc:Work
         rdf:about="">
        <dc:format>image/svg+xml</dc:format>
        <dc:type
           rdf:resource="http://purl.org/dc/dcmitype/StillImage" />
        <dc:title>Generic-GCP</dc:title>
      </cc:Work>
    </rdf:RDF>
  </metadata>
  <defs
     id="defs23" />
  <sodipodi:namedview
     pagecolor="#ffffff"
     bordercolor="#666666"
     borderopacity="1"
     objecttolerance="10"
     gridtolerance="10"
     guidetolerance="10"
     inkscape:pageopacity="0"
     inkscape:pageshadow="2"
     inkscape:window-width="1920"
     inkscape:window-height="1001"
     id="namedview21"
     showgrid="false"
     inkscape:zoom="1.84375"
     inkscape:cx="-13.016949"
     inkscape:cy="49.084746"
     inkscape:window-x="-9"
     inkscape:window-y="1341"
     inkscape:window-maximized="1"
     inkscape:current-layer="Layer_1"
     inkscape:document-rotation="0"
     inkscape:pagecheckerboard="0" />
  <title
     id="title2">Generic-GCP</title>
  <path
     style="fill:#ff9955;fill-opacity:1;stroke-width:0.202048"
     d="M 39.61924,127.48372 C 36.442897,126.92021 33.359378,125.21609 31.452053,122.9701 30.637076,122.0104 27.508974,116.29049 16.942736,96.439004 2.1546534,68.655656 2.1415764,68.630448 1.6451784,66.948442 1.1146824,65.150896 1.0914114,61.703396 1.5970314,59.816641 1.8875194,58.732672 5.5777444,51.187854 15.133368,32.14101 27.813662,6.865891 28.319029,5.8994242 29.670933,4.3394151 31.286526,2.4751199 33.278444,1.2378499 35.81079,0.52568179 c 1.472312,-0.4140573 2.165474,-0.4244576 28.085337,-0.4213887 28.942115,0.00346 27.555265,-0.051665 30.335515,1.20497551 1.81728,0.8213911 3.63914,2.1654422 4.73169,3.4907287 0.66684,0.8088912 5.136188,8.9800947 14.896318,27.2345647 7.669,14.343437 14.12787,26.597751 14.35304,27.231832 0.97213,2.737616 1.01765,6.353161 0.11388,9.045318 -0.20033,0.596725 -6.26268,12.864322 -13.4719,27.261312 -10.28961,20.548666 -13.32367,26.441056 -14.11244,27.407566 -1.297278,1.5896 -3.254748,2.94675 -5.524688,3.83042 l -1.8097,0.7045 -26.65388,0.0267 c -14.659629,0.0147 -26.870257,-0.0117 -27.134724,-0.0585 z"
     id="path8"
     inkscape:connector-curvature="0"
     inkscape:export-filename="C:\Users\ammoussaoui\modelio\eclipse\modules\CamelDesigner\src\main\conf\res\icon\gui\DataMeasurement_48.png"
     inkscape:export-xdpi="36.074654"
     inkscape:export-ydpi="36.074654" />
  <path
     d="m 112.5211,111.48 -3.9587,-0.51041 c -0.23176,-0.62665 -0.54859,-1.22899 -0.94513,-1.79911 l 2.31091,-2.598 c 0.18689,-0.20976 0.15474,-0.49561 -0.075,-0.67737 l -2.60497,-2.05378 c -0.23243,-0.18282 -0.59816,-0.20659 -0.86475,-0.055 l -3.24402,1.83926 c -0.72944,-0.31808 -1.49975,-0.57064 -2.29886,-0.75399 l -0.6906,-3.10999 c -0.0563,-0.25256 -0.334242,-0.43749 -0.65978,-0.43749 h -3.684072 c -0.328217,0 -0.608207,0.18757 -0.661123,0.4433 l -0.640359,3.09309 c -0.803798,0.18229 -1.575443,0.43221 -2.302211,0.74606 l -3.235285,-1.82288 c -0.267263,-0.15059 -0.630981,-0.12628 -0.863413,0.056 l -2.603634,2.05378 c -0.229752,0.18124 -0.261904,0.46656 -0.07502,0.67632 l 2.276757,2.56947 c -0.405248,0.57857 -0.728107,1.19095 -0.963218,1.82816 l -3.905786,0.51305 c -0.322859,0.0423 -0.559979,0.26313 -0.559979,0.52098 v 2.90604 c 0,0.25626 0.233101,0.47554 0.552611,0.52045 l 3.905786,0.54633 c 0.233771,0.63563 0.55663,1.24802 0.963218,1.82817 l -2.30489,2.54305 c -0.190232,0.20976 -0.16009,0.49773 0.071,0.68107 l 2.604304,2.05589 c 0.229752,0.18124 0.592131,0.2066 0.858054,0.0592 l 3.262079,-1.80227 c 0.732126,0.31755 1.505781,0.56958 2.307569,0.7524 l 0.653755,3.09678 c 0.05292,0.25415 0.332237,0.44066 0.659784,0.44066 h 3.684072 c 0.324869,0 0.602851,-0.18387 0.659111,-0.4359 l 0.69998,-3.11211 c 0.80313,-0.18651 1.57276,-0.44013 2.29752,-0.75821 l 3.28552,1.81812 c 0.2666,0.14848 0.62831,0.12259 0.85873,-0.0587 l 2.6043,-2.05589 c 0.23176,-0.18334 0.26191,-0.47236 0.0697,-0.68265 l -2.34307,-2.5663 c 0.39721,-0.57065 0.7127,-1.17405 0.94245,-1.80069 l 3.96406,-0.54898 c 0.32085,-0.0444 0.55395,-0.26419 0.55395,-0.52045 v -2.90604 c 6.7e-4,-0.2589 -0.23712,-0.47976 -0.56132,-0.5215 z m -14.843463,5.69531 c -2.589568,0 -4.688819,-1.65591 -4.688819,-3.6986 0,-2.04268 2.099251,-3.6986 4.688819,-3.6986 2.589563,0 4.688823,1.65592 4.688823,3.6986 0,2.04269 -2.09926,3.6986 -4.688823,3.6986 z"
     id="path4362"
     style="stroke-width:0.594912" />
  <path
     d="m 37.335595,94.847459 q -4.906779,0 -8.341525,-2.936441 -3.434746,-2.93644 -3.434746,-7.131356 v -46.98305 q 0,-4.194916 3.434746,-7.131356 3.434746,-2.936441 8.341525,-2.936441 h 54.955932 q 4.906776,0 8.341523,2.936441 3.43474,2.93644 3.43474,7.131356 v 46.98305 q 0,4.194916 -3.43474,7.131356 -3.434747,2.936441 -8.341523,2.936441 z m 0,-5.033898 h 54.955932 q 2.55153,0 4.21983,-1.468221 1.668306,-1.46822 1.668306,-3.565678 v -46.98305 q 0,-2.181356 -1.668306,-3.607628 -1.6683,-1.426271 -4.21983,-1.426271 H 37.335595 q -2.45339,0 -4.170763,1.426271 -1.717372,1.426272 -1.717372,3.607628 v 46.98305 q 0,2.097458 1.717372,3.565678 1.717373,1.468221 4.170763,1.468221 z m 6.280678,-9.228814 13.346441,-11.410169 7.163898,6.040678 8.537797,-9.228814 13.640847,14.598305 z M 49.111866,53.73729 q -2.845932,0 -4.857711,-1.719916 -2.01178,-1.719915 -2.01178,-4.152966 0,-2.433051 2.01178,-4.152966 2.011779,-1.719915 4.857711,-1.719915 2.845933,0 4.857712,1.719915 2.01178,1.719915 2.01178,4.152966 0,2.433051 -2.01178,4.152966 -2.011779,1.719916 -4.857712,1.719916 z"
     id="path1639"
     style="fill:#ffccaa;stroke-width:1.81476" />
</svg>
