<?xml version="1.0" encoding="UTF-8" standalone="no"?>
<svg
   xmlns:dc="http://purl.org/dc/elements/1.1/"
   xmlns:cc="http://creativecommons.org/ns#"
   xmlns:rdf="http://www.w3.org/1999/02/22-rdf-syntax-ns#"
   xmlns:svg="http://www.w3.org/2000/svg"
   xmlns="http://www.w3.org/2000/svg"
   xmlns:sodipodi="http://sodipodi.sourceforge.net/DTD/sodipodi-0.dtd"
   xmlns:inkscape="http://www.inkscape.org/namespaces/inkscape"
   id="Layer_1"
   data-name="Layer 1"
   width="128"
   height="128"
   viewBox="0 0 128 128"
   version="1.1"
   sodipodi:docname="Measurement.svg"
   inkscape:version="1.0.2-2 (e86c870879, 2021-01-15)"
   inkscape:export-filename="C:\Users\ammoussaoui\modelio\eclipse\modules\CamelDesigner\src\main\conf\res\icon\gui\Measurement_48.png"
   inkscape:export-xdpi="36.157539"
   inkscape:export-ydpi="36.157539">
  <metadata
     id="metadata25">
    <rdf:RDF>
      <cc:Work
         rdf:about="">
        <dc:format>image/svg+xml</dc:format>
        <dc:type
           rdf:resource="http://purl.org/dc/dcmitype/StillImage" />
        <dc:title>Generic-GCP</dc:title>
      </cc:Work>
    </rdf:RDF>
  </metadata>
  <defs
     id="defs23" />
  <sodipodi:namedview
     pagecolor="#ffffff"
     bordercolor="#666666"
     borderopacity="1"
     objecttolerance="10"
     gridtolerance="10"
     guidetolerance="10"
     inkscape:pageopacity="0"
     inkscape:pageshadow="2"
     inkscape:window-width="1366"
     inkscape:window-height="705"
     id="namedview21"
     showgrid="false"
     inkscape:zoom="1.84375"
     inkscape:cx="86.237288"
     inkscape:cy="81.058621"
     inkscape:window-x="-8"
     inkscape:window-y="-8"
     inkscape:window-maximized="1"
     inkscape:current-layer="Layer_1"
     inkscape:document-rotation="0" />
  <title
     id="title2">Generic-GCP</title>
  <path
     style="fill:#aaffc3;fill-opacity:1;stroke-width:0.202048"
     d="M 39.076866,127.48371 C 35.900523,126.9202 32.817004,125.21608 30.909679,122.97009 30.094702,122.01039 26.9666,116.29048 16.400362,96.439004 1.6122806,68.655656 1.5992034,68.630448 1.1028051,66.948442 0.57230993,65.150896 0.54903803,61.703396 1.0546582,59.816641 1.3451464,58.732672 5.0353716,51.187854 14.590994,32.14101 27.271288,6.865891 27.776655,5.8994242 29.128559,4.3394151 30.744152,2.4751199 32.73607,1.2378499 35.268416,0.5256818 36.740728,0.11162451 37.43389,0.10122423 63.353753,0.10429311 c 28.942119,0.003461 27.55527,-0.05166524 30.335512,1.20497549 1.817283,0.8213911 3.639143,2.1654422 4.731694,3.4907287 0.666847,0.8088912 5.136191,8.9800947 14.896321,27.2345647 7.669,14.343437 14.12787,26.597751 14.35304,27.231832 0.97213,2.737616 1.01765,6.353161 0.11388,9.045318 -0.20033,0.596725 -6.26268,12.864322 -13.4719,27.261312 -10.28961,20.548656 -13.32367,26.441046 -14.11244,27.407556 -1.297275,1.5896 -3.254752,2.94675 -5.524688,3.83042 l -1.809708,0.7045 -26.653874,0.0267 c -14.659631,0.0147 -26.870259,-0.0117 -27.134726,-0.0585 z"
     id="path8"
     inkscape:connector-curvature="0"
     inkscape:export-filename="C:\Users\ammoussaoui\modelio\eclipse\modules\CamelDesigner\src\main\conf\res\icon\gui\DataMeasurement_48.png"
     inkscape:export-xdpi="36.074654"
     inkscape:export-ydpi="36.074654" />
  <g
     id="g1085"
     transform="matrix(-5.9353402e-6,0.16750413,-0.187851,-1.1698635e-5,113.17603,20.071131)"
     style="fill:#4d4d4d">
    <g
       id="g1001"
       style="fill:#4d4d4d">
      <g
         id="g999"
         style="fill:#4d4d4d">
        <path
           d="M 503.467,290.133 H 8.533 C 3.814,290.133 0,293.947 0,298.666 v 102.4 c 0,4.719 3.814,8.533 8.533,8.533 h 494.933 c 4.719,0 8.533,-3.814 8.533,-8.533 v -102.4 c 10e-4,-4.718 -3.813,-8.533 -8.532,-8.533 z m -8.534,102.4 H 17.067 V 307.2 h 25.6 l -0.009,17.067 c 0,4.71 3.814,8.533 8.533,8.533 4.71,0 8.533,-3.814 8.533,-8.533 L 59.733,307.2 h 34.133 v 34.133 c 0,4.719 3.814,8.533 8.533,8.533 4.719,0 8.533,-3.814 8.533,-8.533 V 307.2 h 34.133 v 17.067 c 0,4.719 3.814,8.533 8.533,8.533 4.719,0 8.533,-3.814 8.533,-8.533 V 307.2 h 34.133 v 34.133 c 0,4.719 3.814,8.533 8.533,8.533 4.719,0 8.533,-3.814 8.533,-8.533 V 307.2 h 34.133 v 17.067 c 0,4.719 3.814,8.533 8.533,8.533 4.719,0 8.533,-3.814 8.533,-8.533 V 307.2 h 34.133 v 34.133 c 0,4.719 3.814,8.533 8.533,8.533 4.719,0 8.533,-3.814 8.533,-8.533 V 307.2 h 34.133 v 17.067 c 0,4.719 3.814,8.533 8.533,8.533 4.719,0 8.533,-3.814 8.533,-8.533 V 307.2 h 34.133 v 34.133 c 0,4.719 3.814,8.533 8.533,8.533 4.719,0 8.533,-3.814 8.533,-8.533 V 307.2 h 34.15 l -0.009,17.067 c 0,4.71 3.814,8.533 8.533,8.533 4.71,0 8.533,-3.814 8.533,-8.533 l 0.009,-17.067 h 25.583 v 85.333 z"
           id="path997"
           style="fill:#4d4d4d" />
      </g>
    </g>
    <g
       id="g1007"
       style="fill:#4d4d4d">
      <g
         id="g1005"
         style="fill:#4d4d4d">
        <path
           d="M 8.533,102.4 C 3.814,102.4 0,106.214 0,110.933 V 256 c 0,4.719 3.814,8.533 8.533,8.533 4.719,0 8.533,-3.814 8.533,-8.533 v -68.267 -76.8 C 17.067,106.214 13.252,102.4 8.533,102.4 Z"
           id="path1003"
           style="fill:#4d4d4d" />
      </g>
    </g>
    <g
       id="g1013"
       style="fill:#4d4d4d">
      <g
         id="g1011"
         style="fill:#4d4d4d">
        <path
           d="m 503.467,102.4 c -4.719,0 -8.533,3.814 -8.533,8.533 v 76.8 V 256 c 0,4.719 3.814,8.533 8.533,8.533 4.719,0 8.533,-3.814 8.533,-8.533 V 110.933 c 0,-4.719 -3.814,-8.533 -8.533,-8.533 z"
           id="path1009"
           style="fill:#4d4d4d" />
      </g>
    </g>
    <g
       id="g1019"
       style="fill:#4d4d4d">
      <g
         id="g1017"
         style="fill:#4d4d4d">
        <path
           d="m 476.032,182.263 -39.62,-51.2 c -2.142,-2.765 -5.658,-3.763 -8.789,-2.56 -3.132,1.229 -5.222,4.437 -5.222,8.03 V 179.2 H 89.6 v -42.675 c 0,-3.593 -2.091,-6.801 -5.222,-8.021 -3.132,-1.22 -6.639,-0.213 -8.789,2.56 l -39.62,51.208 c -1.22,1.579 -1.835,3.524 -1.835,5.461 0,1.937 0.614,3.883 1.835,5.47 l 39.62,51.2 c 1.536,1.98 3.78,3.063 6.084,3.063 0.905,0 1.818,-0.171 2.697,-0.512 3.132,-1.229 5.222,-4.437 5.222,-8.021 v -42.667 h 332.8 v 42.667 c 0,3.593 2.091,6.801 5.222,8.021 0.879,0.341 1.792,0.512 2.697,0.512 2.304,0 4.548,-1.084 6.093,-3.063 l 39.62,-51.2 c 1.229,-1.587 1.843,-3.524 1.843,-5.47 0,-1.946 -0.615,-3.882 -1.835,-5.47 z M 73.754,215.364 52.369,187.733 73.754,160.102 Z m 364.492,0 v -55.262 l 21.385,27.631 z"
           id="path1015"
           style="fill:#4d4d4d" />
      </g>
    </g>
    <g
       id="g1021"
       style="fill:#4d4d4d" />
    <g
       id="g1023"
       style="fill:#4d4d4d" />
    <g
       id="g1025"
       style="fill:#4d4d4d" />
    <g
       id="g1027"
       style="fill:#4d4d4d" />
    <g
       id="g1029"
       style="fill:#4d4d4d" />
    <g
       id="g1031"
       style="fill:#4d4d4d" />
    <g
       id="g1033"
       style="fill:#4d4d4d" />
    <g
       id="g1035"
       style="fill:#4d4d4d" />
    <g
       id="g1037"
       style="fill:#4d4d4d" />
    <g
       id="g1039"
       style="fill:#4d4d4d" />
    <g
       id="g1041"
       style="fill:#4d4d4d" />
    <g
       id="g1043"
       style="fill:#4d4d4d" />
    <g
       id="g1045"
       style="fill:#4d4d4d" />
    <g
       id="g1047"
       style="fill:#4d4d4d" />
    <g
       id="g1049"
       style="fill:#4d4d4d" />
  </g>
</svg>
