<?xml version="1.0" encoding="UTF-8" standalone="no"?>
<svg
   id="Layer_1"
   data-name="Layer 1"
   width="128"
   height="128"
   viewBox="0 0 128 128"
   version="1.1"
   sodipodi:docname="MetricConstraint.svg"
   inkscape:version="1.1.1 (3bf5ae0d25, 2021-09-20)"
   inkscape:export-filename="C:\Users\ammoussaoui\modelio\eclipse\modules\CamelDesigner\src\main\conf\res\icon\gui\MetricConstraint_48.png"
   inkscape:export-xdpi="36"
   inkscape:export-ydpi="36"
   xmlns:inkscape="http://www.inkscape.org/namespaces/inkscape"
   xmlns:sodipodi="http://sodipodi.sourceforge.net/DTD/sodipodi-0.dtd"
   xmlns="http://www.w3.org/2000/svg"
   xmlns:svg="http://www.w3.org/2000/svg"
   xmlns:rdf="http://www.w3.org/1999/02/22-rdf-syntax-ns#"
   xmlns:cc="http://creativecommons.org/ns#"
   xmlns:dc="http://purl.org/dc/elements/1.1/">
  <metadata
     id="metadata25">
    <rdf:RDF>
      <cc:Work
         rdf:about="">
        <dc:format>image/svg+xml</dc:format>
        <dc:type
           rdf:resource="http://purl.org/dc/dcmitype/StillImage" />
        <dc:title>Generic-GCP</dc:title>
      </cc:Work>
    </rdf:RDF>
  </metadata>
  <defs
     id="defs23">
    <pattern
       y="0"
       x="0"
       height="6"
       width="6"
       patternUnits="userSpaceOnUse"
       id="EMFhbasepattern" />
    <pattern
       y="0"
       x="0"
       height="6"
       width="6"
       patternUnits="userSpaceOnUse"
       id="EMFhbasepattern-3" />
    <pattern
       y="0"
       x="0"
       height="6"
       width="6"
       patternUnits="userSpaceOnUse"
       id="EMFhbasepattern-2" />
    <pattern
       y="0"
       x="0"
       height="6"
       width="6"
       patternUnits="userSpaceOnUse"
       id="EMFhbasepattern-1" />
    <pattern
       y="0"
       x="0"
       height="6"
       width="6"
       patternUnits="userSpaceOnUse"
       id="EMFhbasepattern-5" />
  </defs>
  <sodipodi:namedview
     pagecolor="#ffffff"
     bordercolor="#666666"
     borderopacity="1"
     objecttolerance="10"
     gridtolerance="10"
     guidetolerance="10"
     inkscape:pageopacity="0"
     inkscape:pageshadow="2"
     inkscape:window-width="1920"
     inkscape:window-height="1001"
     id="namedview21"
     showgrid="false"
     inkscape:zoom="1.84375"
     inkscape:cx="-100.88136"
     inkscape:cy="140.20339"
     inkscape:window-x="-9"
     inkscape:window-y="-9"
     inkscape:window-maximized="1"
     inkscape:current-layer="g15113"
     inkscape:document-rotation="0"
     inkscape:pagecheckerboard="0">
    <inkscape:grid
       type="xygrid"
       id="grid799" />
  </sodipodi:namedview>
  <title
     id="title2">Generic-GCP</title>
  <g
     id="g797"
     transform="matrix(0.90960453,0,0,0.95480226,40.717515,39.045198)"
     style="fill:#ffffff">
    <g
       id="Layer_1-9"
       style="fill:#ffffff">
      <path
         d="m 11.899,49 c 2.911,0 5.648,-1.134 7.707,-3.192 l 9.201,-9.201 C 30.866,34.548 32,31.811 32,28.899 32,24.074 28.902,19.885 24.292,18.475 l -0.584,1.912 c 3.764,1.152 6.292,4.572 6.292,8.512 0,2.377 -0.926,4.612 -2.606,6.293 l -9.201,9.201 C 16.512,46.074 14.276,47 11.899,47 6.992,47 3,43.008 3,38.101 3,35.724 3.926,33.489 5.606,31.808 l 9.201,-9.201 c 0.291,-0.291 0.604,-0.563 0.93,-0.809 l -1.205,-1.597 c -0.398,0.301 -0.782,0.634 -1.139,0.991 L 4.192,30.393 C 2.134,32.452 1,35.189 1,38.101 1,44.11 5.89,49 11.899,49 Z"
         id="path780"
         style="fill:#ffffff" />
      <path
         d="M 38.101,1 C 35.19,1 32.453,2.134 30.394,4.192 l -9.201,9.201 C 19.134,15.452 18,18.189 18,21.101 c 0,5.208 3.705,9.707 8.81,10.699 l 0.381,-1.963 c -4.166,-0.81 -7.19,-4.483 -7.19,-8.736 0,-2.377 0.926,-4.612 2.606,-6.293 L 31.808,5.607 C 33.488,3.926 35.724,3 38.101,3 43.008,3 47,6.992 47,11.899 c 0,2.377 -0.926,4.612 -2.606,6.293 l -9.2,9.201 c -0.259,0.258 -0.53,0.499 -0.809,0.716 l 1.23,1.576 c 0.342,-0.267 0.676,-0.562 0.991,-0.877 l 9.201,-9.201 C 47.866,17.548 49,14.811 49,11.899 49,5.89 44.11,1 38.101,1 Z"
         id="path782"
         style="fill:#ffffff" />
    </g>
    <g
       id="g785"
       style="fill:#ffffff" />
  </g>
  <g
     id="g1081"
     transform="matrix(1.061108,0,0,1.061108,-121.04605,21.052501)">
    <g
       transform="matrix(3.230437,-1.4626805,1.4626805,3.230437,-9.3871092,42.998146)"
       id="g927">
      <g
         id="g874" />
      <g
         id="g876" />
      <g
         id="g878" />
      <g
         id="g880" />
      <g
         id="g882" />
      <g
         id="g884" />
      <g
         id="g886" />
      <g
         id="g888" />
      <g
         id="g890" />
      <g
         id="g892" />
      <g
         id="g894" />
      <g
         id="g896" />
      <g
         id="g898" />
      <g
         id="g900" />
      <g
         id="g902" />
      <g
         id="g855"
         transform="matrix(0.25689038,0.11631508,-0.11631508,0.25689038,2.6632737,-2.554589)">
        <text
           xml:space="preserve"
           style="font-style:normal;font-variant:normal;font-weight:normal;font-stretch:normal;font-size:49.9197px;line-height:1.25;font-family:sans-serif;-inkscape-font-specification:'sans-serif, Normal';font-variant-ligatures:normal;font-variant-caps:normal;font-variant-numeric:normal;font-feature-settings:normal;text-align:start;letter-spacing:0px;word-spacing:0px;writing-mode:lr-tb;text-anchor:start;fill:#000000;fill-opacity:1;stroke:none;stroke-width:1.24799"
           x="5.4791756"
           y="60.735191"
           id="text931"><tspan
             style="stroke-width:1.24799"
             y="60.735191"
             x="5.4791756"
             id="tspan834"
             sodipodi:role="line" /></text>
      </g>
    </g>
  </g>
  <path
     d="M 94.526008,106.94731 H 73.59489 c -2.310793,0 -4.186219,-1.89567 -4.186219,-4.2314 0,-2.33574 1.875426,-4.231411 4.186219,-4.231411 h 16.744898 c 2.310794,0 4.18622,-1.895662 4.18622,-4.231403 v -16.92564 c 0,-2.335738 1.875436,-4.23141 4.186232,-4.23141 2.31079,0 4.18622,1.895672 4.18622,4.23141 v 21.157043 c 0,4.675711 -3.746672,8.462811 -8.372452,8.462811 z M 19.173977,51.938999 V 30.781951 c 0,-4.675707 3.746672,-8.462819 8.372449,-8.462819 h 20.931118 c 2.310793,0 4.186229,1.895671 4.186229,4.23141 0,2.335737 -1.875436,4.231409 -4.186229,4.231409 H 31.732646 c -2.310794,0 -4.18622,1.895671 -4.18622,4.23141 v 16.925638 c 0,2.335737 -1.875436,4.23141 -4.186229,4.23141 -2.310794,0 -4.18622,-1.895673 -4.18622,-4.23141 z m 0.0419,12.694229 -0.0419,0.04232 v -0.08463 z"
     id="focus_point_round-[#844]"
     style="fill:#ffffff;fill-rule:evenodd;stroke:none;stroke-width:4.20875"
     sodipodi:nodetypes="sssssssssssssssssssssscccc" />
  <g
     id="g15113"
     transform="matrix(1.0174877,0,0,1.105437,2.5794479,-7.1964682)">
    <path
       style="fill:#f032e6;fill-opacity:1;stroke-width:0.191758"
       d="m 33.719461,121.83893 c -3.166753,-0.50756 -6.221268,-2.04253 -8.09035,-4.06559 -0.798641,-0.86443 -3.82937,-6.01657 -14.057672,-23.897567 -14.3151209,-25.02553 -14.3277679,-25.04824 -14.7955329,-26.56329 -0.499895,-1.61912 -0.46448,-4.72442 0.07326,-6.42389 0.308941,-0.97637 4.12760401,-7.77228 14.0074659,-24.928507 C 23.967193,13.193808 24.489014,12.323274 25.86747,10.918113 27.5148,9.2388715 29.527787,8.1244145 32.072251,7.4829375 c 1.479362,-0.372957 2.172706,-0.382325 28.092514,-0.37956 28.942054,0.0031 27.556148,-0.04653 30.314994,1.085367 1.803301,0.739859 3.602288,1.9504975 4.672272,3.1442325 0.653069,0.7286 4.983319,8.088719 14.432699,24.53123 7.42483,12.919676 13.67509,23.957616 13.88946,24.528756 0.92553,2.46588 0.9095,5.72254 -0.0401,8.14747 -0.21048,0.5375 -6.48167,11.58739 -13.93597,24.55532 -10.639416,18.508967 -13.773792,23.816477 -14.57901,24.687037 -1.324336,1.43182 -3.304912,2.65427 -5.589898,3.45021 l -1.821699,0.63457 -26.65433,0.0241 c -14.659882,0.0132 -26.870058,-0.0105 -27.133725,-0.0527 z"
       id="path8-1"
       inkscape:connector-curvature="0" />
    <g
       id="g871"
       transform="matrix(2.9726148,0,0,2.9726148,180.333,-128.42949)"
       style="fill:#fce4fc;fill-opacity:0.752941">
      <path
         sodipodi:nodetypes="ccsccccscccccccccccccccscccccccccccccccccccscccccccccccccccccccsccscscccccccccc"
         d="m -40.437979,52.235407 c 0.531229,0.252011 0.479238,1.436501 -0.07327,1.670328 -0.142505,0.06034 -1.148393,0.07341 -5.643639,0.07341 h -5.470289 l -2.69e-4,5.42813 c -4.04e-4,5.790993 0.0024,5.730112 -0.274774,5.9634 -0.200423,0.168636 -0.951876,0.202983 -1.23527,0.05644 -0.340369,-0.176044 -0.321512,0.211333 -0.321512,-6.601442 0,-6.881063 -0.02478,-6.411119 0.347373,-6.594706 0.260901,-0.128767 12.399977,-0.124456 12.671653,0.0044 m 6.844443,3.909702 c 1.33073,0.908085 1.875539,2.638999 1.303468,4.141207 -0.27209,0.714762 -0.418952,0.893056 -1.857183,2.256504 -0.29748,0.282056 -0.781386,0.748038 -1.075279,1.035381 -1.082251,1.058247 -2.137311,1.429292 -3.390158,1.192165 -0.471387,-0.08926 -1.038833,-0.312456 -1.226856,-0.482695 -0.04089,-0.0369 -0.197111,0.07941 -0.513443,0.382195 -0.661538,0.633524 -0.62925,0.540011 -0.390775,1.133742 0.448707,1.116742 0.325941,2.318522 -0.334193,3.271629 -0.316688,0.457466 -0.434551,0.579536 -1.745045,1.808848 -0.143931,0.134946 -0.554093,0.521578 -0.91143,0.859039 -2.09366,1.977094 -5.038066,1.385499 -5.926915,-1.190716 -0.488218,-1.415108 -0.106475,-2.684495 1.170858,-3.893422 0.272636,-0.258162 0.499152,-0.478136 0.503381,-0.489064 0.0073,-0.01897 0.248811,-0.25034 1.386369,-1.328345 1.385022,-1.312548 3.297589,-1.595264 4.502569,-0.66565 0.09506,0.07347 0.312382,-0.0985 0.960923,-0.760018 l 0.211606,-0.215777 -0.126141,-0.259242 c -0.57907,-1.189286 -0.47932,-2.508871 0.271798,-3.596325 0.146072,-0.211385 0.29376,-0.401203 0.328297,-0.421779 0.03453,-0.02057 0.358368,-0.325941 0.719585,-0.678653 2.175349,-2.123995 2.306308,-2.229153 3.106973,-2.494423 1.048599,-0.34726 2.154522,-0.202952 3.03159,0.395407 m -1.394663,0.468977 c -0.59883,-0.118212 -1.210219,-0.02594 -1.771686,0.267619 -0.450961,0.235661 -3.073671,2.787931 -3.344975,3.255016 -0.359783,0.61959 -0.42566,1.491852 -0.161395,2.13687 l 0.07963,0.194306 0.144768,-0.111368 c 0.07975,-0.06128 0.178938,-0.15375 0.220502,-0.205547 0.23663,-0.294626 0.602658,-0.258558 0.94546,0.09319 0.365651,0.375179 0.3607,0.64363 -0.01915,1.032171 -0.263355,0.269265 -0.262678,0.273859 0.05475,0.396696 1.124261,0.435058 1.936338,0.159329 3.216766,-1.092305 0.371529,-0.363311 0.70855,-0.687835 0.748646,-0.72128 0.14313,-0.119079 0.933578,-0.88903 1.169314,-1.138797 1.281428,-1.357979 0.535009,-3.747649 -1.282642,-4.106574 m -8.711478,8.0432 c -0.76626,-0.08191 -1.421077,0.169614 -2.115426,0.812538 -1.0076,0.932888 -1.831216,1.755717 -1.831407,1.829733 -1.47e-4,0.04256 -0.01408,0.05911 -0.03095,0.03669 -0.01693,-0.02229 -0.192414,0.118783 -0.389974,0.313566 -1.792414,1.767409 -0.239995,4.723748 2.217175,4.222399 0.605282,-0.123516 0.937806,-0.352438 1.917568,-1.320506 0.339278,-0.335206 0.651291,-0.635035 0.693334,-0.666425 0.04204,-0.03139 0.103964,-0.08542 0.137473,-0.120114 0.03363,-0.03465 0.260209,-0.253296 0.503743,-0.485891 1.070873,-1.022499 1.408847,-2.136235 0.943101,-3.107056 l -0.08097,-0.168828 -0.330869,0.313474 c -0.44808,0.424531 -0.747328,0.427882 -1.118884,0.01272 -0.347493,-0.388516 -0.323325,-0.629744 0.104298,-1.042837 0.152227,-0.147045 0.284902,-0.288367 0.294867,-0.314118 0.02756,-0.07122 -0.574255,-0.279127 -0.91307,-0.315354 m 14.850938,-0.481766 c 0.347643,0.179815 0.323802,-0.30508 0.323802,6.587164 0,5.730516 -0.0075,6.278178 -0.08876,6.40223 -0.201096,0.306831 0.143179,0.29161 -6.622588,0.29161 h -6.231843 l -0.209178,-0.209178 -0.209178,-0.209178 1.34e-4,-0.450818 c 2.7e-4,-0.490013 0.09159,-0.726804 0.33377,-0.864864 0.0994,-0.05671 1.225302,-0.07624 5.658859,-0.09779 l 5.534672,-0.02694 0.01468,-5.522415 c 0.01616,-6.130285 -0.0101,-5.699132 0.358957,-5.89969 0.193824,-0.10533 0.933019,-0.105465 1.136675,-1.35e-4"
         id="path0"
         inkscape:connector-curvature="0"
         style="fill:#fce4fc;fill-opacity:0.752941;fill-rule:evenodd;stroke:none;stroke-width:0.134693" />
    </g>
    <path
       style="fill:#7c7c7c;fill-rule:evenodd;stroke:none;stroke-width:0.134693"
       inkscape:connector-curvature="0"
       id="path3"
       d="m 48.513606,43.667976 c 1.683932,0.0079 4.423589,0.0079 6.088126,0 1.664536,-0.0079 0.286761,-0.01441 -3.061708,-0.01441 -3.348469,0 -4.710351,0.0065 -3.026418,0.01441 m 9.316718,10.384834 c 5.39e-4,0.11853 0.01158,0.160689 0.02451,0.09361 0.01293,-0.06694 0.01239,-0.163921 -0.0011,-0.215508 -0.01347,-0.05145 -0.02411,0.0034 -0.02344,0.121897 m -1.589513,14.072999 c 0.06667,0.01293 0.175775,0.01293 0.242448,0 0.06667,-0.0128 0.01212,-0.0233 -0.121224,-0.0233 -0.133346,0 -0.187897,0.01051 -0.121224,0.0233 m 7.866074,4.797497 c 1.637194,0.0079 4.316239,0.0079 5.953433,0 1.637194,-0.0079 0.297672,-0.01441 -2.976716,-0.01441 -3.274388,0 -4.613911,0.0065 -2.976717,0.01441" />
    <g
       style="fill:#000000"
       id="g16583"
       transform="matrix(0.73383369,0,0,0.68799954,2.5110942,80.060228)">
      <path
         d="m 10.7101,20.15 c 1.83,0.68 7,2.27 15.72,2.27 8.72,0 13.89,-1.59 15.72,-2.27 0.193,-0.0701 0.3598,-0.1979 0.4777,-0.3661 0.1179,-0.1681 0.1811,-0.3685 0.1811,-0.5739 0,-0.2054 -0.0632,-0.4058 -0.1811,-0.5739 -0.1179,-0.1682 -0.2847,-0.296 -0.4777,-0.3661 -1.83,-0.68 -7,-2.27 -15.72,-2.27 -8.72,0 -13.89,1.59 -15.72,2.27 -0.1931,0.0701 -0.3599,0.1979 -0.4777,0.3661 -0.1179,0.1681 -0.1811,0.3685 -0.1811,0.5739 0,0.2054 0.0632,0.4058 0.1811,0.5739 0.1178,0.1682 0.2846,0.296 0.4777,0.3661 z M 26.4301,18 c 3.9766,-0.0494 7.9458,0.3566 11.83,1.21 -3.8851,0.8484 -7.8536,1.2543 -11.83,1.21 -3.9764,0.0443 -7.945,-0.3616 -11.83,-1.21 3.8842,-0.8534 7.8534,-1.2594 11.83,-1.21 z"
         fill="#000000"
         id="path16571"
         style="fill:#000000" />
      <path
         d="m 52.42,25.42 h -2.56 v -6.21 c 0.006,-0.0531 0.006,-0.1068 0,-0.16 -0.24,-5.23 -12.18,-8 -23.42,-8 C 16,11 5,13.42 3.26,17.92 3.09785,18.0983 3.00552,18.3291 3,18.57 v 11.05 c 0,5.23 11.6,8.1 22.76,8.21 h 26.66 c 1.4485,-3e-4 2.8559,0.4817 4,1.37 -1.1441,0.8883 -2.5515,1.3704 -4,1.37 H 11.86 c -0.2652,0 -0.5196,0.1054 -0.7071,0.2929 C 10.9654,41.0504 10.86,41.3048 10.86,41.57 V 52 c 0,0.2652 0.1054,0.5196 0.2929,0.7071 C 11.3404,52.8947 11.5948,53 11.86,53 h 40.56 c 2.2747,-0.0026 4.4556,-0.9074 6.0641,-2.5159 C 60.0925,48.8756 60.9974,46.6948 61,44.42 V 34 C 60.9974,31.7253 60.0925,29.5445 58.4841,27.936 56.8756,26.3275 54.6947,25.4227 52.42,25.42 Z m -10.42,0 c 2.0901,-0.548 4.0624,-1.4731 5.82,-2.73 v 2.73 z M 26.43,13 c 12.26,0 21.43,3.28 21.43,6.21 0,2.93 -9.17,6.21 -21.43,6.21 C 14.17,25.42 5,22.14 5,19.21 5,16.28 14.17,13 26.43,13 Z M 53.8,36 v -1.58 c 0,-0.2652 -0.1054,-0.5196 -0.2929,-0.7071 C 53.3196,33.5254 53.0652,33.42 52.8,33.42 c -0.2652,0 -0.5196,0.1054 -0.7071,0.2929 C 51.9054,33.9004 51.8,34.1548 51.8,34.42 v 1.42 H 45.48 V 32 c 0,-0.2652 -0.1054,-0.5196 -0.2929,-0.7071 C 44.9996,31.1054 44.7452,31 44.48,31 44.2148,31 43.9604,31.1054 43.7729,31.2929 43.5854,31.4804 43.48,31.7348 43.48,32 v 3.84 h -6.32 v -1.42 c 0,-0.2652 -0.1054,-0.5196 -0.2929,-0.7071 C 36.6796,33.5254 36.4252,33.42 36.16,33.42 c -0.2652,0 -0.5196,0.1054 -0.7071,0.2929 C 35.2654,33.9004 35.16,34.1548 35.16,34.42 v 1.42 H 28.84 V 32 c 0,-0.2652 -0.1054,-0.5196 -0.2929,-0.7071 C 28.3596,31.1054 28.1052,31 27.84,31 27.5748,31 27.3204,31.1054 27.1329,31.2929 26.9454,31.4804 26.84,31.7348 26.84,32 v 3.84 h -0.41 c -2.07,0 -4,-0.1 -5.91,-0.27 v -1.15 c 0,-0.2652 -0.1054,-0.5196 -0.2929,-0.7071 C 20.0396,33.5254 19.7852,33.42 19.52,33.42 c -0.2652,0 -0.5196,0.1054 -0.7071,0.2929 C 18.6254,33.9004 18.52,34.1548 18.52,34.42 v 0.93 C 16.3873,35.0969 14.2753,34.6926 12.2,34.14 V 32 c 0,-0.2652 -0.1054,-0.5196 -0.2929,-0.7071 C 11.7196,31.1054 11.4652,31 11.2,31 10.9348,31 10.6804,31.1054 10.4929,31.2929 10.3054,31.4804 10.2,31.7348 10.2,32 v 1.52 C 6.94,32.38 5,31 5,29.63 v -6.94 c 3.8,3 12.44,4.65 20.83,4.72 h 26.59 c 1.2023,0 2.3816,0.3294 3.4099,0.9524 1.0283,0.623 1.8662,1.5159 2.4227,2.5816 0.5566,1.0657 0.8105,2.2636 0.7343,3.4634 C 58.9106,35.6073 58.507,36.7634 57.82,37.75 56.6578,36.8223 55.2709,36.2186 53.8,36 Z M 53,51 V 49.58 C 53,49.3148 52.8946,49.0604 52.7071,48.8729 52.5196,48.6854 52.2652,48.58 52,48.58 c -0.2652,0 -0.5196,0.1054 -0.7071,0.2929 C 51.1054,49.0604 51,49.3148 51,49.58 V 51 h -6.32 v -3.84 c 0,-0.2652 -0.1054,-0.5196 -0.2929,-0.7071 C 44.1996,46.2654 43.9452,46.16 43.68,46.16 c -0.2652,0 -0.5196,0.1054 -0.7071,0.2929 C 42.7854,46.6404 42.68,46.8948 42.68,47.16 V 51 h -6.32 v -1.42 c 0,-0.2652 -0.1054,-0.5196 -0.2929,-0.7071 C 35.8796,48.6854 35.6252,48.58 35.36,48.58 c -0.2652,0 -0.5196,0.1054 -0.7071,0.2929 C 34.4654,49.0604 34.36,49.3148 34.36,49.58 V 51 H 28 V 47.16 C 28,46.8948 27.8946,46.6404 27.7071,46.4529 27.5196,46.2654 27.2652,46.16 27,46.16 c -0.2652,0 -0.5196,0.1054 -0.7071,0.2929 C 26.1054,46.6404 26,46.8948 26,47.16 V 51 h -6.28 v -1.42 c 0,-0.2652 -0.1054,-0.5196 -0.2929,-0.7071 C 19.2396,48.6854 18.9852,48.58 18.72,48.58 c -0.2652,0 -0.5196,0.1054 -0.7071,0.2929 C 17.8254,49.0604 17.72,49.3148 17.72,49.58 V 51 h -4.86 v -8.42 h 39.56 c 1.9673,3e-4 3.8745,-0.6778 5.4,-1.92 0.6654,0.9465 1.0694,2.0517 1.1714,3.2042 0.102,1.1524 -0.1017,2.3114 -0.5905,3.36 -0.4889,1.0486 -1.2455,1.9498 -2.1937,2.6127 C 55.259,50.4998 54.1527,50.901 53,51 Z"
         fill="#000000"
         id="path16573"
         style="fill:#000000" />
    </g>
  </g>
</svg>
