<?xml version="1.0" encoding="UTF-8" standalone="no"?>
<svg
   version="1.0"
   width="48.000000pt"
   height="48.000000pt"
   viewBox="0 0 48.000000 48.000000"
   preserveAspectRatio="xMidYMid meet"
   id="svg3347"
   sodipodi:docname="Organisation_ExternalIdentifier.svg"
   inkscape:export-filename="C:\Users\ammoussaoui\modelio\eclipse\modules\CamelDesigner\src\main\conf\res\icon\gui\OrganisationExternalIdentifier24.png"
   inkscape:export-xdpi="36.000004"
   inkscape:export-ydpi="36.000004"
   inkscape:version="1.1.1 (3bf5ae0d25, 2021-09-20)"
   xmlns:inkscape="http://www.inkscape.org/namespaces/inkscape"
   xmlns:sodipodi="http://sodipodi.sourceforge.net/DTD/sodipodi-0.dtd"
   xmlns="http://www.w3.org/2000/svg"
   xmlns:svg="http://www.w3.org/2000/svg">
  <defs
     id="defs3351" />
  <sodipodi:namedview
     id="namedview3349"
     pagecolor="#ffffff"
     bordercolor="#666666"
     borderopacity="1.0"
     inkscape:pageshadow="2"
     inkscape:pageopacity="0.0"
     inkscape:pagecheckerboard="0"
     inkscape:document-units="pt"
     showgrid="false"
     inkscape:zoom="12.234375"
     inkscape:cx="42.012771"
     inkscape:cy="20.148148"
     inkscape:window-width="2400"
     inkscape:window-height="1271"
     inkscape:window-x="-9"
     inkscape:window-y="-9"
     inkscape:window-maximized="1"
     inkscape:current-layer="svg3347" />
  <g
     transform="translate(0.000000,48.000000) scale(0.100000,-0.100000)"
     fill="#000000"
     stroke="none"
     id="g3345">
    <path
       d="M95 409 c-15 -22 -42 -70 -62 -105 l-35 -65 58 -102 59 -102 125 0 125 0 59 102 58 102 -35 65 c-20 35 -47 83 -62 105 l-25 41 -120 0 -120 0 -25 -41z"
       id="path3343" />
  </g>
  <path
     style="opacity:0.5;fill:#ffffff;fill-opacity:1;stroke-width:0.0817369"
     d="M 11.403788,52.453786 C 6.8667448,44.58971 -0.08685403,32.387246 -0.13968503,32.196819 -0.18274479,32.041613 3.8285487,24.566131 5.908886,20.924649 9.3296184,14.9369 10.850768,12.364329 12.336866,10.05364 12.727185,9.4467433 13.723419,7.8375479 14.550717,6.4776501 l 1.50418,-2.4725415 H 32 47.945103 l 1.50418,2.4725415 c 0.827298,1.3598978 1.823532,2.9690932 2.213851,3.5759899 1.486098,2.310689 3.007248,4.88326 6.42798,10.871009 2.075839,3.633609 6.091595,11.116684 6.049155,11.27217 -0.05247,0.192224 -6.73612,11.921925 -11.401257,20.009018 L 48.67433,59.252033 32,59.251788 15.32567,59.251542 11.403788,52.453728 Z"
     id="path9020"
     transform="scale(0.75)" />
  <path
     style="opacity:0.5;fill:#ffffff;fill-opacity:1;stroke-width:0.0817369"
     d="M 13.455295,55.926754 C 10.676003,51.101394 1.7063176,35.414722 0.73761022,33.685378 L -0.10395076,32.183016 0.07720179,31.805429 C 0.87716234,30.138022 4.5914162,23.331098 6.9063968,19.289911 9.506784,14.750499 10.46892,13.129616 12.340414,10.135377 13.225517,8.7192848 14.436956,6.7606641 15.032502,5.7828863 l 1.082811,-1.7777777 h 15.883828 15.883828 l 1.085364,1.7777777 c 0.59695,0.9777778 1.808363,2.9363985 2.692028,4.3524907 1.889887,3.02858 2.87035,4.680576 5.433242,9.154534 2.315594,4.042257 6.029085,10.847838 6.829651,12.516456 l 0.181608,0.378526 -0.24664,0.438843 c -1.763034,3.136953 -6.522116,11.487837 -9.193645,16.13233 -1.861809,3.236782 -3.971263,6.905065 -4.687677,8.151741 L 48.67433,59.174491 32,59.174246 15.32567,59.174 13.455295,55.926684 Z"
     id="path9096"
     transform="scale(0.75)" />
  <path
     style="opacity:0.5;fill:#ffffff;fill-opacity:1;stroke-width:0.0817369"
     d="M 14.870857,58.29801 C 14.620708,57.860158 12.297798,53.805364 9.7088327,49.287356 7.1198673,44.769349 3.8593272,39.068571 2.463188,36.618963 L -0.07524689,32.165128 0.58746769,30.897379 C 2.193655,27.8248 5.3041829,22.180531 7.4875298,18.376737 9.4941744,14.88079 10.497442,13.203157 13.124849,8.9501916 14.485705,6.7473819 15.729118,4.7335888 15.887989,4.4750958 l 0.288855,-0.4699872 h 15.818464 15.818464 l 0.197144,0.3065134 c 0.628513,0.9771938 5.487477,8.898746 6.279562,10.237548 2.719762,4.597006 6.882115,12.057615 9.12038,16.347382 l 0.661039,1.266922 -0.625258,1.103448 C 62.399345,35.115173 51.950246,53.394017 50.259255,56.335908 L 48.67433,59.093274 32,59.093682 15.32567,59.094091 14.870857,58.297996 Z"
     id="path9135"
     transform="scale(0.75)" />
  <path
     style="opacity:0.5;fill:#ffffff;fill-opacity:1;stroke-width:0.0817369"
     d="M 14.546817,57.645152 C 10.519031,50.626312 0.06069413,32.326349 0.02686367,32.238189 -0.05945434,32.013248 4.8481143,23.015919 8.3823792,16.91954 9.9456654,14.222972 10.774402,12.848914 13.718693,8.0718486 l 2.506084,-4.0660823 15.775818,-3.289e-4 15.775819,-3.288e-4 0.213039,0.3473818 c 0.117172,0.19106 1.131409,1.8370371 2.253859,3.6577267 3.156348,5.1198059 4.535568,7.4266409 6.515447,10.8975109 2.557608,4.483672 5.565886,9.956511 6.927425,12.602789 l 0.33692,0.654834 -7.683803,13.444783 -7.683803,13.444783 -16.638002,0.02063 -16.638003,0.02063 z"
     id="path9174"
     transform="scale(0.75)" />
  <path
     style="opacity:0.5;fill:#ffffff;fill-opacity:1;stroke-width:0.0817369"
     d="M 15.068226,58.482759 C 14.888752,58.168072 11.443371,52.142006 7.4118235,45.091503 3.3802759,38.041 0.08173691,32.232606 0.08173691,32.183961 c 0,-0.238346 3.16270989,-6.117698 5.99082619,-11.136707 C 8.7442987,16.305771 10.284737,13.71501 14.52894,6.8250319 L 16.240829,4.045977 h 15.7592 15.7592 l 2.039648,3.3103448 c 2.753794,4.4694032 4.930117,8.0940462 6.453601,10.7484032 2.248154,3.916946 5.662175,10.099287 7.154193,12.955301 l 0.576455,1.103448 -7.572661,13.246289 c -4.164964,7.285459 -7.627834,13.32547 -7.695267,13.422248 l -0.122605,0.175957 -16.599026,0.02348 -16.599026,0.02347 z"
     id="path9213"
     transform="scale(0.75)" />
  <path
     style="opacity:0.5;fill:#ffffff;fill-opacity:1;stroke-width:0.0817369"
     d="M 8.4831428,46.896552 C 4.679868,40.231928 1.2354315,34.190549 0.82883956,33.471264 l -0.7392579,-1.30779 0.84333563,-1.634738 C 1.8012924,28.84546 3.8199255,25.137148 5.5709103,22.008552 8.1633504,17.376475 10.144629,14.026646 14.51318,6.8894891 L 16.224777,4.0931545 32,4.0932844 l 15.775223,1.3e-4 1.712685,2.7962048 c 2.821268,4.6061278 5.666715,9.3596068 7.027258,11.7394278 2.281155,3.990131 5.906072,10.573081 7.051071,12.804943 l 0.380551,0.74178 -2.354958,4.121566 c -5.12409,8.968 -12.652706,22.099784 -12.841989,22.399627 l -0.200168,0.317086 H 31.973931 15.398188 Z"
     id="path9252"
     transform="scale(0.75)" />
  <path
     style="opacity:0.5;fill:#ffffff;fill-opacity:1;stroke-width:0.0817369"
     d="M 15.33489,58.830338 C 15.179574,58.586803 3.6387874,38.382659 1.7231307,35.000598 0.90092718,33.549011 0.21145216,32.297247 0.19096391,32.2189 0.14862123,32.056981 0.76254796,30.844585 2.6383075,27.385831 6.5047433,20.256426 9.2244377,15.571776 14.408887,7.1111111 l 1.828139,-2.9833972 h 15.762996 15.762996 l 1.62966,2.6564496 c 5.48761,8.9451575 9.159713,15.3107605 13.296501,23.0495325 l 1.238199,2.316325 -6.664098,11.654236 c -3.665255,6.40983 -7.120591,12.445041 -7.678526,13.41158 l -1.014426,1.757343 -16.559012,0.02063 -16.559012,0.02063 z"
     id="path9291"
     transform="scale(0.75)" />
  <path
     style="opacity:0.5;fill:#ffffff;fill-opacity:1;stroke-width:0.0817369"
     d="M 15.421097,58.952746 C 15.176191,58.545074 1.9815437,35.42346 1.2062704,34.043423 L 0.15015777,32.163474 0.3688164,31.713921 C 0.98484402,30.447394 4.2568437,24.426071 6.209522,20.965517 8.2408664,17.365551 11.125099,12.511478 14.9634,6.233013 L 16.224777,4.1697296 32,4.1693871 47.775223,4.1690447 49.908028,7.6630662 C 55.030049,16.054108 58.393037,21.886356 62.31196,29.174538 l 1.601223,2.97786 -0.150967,0.250748 C 63.642753,32.601568 50.243958,56.01547 48.926955,58.327219 l -0.330478,0.580093 -1.833798,0.05337 c -2.5584,0.07446 -31.296458,0.06718 -31.341582,-0.0079 z"
     id="path9330"
     transform="scale(0.75)" />
  <path
     style="opacity:0.5;fill:#ffffff;fill-opacity:1;stroke-width:0.0817369"
     d="M 8.6785291,47.141762 C 4.9504225,40.612005 1.5061748,34.570775 1.0246455,33.716807 L 0.14913775,32.164138 0.3681925,31.714253 C 1.0747003,30.263259 5.0070447,23.074215 6.9853618,19.616858 8.6074761,16.782011 11.166351,12.474931 13.638168,8.4189017 14.692936,6.6881226 15.706228,5.0237548 15.889928,4.7203065 L 16.223929,4.1685824 H 32 47.776071 l 0.334858,0.5517241 c 0.184172,0.3034483 1.26489,2.0781609 2.401595,3.9438059 4.616796,7.5774296 7.948693,13.3741376 11.881132,20.6703486 l 1.514956,2.810834 -0.219951,0.384755 c -0.120973,0.211615 -3.566262,6.232988 -7.656197,13.380828 l -7.436246,12.996074 -2.201554,0.05355 c -1.210855,0.02945 -8.667201,0.05355 -16.569657,0.05355 H 15.456906 Z"
     id="path9369"
     transform="scale(0.75)" />
  <path
     style="opacity:0.5;fill:#808000;fill-opacity:1;stroke-width:0.0817369"
     d="M 8.6785291,47.141762 C 4.9504225,40.612005 1.5061748,34.570775 1.0246455,33.716807 L 0.14913775,32.164138 0.3681925,31.714253 C 1.0747003,30.263259 5.0070447,23.074215 6.9853618,19.616858 8.6074761,16.782011 11.166351,12.474931 13.638168,8.4189017 c 1.054768,-1.7307791 2.06806,-3.3951469 2.25176,-3.6985952 l 0.334001,-0.5517241 h 15.777729 15.777728 l 2.4242,3.9846743 c 5.040693,8.2854193 8.173674,13.7292213 12.19007,21.1812043 l 1.514956,2.810834 -0.219951,0.384342 c -0.120973,0.211388 -3.565813,6.23275 -7.655199,13.380805 l -7.435248,12.996462 -2.202553,0.05357 c -1.211404,0.02947 -8.668198,0.05357 -16.570654,0.05357 H 15.456906 Z"
     id="path9408"
     transform="scale(0.75)" />
  <path
     style="opacity:0.5;fill:#808000;fill-opacity:1;stroke-width:0.066094"
     d="M 8.2479403,40.721889 C 6.4103922,36.970317 3.8280485,31.700856 2.5093986,29.011976 L 0.11185331,24.123103 0.29507187,23.695543 C 0.78597011,22.549982 3.0986136,17.62964 4.64921,14.431753 6.1602399,11.315467 8.464943,6.7939703 11.123825,1.7294913 l 1.056981,-2.01327402 11.802796,0.0179963 11.802795,0.0179963 0.582343,1.10452886 C 40.050852,7.8405973 43.053918,13.828533 45.723568,19.50971 c 1.772261,3.771478 2.137692,4.572664 2.116021,4.639243 -0.01142,0.03509 -2.586153,5.275212 -5.721623,11.644709 l -5.700857,11.580903 -0.674622,0.04189 c -0.371043,0.02304 -5.957383,0.06093 -12.414088,0.08418 l -11.739463,0.0423 z"
     id="path9757" />
  <path
     style="opacity:0.5;fill:#808000;fill-opacity:1;stroke-width:0.0817369"
     d="m 5.9667944,20.452012 c 0,-0.222791 5.2626416,-10.5983366 8.8292656,-17.4073121 l 1.509222,-2.88122608 14.835864,0.0103987 c 8.159726,0.005719 15.238864,0.0333055 15.731419,0.0613027 l 0.895554,0.0509039 1.499911,2.86079178 c 3.622337,6.9089051 8.837012,17.2427661 8.746648,17.3331301 -0.02097,0.02097 -0.528824,-0.81753 -1.128562,-1.863337 C 54.912342,15.174851 53.145857,12.204699 51.999465,10.400298 51.378506,9.4229178 50.229195,7.5666845 49.445441,6.2753341 L 48.020434,3.9274243 32,3.9273466 15.979566,3.9272689 14.431271,6.4795987 C 13.579708,7.8833801 12.515938,9.6020434 12.067337,10.298851 10.991571,11.969827 9.7013,14.13107 7.7243818,17.573436 6.0738824,20.447415 5.9667944,20.622803 5.9667944,20.452012 Z"
     id="path11270"
     transform="scale(0.75)" />
  <path
     style="opacity:0.5;fill:#808000;fill-opacity:1;stroke-width:0.0817369"
     d="m 23.962843,3.9438115 c 4.390802,-0.011684 11.599997,-0.011684 16.020434,-2e-6 4.420436,0.011683 0.827962,0.021242 -7.983277,0.021243 -8.811239,1.1e-6 -12.42796,-0.00956 -8.037157,-0.021241 z"
     id="path11346"
     transform="scale(0.75)" />
  <path
     style="opacity:0.5;fill:#808000;fill-opacity:1;stroke-width:0.0817369"
     d="M 15.192497,63.162197 C 13.938657,60.670596 2.4540295,37.161126 2.4786619,37.136494 c 0.016873,-0.01687 1.2498446,2.112467 2.7399373,4.731867 1.4900927,2.6194 4.3594954,7.61312 6.3764508,11.097156 l 3.667191,6.334611 h 16.739134 16.739134 l 3.66622,-6.334611 c 2.016421,-3.484036 4.885583,-8.477377 6.375917,-11.096314 1.490334,-2.618937 2.727228,-4.744173 2.748655,-4.722746 0.02143,0.02143 -1.956143,4.095227 -4.394601,9.052891 -2.438457,4.957664 -5.358432,10.897781 -6.488833,13.200261 -1.130401,2.30248 -2.110447,4.209502 -2.17788,4.237827 -0.141535,0.05945 -17.919315,0.188285 -26.870097,0.194725 l -6.068053,0.0044 z"
     id="path11385"
     transform="scale(0.75)" />
  <g
     id="g15936"
     transform="matrix(0.42688378,0,0,0.38984675,13.264368,12.835249)"
     style="fill:#ffffff">
    <g
       id="g15879"
       style="fill:#ffffff">
	<g
   id="g15877"
   style="fill:#ffffff">
		<path
   d="M 47.987,21.938 C 47.981,21.847 47.964,21.76 47.934,21.674 47.923,21.642 47.915,21.611 47.901,21.58 47.853,21.476 47.792,21.378 47.708,21.295 47.707,21.294 47.707,21.294 47.707,21.294 L 42,15.586 V 10 C 42,9.978 41.989,9.959 41.987,9.937 41.981,9.849 41.964,9.764 41.936,9.68 41.925,9.648 41.917,9.617 41.902,9.586 41.853,9.48 41.792,9.379 41.706,9.293 l -9,-9 C 32.62,0.207 32.519,0.146 32.412,0.097 32.382,0.083 32.352,0.075 32.321,0.064 32.236,0.035 32.149,0.017 32.059,0.012 32.039,0.01 32.021,0 32,0 H 7 C 6.448,0 6,0.448 6,1 v 14.586 l -5.707,5.707 c 0,0 -0.001,0.001 -0.002,0.002 C 0.207,21.379 0.147,21.477 0.099,21.58 0.085,21.611 0.077,21.642 0.066,21.674 0.036,21.76 0.018,21.847 0.013,21.938 0.011,21.96 0,21.978 0,22 v 19 c 0,0.552 0.448,1 1,1 h 5 v 5 c 0,0.552 0.448,1 1,1 h 34 c 0.552,0 1,-0.448 1,-1 v -5 h 5 c 0.552,0 1,-0.448 1,-1 V 22 c 0,-0.022 -0.011,-0.04 -0.013,-0.062 z M 44.586,21 H 42 v -2.586 z m -6,-12 H 33 V 3.414 Z M 8,2 h 23 v 8 c 0,0.552 0.448,1 1,1 h 8 v 5 5 H 8 V 16 Z M 6,18.414 V 21 H 3.414 Z M 40,46 H 8 v -4 h 32 z m 6,-6 H 2 V 23 h 5 34 5 z"
   id="path15871"
   style="fill:#ffffff" />

		<rect
   x="18.143"
   y="25.964001"
   width="2.04"
   height="12.036"
   id="rect15873"
   style="fill:#ffffff" />

		<path
   d="M 25.657,25.964 H 22.631 V 38 h 3.009 c 1.553,0 2.729,-0.524 3.528,-1.572 0.799,-1.049 1.198,-2.525 1.198,-4.429 0,-1.904 -0.399,-3.386 -1.198,-4.446 -0.799,-1.059 -1.969,-1.589 -3.511,-1.589 z m 2.474,7.879 c -0.13,0.528 -0.315,0.967 -0.553,1.318 -0.238,0.351 -0.521,0.615 -0.85,0.79 -0.329,0.176 -0.686,0.264 -1.071,0.264 h -0.969 v -8.466 h 0.969 c 0.385,0 0.742,0.088 1.071,0.264 0.329,0.175 0.612,0.439 0.85,0.79 0.238,0.351 0.422,0.793 0.553,1.326 0.13,0.533 0.195,1.156 0.195,1.87 0,0.703 -0.065,1.317 -0.195,1.844 z"
   id="path15875"
   style="fill:#ffffff" />

	</g>

</g>
    <g
       id="g15881"
       style="fill:#ffffff">
</g>
    <g
       id="g15883"
       style="fill:#ffffff">
</g>
    <g
       id="g15885"
       style="fill:#ffffff">
</g>
    <g
       id="g15887"
       style="fill:#ffffff">
</g>
    <g
       id="g15889"
       style="fill:#ffffff">
</g>
    <g
       id="g15891"
       style="fill:#ffffff">
</g>
    <g
       id="g15893"
       style="fill:#ffffff">
</g>
    <g
       id="g15895"
       style="fill:#ffffff">
</g>
    <g
       id="g15897"
       style="fill:#ffffff">
</g>
    <g
       id="g15899"
       style="fill:#ffffff">
</g>
    <g
       id="g15901"
       style="fill:#ffffff">
</g>
    <g
       id="g15903"
       style="fill:#ffffff">
</g>
    <g
       id="g15905"
       style="fill:#ffffff">
</g>
    <g
       id="g15907"
       style="fill:#ffffff">
</g>
    <g
       id="g15909"
       style="fill:#ffffff">
</g>
  </g>
</svg>
