<?xml version="1.0" encoding="UTF-8" standalone="no"?>
<svg
   version="1.0"
   width="48.000000pt"
   height="48.000000pt"
   viewBox="0 0 48.000000 48.000000"
   preserveAspectRatio="xMidYMid meet"
   id="svg3347"
   sodipodi:docname="Organisation_ServiceResourceFilter.svg"
   inkscape:export-filename="C:\Users\ammoussaoui\modelio\eclipse\modules\CamelDesigner\src\main\conf\res\icon\gui\organisationServiceResourceFilter48.png"
   inkscape:export-xdpi="72.000008"
   inkscape:export-ydpi="72.000008"
   inkscape:version="1.1.1 (3bf5ae0d25, 2021-09-20)"
   xmlns:inkscape="http://www.inkscape.org/namespaces/inkscape"
   xmlns:sodipodi="http://sodipodi.sourceforge.net/DTD/sodipodi-0.dtd"
   xmlns="http://www.w3.org/2000/svg"
   xmlns:svg="http://www.w3.org/2000/svg">
  <defs
     id="defs3351" />
  <sodipodi:namedview
     id="namedview3349"
     pagecolor="#ffffff"
     bordercolor="#666666"
     borderopacity="1.0"
     inkscape:pageshadow="2"
     inkscape:pageopacity="0.0"
     inkscape:pagecheckerboard="0"
     inkscape:document-units="pt"
     showgrid="false"
     inkscape:zoom="12.234375"
     inkscape:cx="42.012771"
     inkscape:cy="20.148148"
     inkscape:window-width="2400"
     inkscape:window-height="1271"
     inkscape:window-x="-9"
     inkscape:window-y="-9"
     inkscape:window-maximized="1"
     inkscape:current-layer="svg3347" />
  <g
     transform="translate(0.000000,48.000000) scale(0.100000,-0.100000)"
     fill="#000000"
     stroke="none"
     id="g3345">
    <path
       d="M95 409 c-15 -22 -42 -70 -62 -105 l-35 -65 58 -102 59 -102 125 0 125 0 59 102 58 102 -35 65 c-20 35 -47 83 -62 105 l-25 41 -120 0 -120 0 -25 -41z"
       id="path3343" />
  </g>
  <path
     style="opacity:0.5;fill:#ffffff;fill-opacity:1;stroke-width:0.0817369"
     d="M 11.403788,52.453786 C 6.8667448,44.58971 -0.08685403,32.387246 -0.13968503,32.196819 -0.18274479,32.041613 3.8285487,24.566131 5.908886,20.924649 9.3296184,14.9369 10.850768,12.364329 12.336866,10.05364 12.727185,9.4467433 13.723419,7.8375479 14.550717,6.4776501 l 1.50418,-2.4725415 H 32 47.945103 l 1.50418,2.4725415 c 0.827298,1.3598978 1.823532,2.9690932 2.213851,3.5759899 1.486098,2.310689 3.007248,4.88326 6.42798,10.871009 2.075839,3.633609 6.091595,11.116684 6.049155,11.27217 -0.05247,0.192224 -6.73612,11.921925 -11.401257,20.009018 L 48.67433,59.252033 32,59.251788 15.32567,59.251542 11.403788,52.453728 Z"
     id="path9020"
     transform="scale(0.75)" />
  <path
     style="opacity:0.5;fill:#ffffff;fill-opacity:1;stroke-width:0.0817369"
     d="M 13.455295,55.926754 C 10.676003,51.101394 1.7063176,35.414722 0.73761022,33.685378 L -0.10395076,32.183016 0.07720179,31.805429 C 0.87716234,30.138022 4.5914162,23.331098 6.9063968,19.289911 9.506784,14.750499 10.46892,13.129616 12.340414,10.135377 13.225517,8.7192848 14.436956,6.7606641 15.032502,5.7828863 l 1.082811,-1.7777777 h 15.883828 15.883828 l 1.085364,1.7777777 c 0.59695,0.9777778 1.808363,2.9363985 2.692028,4.3524907 1.889887,3.02858 2.87035,4.680576 5.433242,9.154534 2.315594,4.042257 6.029085,10.847838 6.829651,12.516456 l 0.181608,0.378526 -0.24664,0.438843 c -1.763034,3.136953 -6.522116,11.487837 -9.193645,16.13233 -1.861809,3.236782 -3.971263,6.905065 -4.687677,8.151741 L 48.67433,59.174491 32,59.174246 15.32567,59.174 13.455295,55.926684 Z"
     id="path9096"
     transform="scale(0.75)" />
  <path
     style="opacity:0.5;fill:#ffffff;fill-opacity:1;stroke-width:0.0817369"
     d="M 14.870857,58.29801 C 14.620708,57.860158 12.297798,53.805364 9.7088327,49.287356 7.1198673,44.769349 3.8593272,39.068571 2.463188,36.618963 L -0.07524689,32.165128 0.58746769,30.897379 C 2.193655,27.8248 5.3041829,22.180531 7.4875298,18.376737 9.4941744,14.88079 10.497442,13.203157 13.124849,8.9501916 14.485705,6.7473819 15.729118,4.7335888 15.887989,4.4750958 l 0.288855,-0.4699872 h 15.818464 15.818464 l 0.197144,0.3065134 c 0.628513,0.9771938 5.487477,8.898746 6.279562,10.237548 2.719762,4.597006 6.882115,12.057615 9.12038,16.347382 l 0.661039,1.266922 -0.625258,1.103448 C 62.399345,35.115173 51.950246,53.394017 50.259255,56.335908 L 48.67433,59.093274 32,59.093682 15.32567,59.094091 14.870857,58.297996 Z"
     id="path9135"
     transform="scale(0.75)" />
  <path
     style="opacity:0.5;fill:#ffffff;fill-opacity:1;stroke-width:0.0817369"
     d="M 14.546817,57.645152 C 10.519031,50.626312 0.06069413,32.326349 0.02686367,32.238189 -0.05945434,32.013248 4.8481143,23.015919 8.3823792,16.91954 9.9456654,14.222972 10.774402,12.848914 13.718693,8.0718486 l 2.506084,-4.0660823 15.775818,-3.289e-4 15.775819,-3.288e-4 0.213039,0.3473818 c 0.117172,0.19106 1.131409,1.8370371 2.253859,3.6577267 3.156348,5.1198059 4.535568,7.4266409 6.515447,10.8975109 2.557608,4.483672 5.565886,9.956511 6.927425,12.602789 l 0.33692,0.654834 -7.683803,13.444783 -7.683803,13.444783 -16.638002,0.02063 -16.638003,0.02063 z"
     id="path9174"
     transform="scale(0.75)" />
  <path
     style="opacity:0.5;fill:#ffffff;fill-opacity:1;stroke-width:0.0817369"
     d="M 15.068226,58.482759 C 14.888752,58.168072 11.443371,52.142006 7.4118235,45.091503 3.3802759,38.041 0.08173691,32.232606 0.08173691,32.183961 c 0,-0.238346 3.16270989,-6.117698 5.99082619,-11.136707 C 8.7442987,16.305771 10.284737,13.71501 14.52894,6.8250319 L 16.240829,4.045977 h 15.7592 15.7592 l 2.039648,3.3103448 c 2.753794,4.4694032 4.930117,8.0940462 6.453601,10.7484032 2.248154,3.916946 5.662175,10.099287 7.154193,12.955301 l 0.576455,1.103448 -7.572661,13.246289 c -4.164964,7.285459 -7.627834,13.32547 -7.695267,13.422248 l -0.122605,0.175957 -16.599026,0.02348 -16.599026,0.02347 z"
     id="path9213"
     transform="scale(0.75)" />
  <path
     style="opacity:0.5;fill:#ffffff;fill-opacity:1;stroke-width:0.0817369"
     d="M 8.4831428,46.896552 C 4.679868,40.231928 1.2354315,34.190549 0.82883956,33.471264 l -0.7392579,-1.30779 0.84333563,-1.634738 C 1.8012924,28.84546 3.8199255,25.137148 5.5709103,22.008552 8.1633504,17.376475 10.144629,14.026646 14.51318,6.8894891 L 16.224777,4.0931545 32,4.0932844 l 15.775223,1.3e-4 1.712685,2.7962048 c 2.821268,4.6061278 5.666715,9.3596068 7.027258,11.7394278 2.281155,3.990131 5.906072,10.573081 7.051071,12.804943 l 0.380551,0.74178 -2.354958,4.121566 c -5.12409,8.968 -12.652706,22.099784 -12.841989,22.399627 l -0.200168,0.317086 H 31.973931 15.398188 Z"
     id="path9252"
     transform="scale(0.75)" />
  <path
     style="opacity:0.5;fill:#ffffff;fill-opacity:1;stroke-width:0.0817369"
     d="M 15.33489,58.830338 C 15.179574,58.586803 3.6387874,38.382659 1.7231307,35.000598 0.90092718,33.549011 0.21145216,32.297247 0.19096391,32.2189 0.14862123,32.056981 0.76254796,30.844585 2.6383075,27.385831 6.5047433,20.256426 9.2244377,15.571776 14.408887,7.1111111 l 1.828139,-2.9833972 h 15.762996 15.762996 l 1.62966,2.6564496 c 5.48761,8.9451575 9.159713,15.3107605 13.296501,23.0495325 l 1.238199,2.316325 -6.664098,11.654236 c -3.665255,6.40983 -7.120591,12.445041 -7.678526,13.41158 l -1.014426,1.757343 -16.559012,0.02063 -16.559012,0.02063 z"
     id="path9291"
     transform="scale(0.75)" />
  <path
     style="opacity:0.5;fill:#ffffff;fill-opacity:1;stroke-width:0.0817369"
     d="M 15.421097,58.952746 C 15.176191,58.545074 1.9815437,35.42346 1.2062704,34.043423 L 0.15015777,32.163474 0.3688164,31.713921 C 0.98484402,30.447394 4.2568437,24.426071 6.209522,20.965517 8.2408664,17.365551 11.125099,12.511478 14.9634,6.233013 L 16.224777,4.1697296 32,4.1693871 47.775223,4.1690447 49.908028,7.6630662 C 55.030049,16.054108 58.393037,21.886356 62.31196,29.174538 l 1.601223,2.97786 -0.150967,0.250748 C 63.642753,32.601568 50.243958,56.01547 48.926955,58.327219 l -0.330478,0.580093 -1.833798,0.05337 c -2.5584,0.07446 -31.296458,0.06718 -31.341582,-0.0079 z"
     id="path9330"
     transform="scale(0.75)" />
  <path
     style="opacity:0.5;fill:#ffffff;fill-opacity:1;stroke-width:0.0817369"
     d="M 8.6785291,47.141762 C 4.9504225,40.612005 1.5061748,34.570775 1.0246455,33.716807 L 0.14913775,32.164138 0.3681925,31.714253 C 1.0747003,30.263259 5.0070447,23.074215 6.9853618,19.616858 8.6074761,16.782011 11.166351,12.474931 13.638168,8.4189017 14.692936,6.6881226 15.706228,5.0237548 15.889928,4.7203065 L 16.223929,4.1685824 H 32 47.776071 l 0.334858,0.5517241 c 0.184172,0.3034483 1.26489,2.0781609 2.401595,3.9438059 4.616796,7.5774296 7.948693,13.3741376 11.881132,20.6703486 l 1.514956,2.810834 -0.219951,0.384755 c -0.120973,0.211615 -3.566262,6.232988 -7.656197,13.380828 l -7.436246,12.996074 -2.201554,0.05355 c -1.210855,0.02945 -8.667201,0.05355 -16.569657,0.05355 H 15.456906 Z"
     id="path9369"
     transform="scale(0.75)" />
  <path
     style="opacity:0.5;fill:#808000;fill-opacity:1;stroke-width:0.0817369"
     d="M 8.6785291,47.141762 C 4.9504225,40.612005 1.5061748,34.570775 1.0246455,33.716807 L 0.14913775,32.164138 0.3681925,31.714253 C 1.0747003,30.263259 5.0070447,23.074215 6.9853618,19.616858 8.6074761,16.782011 11.166351,12.474931 13.638168,8.4189017 c 1.054768,-1.7307791 2.06806,-3.3951469 2.25176,-3.6985952 l 0.334001,-0.5517241 h 15.777729 15.777728 l 2.4242,3.9846743 c 5.040693,8.2854193 8.173674,13.7292213 12.19007,21.1812043 l 1.514956,2.810834 -0.219951,0.384342 c -0.120973,0.211388 -3.565813,6.23275 -7.655199,13.380805 l -7.435248,12.996462 -2.202553,0.05357 c -1.211404,0.02947 -8.668198,0.05357 -16.570654,0.05357 H 15.456906 Z"
     id="path9408"
     transform="scale(0.75)" />
  <path
     style="opacity:0.5;fill:#808000;fill-opacity:1;stroke-width:0.066094"
     d="M 8.2479403,40.721889 C 6.4103922,36.970317 3.8280485,31.700856 2.5093986,29.011976 L 0.11185331,24.123103 0.29507187,23.695543 C 0.78597011,22.549982 3.0986136,17.62964 4.64921,14.431753 6.1602399,11.315467 8.464943,6.7939703 11.123825,1.7294913 l 1.056981,-2.01327402 11.802796,0.0179963 11.802795,0.0179963 0.582343,1.10452886 C 40.050852,7.8405973 43.053918,13.828533 45.723568,19.50971 c 1.772261,3.771478 2.137692,4.572664 2.116021,4.639243 -0.01142,0.03509 -2.586153,5.275212 -5.721623,11.644709 l -5.700857,11.580903 -0.674622,0.04189 c -0.371043,0.02304 -5.957383,0.06093 -12.414088,0.08418 l -11.739463,0.0423 z"
     id="path9757" />
  <path
     style="opacity:0.5;fill:#808000;fill-opacity:1;stroke-width:0.0817369"
     d="m 5.9667944,20.452012 c 0,-0.222791 5.2626416,-10.5983366 8.8292656,-17.4073121 l 1.509222,-2.88122608 14.835864,0.0103987 c 8.159726,0.005719 15.238864,0.0333055 15.731419,0.0613027 l 0.895554,0.0509039 1.499911,2.86079178 c 3.622337,6.9089051 8.837012,17.2427661 8.746648,17.3331301 -0.02097,0.02097 -0.528824,-0.81753 -1.128562,-1.863337 C 54.912342,15.174851 53.145857,12.204699 51.999465,10.400298 51.378506,9.4229178 50.229195,7.5666845 49.445441,6.2753341 L 48.020434,3.9274243 32,3.9273466 15.979566,3.9272689 14.431271,6.4795987 C 13.579708,7.8833801 12.515938,9.6020434 12.067337,10.298851 10.991571,11.969827 9.7013,14.13107 7.7243818,17.573436 6.0738824,20.447415 5.9667944,20.622803 5.9667944,20.452012 Z"
     id="path11270"
     transform="scale(0.75)" />
  <path
     style="opacity:0.5;fill:#808000;fill-opacity:1;stroke-width:0.0817369"
     d="m 23.962843,3.9438115 c 4.390802,-0.011684 11.599997,-0.011684 16.020434,-2e-6 4.420436,0.011683 0.827962,0.021242 -7.983277,0.021243 -8.811239,1.1e-6 -12.42796,-0.00956 -8.037157,-0.021241 z"
     id="path11346"
     transform="scale(0.75)" />
  <path
     style="opacity:0.5;fill:#808000;fill-opacity:1;stroke-width:0.0817369"
     d="M 15.192497,63.162197 C 13.938657,60.670596 2.4540295,37.161126 2.4786619,37.136494 c 0.016873,-0.01687 1.2498446,2.112467 2.7399373,4.731867 1.4900927,2.6194 4.3594954,7.61312 6.3764508,11.097156 l 3.667191,6.334611 h 16.739134 16.739134 l 3.66622,-6.334611 c 2.016421,-3.484036 4.885583,-8.477377 6.375917,-11.096314 1.490334,-2.618937 2.727228,-4.744173 2.748655,-4.722746 0.02143,0.02143 -1.956143,4.095227 -4.394601,9.052891 -2.438457,4.957664 -5.358432,10.897781 -6.488833,13.200261 -1.130401,2.30248 -2.110447,4.209502 -2.17788,4.237827 -0.141535,0.05945 -17.919315,0.188285 -26.870097,0.194725 l -6.068053,0.0044 z"
     id="path11385"
     transform="scale(0.75)" />
  <path
     d="m 31.433745,45.112804 q -0.462304,0 -0.775041,-0.317792 Q 30.345968,44.47722 30.345968,44.00744 V 37.375256 L 23.846507,28.946855 Q 23.465784,28.477076 23.73773,27.952028 24.009673,27.42698 24.580756,27.42698 h 15.881531 q 0.571082,0 0.843026,0.525048 0.271944,0.525048 -0.108777,0.994827 l -6.499463,8.428401 v 6.632184 q 0,0.46978 -0.312735,0.787572 -0.312736,0.317792 -0.77504,0.317792 z m 1.087776,-7.627012 6.526657,-8.400766 H 25.994864 Z m 0,0 z"
     id="path12497"
     style="fill:#ffffff;fill-opacity:0.797101;stroke-width:0.548268" />
  <g
     id="g15216"
     transform="matrix(0.0568069,0,0,0.05308489,9.8263504,4.3574237)"
     style="fill:#ffffff">
    <g
       id="g15161"
       style="fill:#ffffff">
	<path
   d="m 463.1,395.382 -18.478,-90.978 c -1.419,-6.991 -7.566,-12.015 -14.7,-12.015 h -41.643 l -15.927,-73.938 c -1.488,-6.909 -7.597,-11.841 -14.664,-11.841 h -41.643 l -15.927,-73.937 c -1.488,-6.909 -7.597,-11.841 -14.664,-11.841 h -107.51 c -7.067,0 -13.175,4.933 -14.664,11.841 L 147.353,206.61 H 105.71 c -7.067,0 -13.175,4.933 -14.664,11.841 L 75.119,292.389 H 33.478 c -7.133,0 -13.28,5.024 -14.7,12.015 L 0.3,395.382 c -0.896,4.412 0.236,8.993 3.085,12.479 2.849,3.485 7.112,5.507 11.614,5.507 h 433.4 c 4.502,0 8.766,-2.022 11.614,-5.507 2.85,-3.486 3.983,-8.067 3.087,-12.479 z M 172.928,383.368 186.02,322.589 h 91.36 l 13.093,60.779 z m -139.575,0 12.345,-60.779 h 87.216 l 13.093,60.779 z m 240.032,-232.336 14.17,65.779 h -37.377 -36.957 -37.377 l 14.17,-65.779 z m -29.301,151.557 14.169,-65.778 h 87.365 l 14.17,65.778 z M 231.7,265.102 225.605,236.81 h 12.189 z m -26.554,-28.291 14.17,65.778 H 103.611 l 14.17,-65.778 z m -39.585,85.778 -6.094,28.292 -6.095,-28.292 z m 144.467,0 -6.095,28.292 -6.094,-28.292 z m 107.675,0 12.344,60.779 H 317.394 l 13.093,-60.779 z"
   id="path15157"
   style="fill:#ffffff" />

	
</g>
    <g
       id="g15163"
       style="fill:#ffffff">
</g>
    <g
       id="g15165"
       style="fill:#ffffff">
</g>
    <g
       id="g15167"
       style="fill:#ffffff">
</g>
    <g
       id="g15169"
       style="fill:#ffffff">
</g>
    <g
       id="g15171"
       style="fill:#ffffff">
</g>
    <g
       id="g15173"
       style="fill:#ffffff">
</g>
    <g
       id="g15175"
       style="fill:#ffffff">
</g>
    <g
       id="g15177"
       style="fill:#ffffff">
</g>
    <g
       id="g15179"
       style="fill:#ffffff">
</g>
    <g
       id="g15181"
       style="fill:#ffffff">
</g>
    <g
       id="g15183"
       style="fill:#ffffff">
</g>
    <g
       id="g15185"
       style="fill:#ffffff">
</g>
    <g
       id="g15187"
       style="fill:#ffffff">
</g>
    <g
       id="g15189"
       style="fill:#ffffff">
</g>
    <g
       id="g15191"
       style="fill:#ffffff">
</g>
  </g>
</svg>
