<?xml version="1.0" encoding="UTF-8" standalone="no"?>
<svg
   xmlns:dc="http://purl.org/dc/elements/1.1/"
   xmlns:cc="http://creativecommons.org/ns#"
   xmlns:rdf="http://www.w3.org/1999/02/22-rdf-syntax-ns#"
   xmlns:svg="http://www.w3.org/2000/svg"
   xmlns="http://www.w3.org/2000/svg"
   xmlns:sodipodi="http://sodipodi.sourceforge.net/DTD/sodipodi-0.dtd"
   xmlns:inkscape="http://www.inkscape.org/namespaces/inkscape"
   id="Layer_1"
   data-name="Layer 1"
   width="128"
   height="128"
   viewBox="0 0 128 128"
   version="1.1"
   sodipodi:docname="RawSecurityMetric.svg"
   inkscape:version="1.0.2-2 (e86c870879, 2021-01-15)"
   inkscape:export-filename="C:\Users\ammoussaoui\modelio\eclipse\modules\CamelDesigner\src\main\conf\res\icon\gui\RawSecurityMetric_48.png"
   inkscape:export-xdpi="36.074654"
   inkscape:export-ydpi="36.074654">
  <metadata
     id="metadata25">
    <rdf:RDF>
      <cc:Work
         rdf:about="">
        <dc:format>image/svg+xml</dc:format>
        <dc:type
           rdf:resource="http://purl.org/dc/dcmitype/StillImage" />
        <dc:title>Generic-GCP</dc:title>
      </cc:Work>
    </rdf:RDF>
  </metadata>
  <defs
     id="defs23">
    <style
       id="style283">.cls-1{fill:#2d3e50;}.cls-2{fill:#2e79bd;}</style>
  </defs>
  <sodipodi:namedview
     pagecolor="#ffffff"
     bordercolor="#666666"
     borderopacity="1"
     objecttolerance="10"
     gridtolerance="10"
     guidetolerance="10"
     inkscape:pageopacity="0"
     inkscape:pageshadow="2"
     inkscape:window-width="1366"
     inkscape:window-height="705"
     id="namedview21"
     showgrid="false"
     inkscape:zoom="1.84375"
     inkscape:cx="83.340067"
     inkscape:cy="81.058621"
     inkscape:window-x="-8"
     inkscape:window-y="-8"
     inkscape:window-maximized="1"
     inkscape:current-layer="Layer_1"
     inkscape:document-rotation="0" />
  <title
     id="title2">Generic-GCP</title>
  <path
     style="fill:#ffff00;fill-opacity:1;stroke-width:0.202906"
     d="m 37.450813,128.56792 c -3.16675,-0.5683 -6.22126,-2.28693 -8.09035,-4.55204 -0.79864,-0.96786 -3.82937,-6.73646 -14.05767,-26.756905 C 0.98767624,69.239144 0.97502824,69.213722 0.50726324,67.517399 c -0.499895,-1.812847 -0.464479,-5.28969 0.07326,-7.192505 C 0.88946424,59.231699 4.7081272,51.622663 14.58799,32.413698 27.69855,6.9234462 28.22037,5.9487531 29.59883,4.3754658 c 1.64733,-1.8801635 3.66031,-3.1279647 6.20478,-3.84619454 1.47936,-0.4175816 2.1727,-0.4280704 28.09251,-0.4249754 28.94206,0.00349 27.55615,-0.052105 30.315,1.21523184 1.8033,0.8283825 3.60228,2.1838737 4.67227,3.5204405 0.653074,0.8157762 4.98332,9.0565298 14.4327,27.4663758 7.42483,14.465523 13.67509,26.824142 13.88946,27.46362 0.92553,2.760918 0.9095,6.407237 -0.0401,9.122309 -0.21048,0.601804 -6.48167,12.973818 -13.93597,27.493351 -10.63942,20.723556 -13.773796,26.666106 -14.57901,27.640836 -1.32434,1.60313 -3.30492,2.97184 -5.5899,3.86303 l -1.8217,0.71049 -26.65433,0.027 c -14.65988,0.0148 -26.87006,-0.0118 -27.13373,-0.059 z"
     id="path8"
     inkscape:connector-curvature="0"
     inkscape:export-filename="C:\Users\ammoussaoui\modelio\eclipse\modules\CamelDesigner\src\main\conf\res\icon\gui\SecuritySLO_48.png"
     inkscape:export-xdpi="36.074654"
     inkscape:export-ydpi="36.074654" />
  <g
     id="g313"
     transform="matrix(0.48712745,0,0,0.5951878,35.700841,25.851707)"
     style="fill:#000000">
    <path
       class="cls-1"
       d="M 59.207361,-15.236196 A 98.042233,76.596952 0 1 0 157.24959,61.360756 98.15067,76.681671 0 0 0 59.207361,-15.236196 Z m 0,138.171646 A 78.814111,61.574696 0 1 1 138.02148,61.360756 78.901437,61.64292 0 0 1 59.207361,122.93545 Z"
       id="path289"
       style="fill:#ffff00;stroke-width:1.43871" />
    <path
       class="cls-1"
       d="m 65.02467,37.48595 q 0.8367,0.10006 1.66129,0.25466 l 4.41092,-8.28527 v -0.006 c -0.08791,-0.01821 -0.17582,-0.0364 -0.26374,-0.05155 -0.1152,-0.02424 -0.23342,-0.0485 -0.35165,-0.06972 -0.03031,-0.0061 -0.06367,-0.01212 -0.094,-0.01515 -0.1637,-0.03336 -0.32741,-0.06063 -0.49111,-0.08489 -0.1243,-0.02426 -0.24859,-0.04546 -0.37591,-0.06365 -0.10915,-0.01819 -0.21828,-0.0364 -0.32741,-0.04852 -0.1728,-0.02727 -0.34864,-0.05153 -0.52445,-0.07579 -0.11217,-0.01515 -0.22737,-0.03031 -0.34257,-0.04245 -0.18494,-0.02424 -0.36683,-0.04546 -0.55175,-0.06365 -0.10612,-0.01214 -0.21525,-0.02426 -0.32438,-0.03033 -0.16977,-0.01819 -0.33953,-0.03638 -0.5093,-0.04546 -0.10308,-0.01214 -0.20918,-0.02122 -0.31226,-0.02729 q -0.36378,-0.02728 -0.72756,-0.04546 c -0.03638,-0.003 -0.07275,-0.0061 -0.10612,-0.0061 -0.29405,-0.01515 -0.59116,-0.02729 -0.88521,-0.03334 -0.30316,-0.0091 -0.60631,-0.01214 -0.90947,-0.01214 A 35.25322,35.25322 0 0 0 40.86918,90.602 l 0.003,-0.003 2.18882,-2.51627 C 42.84879,87.86748 42.64264,87.65225 42.4365,87.43094 A 34.28694,34.28694 0 0 1 39.68082,84.09622 31.81121,31.81121 0 0 1 37.0282,79.66711 29.5059,29.5059 0 0 1 35.16075,74.91969 28.23149,28.23149 0 0 1 34.11486,69.9934 c -0.04243,-0.41532 -0.12125,-0.82459 -0.13642,-1.243 l -0.08487,-1.246 c -0.01819,-0.41532 -0.0091,-0.83368 -0.01819,-1.246 0,-0.20918 -0.0091,-0.41532 -0.0061,-0.62147 l 0.03033,-0.62149 c 0.02424,-0.41532 0.02424,-0.82761 0.06669,-1.2399 l 0.12127,-1.23081 c 0.11822,-0.81549 0.22433,-1.62795 0.40318,-2.42525 A 28.75,28.75 0 0 1 35.858,55.454 a 30.554,30.554 0 0 1 2.10391,-4.31694 29.04413,29.04413 0 0 1 6.06616,-7.206 28.36413,28.36413 0 0 1 7.86693,-4.74138 27.18779,27.18779 0 0 1 13.1297,-1.70374 z"
       id="path291"
       style="fill:#000000" />
    <path
       class="cls-1"
       d="m 78.75132,32.23476 a 3.02551,3.02551 0 0 0 -1.69713,-0.26028 3.08615,3.08615 0 0 0 -2.2711,1.55934 L 62.519,54.75087 61.98411,54.86694 a 9.23844,9.23844 0 0 0 -6.51251,5.2213 9.38708,9.38708 0 1 0 16.78559,-0.47444 l -0.25871,-0.48169 8.36548,-23.0302 a 3.136,3.136 0 0 0 -1.61264,-3.86715 z"
       id="path293"
       style="fill:#000000" />
    <path
       class="cls-2"
       d="m 92.67149,51.96623 a 3.473,3.473 0 0 0 0.98818,-0.72977 4.28025,4.28025 0 1 0 -6.05317,0.01821 4.23545,4.23545 0 0 0 5.06499,0.71156 z"
       id="path295"
       style="fill:#000000" />
    <path
       class="cls-2"
       d="m 98.90619,65.32749 a 3.67306,3.67306 0 0 0 -3.61182,-2.97 3.73254,3.73254 0 0 0 -0.69661,0.066 3.61436,3.61436 0 0 0 -2.3388,1.54716 3.684,3.684 0 0 0 -0.56516,2.76135 l 3e-4,0.0012 a 3.64381,3.64381 0 0 0 3.248,2.94275 l 0.042,0.0053 a 2.86194,2.86194 0 0 0 1.01338,-0.04441 3.67938,3.67938 0 0 0 2.90871,-4.30936 z"
       id="path297"
       style="fill:#000000" />
    <path
       class="cls-2"
       d="m 90.14062,81.21317 a 3.00528,3.00528 0 0 0 -1.19782,-0.249 3.08842,3.08842 0 0 0 -2.82758,1.866 l -0.0012,0.0021 a 3.03634,3.03634 0 0 0 0.86151,3.54817 l 0.06365,0.056 a 2.27288,2.27288 0 0 0 0.68329,0.41536 3.06762,3.06762 0 1 0 2.41814,-5.63859 z"
       id="path299"
       style="fill:#000000" />
  </g>
  <style
     type="text/css"
     id="style332">
	.st0{fill:none;stroke:#000000;stroke-width:2;stroke-linecap:round;stroke-linejoin:round;stroke-miterlimit:10;}
	.st1{fill:none;stroke:#000000;stroke-width:2;stroke-linejoin:round;stroke-miterlimit:10;}
</style>
  <g
     id="g354"
     transform="translate(87.593222,95.728799)">
    <path
       class="st0"
       d="M 25,6.7 C 21.6,6.7 18.4,5.3 16,3 13.6,5.3 10.4,6.7 7,6.7 5.6,6.7 4.3,6.4 3,6 3,20 8.5,25.6 16,29 23.5,25.6 29,20 29,6 27.7,6.4 26.4,6.7 25,6.7 Z"
       id="path334" />
    <path
       class="st0"
       d="m 19,22 h -6 c -1.1,0 -2,-0.9 -2,-2 v -4 c 0,-1.1 0.9,-2 2,-2 h 6 c 1.1,0 2,0.9 2,2 v 4 c 0,1.1 -0.9,2 -2,2 z"
       id="path336" />
    <path
       class="st0"
       d="m 20,14 h -8 v -2 c 0,-2.2 1.8,-4 4,-4 v 0 c 2.2,0 4,1.8 4,4 z"
       id="path338" />
    <line
       class="st0"
       x1="16"
       y1="17"
       x2="16"
       y2="19"
       id="line340" />
  </g>
</svg>
