<?xml version="1.0" encoding="UTF-8" standalone="no"?>
<svg
   xmlns:dc="http://purl.org/dc/elements/1.1/"
   xmlns:cc="http://creativecommons.org/ns#"
   xmlns:rdf="http://www.w3.org/1999/02/22-rdf-syntax-ns#"
   xmlns:svg="http://www.w3.org/2000/svg"
   xmlns="http://www.w3.org/2000/svg"
   xmlns:sodipodi="http://sodipodi.sourceforge.net/DTD/sodipodi-0.dtd"
   xmlns:inkscape="http://www.inkscape.org/namespaces/inkscape"
   id="Layer_1"
   data-name="Layer 1"
   width="128"
   height="128"
   viewBox="0 0 128 128"
   version="1.1"
   sodipodi:docname="RuleTrigger.svg"
   inkscape:version="1.0.2-2 (e86c870879, 2021-01-15)"
   inkscape:export-filename="C:\Users\ammoussaoui\modelio\eclipse\modules\CamelDesigner\src\main\conf\res\icon\gui\SLOViolation_24.png"
   inkscape:export-xdpi="18.037327"
   inkscape:export-ydpi="18.037327">
  <metadata
     id="metadata25">
    <rdf:RDF>
      <cc:Work
         rdf:about="">
        <dc:format>image/svg+xml</dc:format>
        <dc:type
           rdf:resource="http://purl.org/dc/dcmitype/StillImage" />
        <dc:title>Generic-GCP</dc:title>
      </cc:Work>
    </rdf:RDF>
  </metadata>
  <defs
     id="defs23" />
  <sodipodi:namedview
     pagecolor="#ffffff"
     bordercolor="#666666"
     borderopacity="1"
     objecttolerance="10"
     gridtolerance="10"
     guidetolerance="10"
     inkscape:pageopacity="0"
     inkscape:pageshadow="2"
     inkscape:window-width="1366"
     inkscape:window-height="705"
     id="namedview21"
     showgrid="false"
     inkscape:zoom="1.84375"
     inkscape:cx="86.237288"
     inkscape:cy="81.058621"
     inkscape:window-x="-8"
     inkscape:window-y="-8"
     inkscape:window-maximized="1"
     inkscape:current-layer="Layer_1"
     inkscape:document-rotation="0" />
  <title
     id="title2">Generic-GCP</title>
  <path
     style="fill:#aaffc3;fill-opacity:1;stroke-width:0.202048"
     d="M 39.076866,127.48371 C 35.900523,126.9202 32.817004,125.21608 30.909679,122.97009 30.094702,122.01039 26.9666,116.29048 16.400362,96.439004 1.6122806,68.655656 1.5992034,68.630448 1.1028051,66.948442 0.57230993,65.150896 0.54903803,61.703396 1.0546582,59.816641 1.3451464,58.732672 5.0353716,51.187854 14.590994,32.14101 27.271288,6.865891 27.776655,5.8994242 29.128559,4.3394151 30.744152,2.4751199 32.73607,1.2378499 35.268416,0.5256818 36.740728,0.11162451 37.43389,0.10122423 63.353753,0.10429311 c 28.942119,0.003461 27.55527,-0.05166524 30.335512,1.20497549 1.817283,0.8213911 3.639143,2.1654422 4.731694,3.4907287 0.666847,0.8088912 5.136191,8.9800947 14.896321,27.2345647 7.669,14.343437 14.12787,26.597751 14.35304,27.231832 0.97213,2.737616 1.01765,6.353161 0.11388,9.045318 -0.20033,0.596725 -6.26268,12.864322 -13.4719,27.261312 -10.28961,20.548656 -13.32367,26.441046 -14.11244,27.407556 -1.297275,1.5896 -3.254752,2.94675 -5.524688,3.83042 l -1.809708,0.7045 -26.653874,0.0267 c -14.659631,0.0147 -26.870259,-0.0117 -27.134726,-0.0585 z"
     id="path8"
     inkscape:connector-curvature="0"
     inkscape:export-filename="C:\Users\ammoussaoui\modelio\eclipse\modules\CamelDesigner\src\main\conf\res\icon\gui\DataMeasurement_48.png"
     inkscape:export-xdpi="36.074654"
     inkscape:export-ydpi="36.074654" />
  <path
     d="m 90.423034,71.336935 c -0.94839,-1.591374 -2.044423,-5.377188 -2.799457,-7.985104 -2.134797,-7.370437 -5.439186,-18.747543 -15.37705,-22.83237 0.09878,-0.500202 0.160253,-1.012508 0.160253,-1.53641 0,-4.455441 -3.764136,-8.067797 -8.406779,-8.067797 -4.642645,0 -8.40678,3.612356 -8.40678,8.067797 0,0.523902 0.06148,1.036208 0.160254,1.53641 -9.937864,4.085331 -13.242254,15.461933 -15.37705,22.83237 -0.75556,2.607916 -1.851069,6.39373 -2.799458,7.985104 -4.072035,0.559199 -7.204085,3.91994 -7.204085,7.985101 0,4.455441 3.764136,8.067797 8.406779,8.067797 h 16.81356 c 0,4.455441 3.764135,8.067797 8.40678,8.067797 4.642643,0 8.406779,-3.612356 8.406779,-8.067797 h 16.813559 c 4.642645,0 8.406781,-3.612356 8.406781,-8.067797 0,-4.065161 -3.132052,-7.425902 -7.204086,-7.985101 z M 89.220339,83.355934 H 64.000001 38.779661 c -2.31922,0 -4.203389,-1.808194 -4.203389,-4.033898 0,-1.99325 1.547372,-3.710682 3.596,-3.990534 1.28466,-0.177491 2.409593,-0.914182 3.054288,-1.993249 1.116525,-1.87526 2.110101,-5.140702 3.201932,-8.906849 1.945119,-6.720476 4.88434,-16.876319 12.979017,-20.205294 1.814288,-0.744758 2.84044,-2.595813 2.475271,-4.45544 -0.05727,-0.299013 -0.08617,-0.555166 -0.08617,-0.787619 0,-2.225704 1.884169,-4.033898 4.20339,-4.033898 2.31922,0 4.20339,1.808194 4.20339,4.033898 0,0.232453 -0.0289,0.488606 -0.08617,0.788122 -0.365169,1.859628 0.660983,3.710683 2.475271,4.455441 8.094679,3.328975 11.0339,13.484314 12.983746,20.212856 1.087628,3.758081 2.081204,7.024028 3.19773,8.898783 0.644694,1.079571 1.769101,1.816262 3.054288,1.993249 2.048101,0.279852 3.595474,1.997284 3.595474,3.990534 0,2.225704 -1.884169,4.033898 -4.20339,4.033898 z"
     fill="#ffa000"
     id="path879"
     style="fill:#ffffff;stroke-width:0.514722" />
</svg>
