<?xml version="1.0" encoding="UTF-8" standalone="no"?>
<svg
   xmlns:dc="http://purl.org/dc/elements/1.1/"
   xmlns:cc="http://creativecommons.org/ns#"
   xmlns:rdf="http://www.w3.org/1999/02/22-rdf-syntax-ns#"
   xmlns:svg="http://www.w3.org/2000/svg"
   xmlns="http://www.w3.org/2000/svg"
   xmlns:sodipodi="http://sodipodi.sourceforge.net/DTD/sodipodi-0.dtd"
   xmlns:inkscape="http://www.inkscape.org/namespaces/inkscape"
   id="Layer_1"
   data-name="Layer 1"
   width="128"
   height="128"
   viewBox="0 0 128 128"
   version="1.1"
   sodipodi:docname="ScalabilityModel.svg"
   inkscape:version="1.0.2-2 (e86c870879, 2021-01-15)"
   inkscape:export-filename="C:\Users\ammoussaoui\modelio\eclipse\modules\CamelDesigner\src\main\conf\res\icon\gui\Measurement_48.png"
   inkscape:export-xdpi="36.157539"
   inkscape:export-ydpi="36.157539">
  <metadata
     id="metadata25">
    <rdf:RDF>
      <cc:Work
         rdf:about="">
        <dc:format>image/svg+xml</dc:format>
        <dc:type
           rdf:resource="http://purl.org/dc/dcmitype/StillImage" />
        <dc:title>Generic-GCP</dc:title>
      </cc:Work>
    </rdf:RDF>
  </metadata>
  <defs
     id="defs23">
    <filter
       inkscape:collect="always"
       style="color-interpolation-filters:sRGB"
       id="filter1015"
       x="-1.0787319e-05"
       width="1.0000216"
       y="-1.0812709e-05"
       height="1.0000216">
      <feGaussianBlur
         inkscape:collect="always"
         stdDeviation="0.00057416526"
         id="feGaussianBlur1017" />
    </filter>
    <pattern
       y="0"
       x="0"
       height="6"
       width="6"
       patternUnits="userSpaceOnUse"
       id="EMFhbasepattern" />
    <pattern
       y="0"
       x="0"
       height="6"
       width="6"
       patternUnits="userSpaceOnUse"
       id="EMFhbasepattern-3" />
    <pattern
       y="0"
       x="0"
       height="6"
       width="6"
       patternUnits="userSpaceOnUse"
       id="EMFhbasepattern-2" />
    <pattern
       y="0"
       x="0"
       height="6"
       width="6"
       patternUnits="userSpaceOnUse"
       id="EMFhbasepattern-1" />
    <pattern
       y="0"
       x="0"
       height="6"
       width="6"
       patternUnits="userSpaceOnUse"
       id="EMFhbasepattern-5" />
  </defs>
  <sodipodi:namedview
     pagecolor="#ffffff"
     bordercolor="#666666"
     borderopacity="1"
     objecttolerance="10"
     gridtolerance="10"
     guidetolerance="10"
     inkscape:pageopacity="0"
     inkscape:pageshadow="2"
     inkscape:window-width="1366"
     inkscape:window-height="705"
     id="namedview21"
     showgrid="false"
     inkscape:zoom="1.84375"
     inkscape:cx="60.760554"
     inkscape:cy="27.906078"
     inkscape:window-x="-8"
     inkscape:window-y="-8"
     inkscape:window-maximized="1"
     inkscape:current-layer="Layer_1"
     inkscape:document-rotation="0" />
  <title
     id="title2">Generic-GCP</title>
  <path
     style="opacity:0.981;fill:#bcec4c;fill-opacity:0.960784;stroke-width:0.202048;filter:url(#filter1015)"
     d="M 37.992121,127.48372 C 34.815778,126.92021 31.732259,125.21609 29.824934,122.9701 29.009957,122.0104 25.881855,116.29049 15.315617,96.439004 0.52753456,68.655656 0.51445756,68.630448 0.01805956,66.948442 c -0.530496,-1.797546 -0.553767,-5.245046 -0.04815,-7.131801 C 0.26039756,58.732672 3.9506226,51.187854 13.506246,32.14101 26.18654,6.865891 26.691907,5.8994242 28.043811,4.3394151 c 1.615593,-1.8642952 3.607511,-3.1015652 6.139857,-3.81373329 1.472312,-0.4140573 2.165474,-0.4244576 28.085337,-0.4213887 28.942115,0.00346 27.555265,-0.051665 30.335515,1.20497549 1.81728,0.8213911 3.63914,2.1654422 4.73169,3.4907287 0.66684,0.8088912 5.13619,8.9800947 14.89632,27.2345647 7.669,14.343437 14.12787,26.597751 14.35304,27.231832 0.97213,2.737616 1.01765,6.353161 0.11388,9.045318 -0.20033,0.596725 -6.26268,12.864322 -13.4719,27.261312 -10.28961,20.548666 -13.323669,26.441056 -14.112439,27.407566 -1.297281,1.5896 -3.254751,2.94675 -5.524691,3.83042 l -1.8097,0.7045 -26.65388,0.0267 c -14.659629,0.0147 -26.870257,-0.0117 -27.134724,-0.0585 z"
     id="path8"
     inkscape:connector-curvature="0"
     inkscape:export-filename="C:\Users\ammoussaoui\modelio\eclipse\modules\CamelDesigner\src\main\conf\res\icon\gui\DataMeasurement_48.png"
     inkscape:export-xdpi="36.074654"
     inkscape:export-ydpi="36.074654" />
  <g
     inkscape:label="Guides"
     id="layer1"
     transform="matrix(15.511872,-0.27478036,0.23435691,11.13372,-54.182258,-3214.3496)"
     style="fill:#808000">
    <rect
       style="opacity:1;fill:#808000;fill-opacity:1;fill-rule:nonzero;stroke:none;stroke-width:0.264583;stroke-linecap:round;stroke-linejoin:miter;stroke-miterlimit:4;stroke-dasharray:none;stroke-dashoffset:1.8;stroke-opacity:1;paint-order:normal"
       id="rect1018"
       width="1.1375024"
       height="1.2759935"
       x="0.9124797"
       y="294.56543"
       ry="0.13229167"
       rx="0.13229167" />
    <rect
       rx="0.13229167"
       ry="0.13229167"
       y="293.62143"
       x="2.1041789"
       height="2.2200289"
       width="1.1375024"
       id="rect1021"
       style="opacity:1;fill:#808000;fill-opacity:1;fill-rule:nonzero;stroke:none;stroke-width:0.264583;stroke-linecap:round;stroke-linejoin:miter;stroke-miterlimit:4;stroke-dasharray:none;stroke-dashoffset:1.8;stroke-opacity:1;paint-order:normal" />
    <rect
       style="opacity:1;fill:#808000;fill-opacity:1;fill-rule:nonzero;stroke:none;stroke-width:0.264583;stroke-linecap:round;stroke-linejoin:miter;stroke-miterlimit:4;stroke-dasharray:none;stroke-dashoffset:1.8;stroke-opacity:1;paint-order:normal"
       id="rect1023"
       width="0.96933711"
       height="3.1139381"
       x="3.2862177"
       y="292.72751"
       ry="0.13229167"
       rx="0.13229167" />
    <rect
       rx="0.13229167"
       ry="0.13229167"
       y="291.80853"
       x="4.3000178"
       height="4.0329103"
       width="1.1375024"
       id="rect1025"
       style="opacity:1;fill:#808000;fill-opacity:1;fill-rule:nonzero;stroke:none;stroke-width:0.264583;stroke-linecap:round;stroke-linejoin:miter;stroke-miterlimit:4;stroke-dasharray:none;stroke-dashoffset:1.8;stroke-opacity:1;paint-order:normal" />
  </g>
  <path
     d="M 82.984911,14.608478 A 2.9790873,2.6263328 0 0 0 81.376204,13.190258 2.9790873,2.6263328 0 0 0 80.24415,12.980152 H 65.348715 a 2.9790875,2.626333 0 0 0 0,5.252666 h 7.715836 L 56.411453,32.914017 46.610256,24.247119 a 2.9790873,2.6263328 0 0 0 -4.230304,0 L 24.505429,40.005117 a 2.9790873,2.6263328 0 0 0 0,3.729391 2.9790873,2.6263328 0 0 0 4.230303,0 l 15.759372,-13.919563 9.801197,8.666899 a 2.9790873,2.6263328 0 0 0 4.230305,0 L 77.265064,21.935947 v 6.802201 a 2.9790873,2.6263328 0 0 0 5.958174,0 V 15.606485 a 2.9790873,2.6263328 0 0 0 -0.238327,-0.998007 z"
     id="path1193"
     style="opacity:0.999;fill:#4a4a00;fill-opacity:1;stroke-width:2.79716" />
</svg>
