<?xml version="1.0" encoding="UTF-8" standalone="no"?>
<svg
   xmlns:dc="http://purl.org/dc/elements/1.1/"
   xmlns:cc="http://creativecommons.org/ns#"
   xmlns:rdf="http://www.w3.org/1999/02/22-rdf-syntax-ns#"
   xmlns:svg="http://www.w3.org/2000/svg"
   xmlns="http://www.w3.org/2000/svg"
   xmlns:sodipodi="http://sodipodi.sourceforge.net/DTD/sodipodi-0.dtd"
   xmlns:inkscape="http://www.inkscape.org/namespaces/inkscape"
   id="Layer_1"
   data-name="Layer 1"
   width="128"
   height="128"
   viewBox="0 0 128 128"
   version="1.1"
   sodipodi:docname="SecurityDomain.svg"
   inkscape:version="1.0.2-2 (e86c870879, 2021-01-15)"
   inkscape:export-filename="C:\Users\ammoussaoui\modelio\eclipse\modules\CamelDesigner\src\main\conf\res\icon\gui\SecurityDomain_48.png"
   inkscape:export-xdpi="36.074642"
   inkscape:export-ydpi="36.074642">
  <metadata
     id="metadata25">
    <rdf:RDF>
      <cc:Work
         rdf:about="">
        <dc:format>image/svg+xml</dc:format>
        <dc:type
           rdf:resource="http://purl.org/dc/dcmitype/StillImage" />
        <dc:title>Generic-GCP</dc:title>
      </cc:Work>
    </rdf:RDF>
  </metadata>
  <defs
     id="defs23" />
  <sodipodi:namedview
     pagecolor="#ffffff"
     bordercolor="#666666"
     borderopacity="1"
     objecttolerance="10"
     gridtolerance="10"
     guidetolerance="10"
     inkscape:pageopacity="0"
     inkscape:pageshadow="2"
     inkscape:window-width="1366"
     inkscape:window-height="705"
     id="namedview21"
     showgrid="false"
     inkscape:zoom="1.84375"
     inkscape:cx="86.237288"
     inkscape:cy="59.363706"
     inkscape:window-x="-8"
     inkscape:window-y="-8"
     inkscape:window-maximized="1"
     inkscape:current-layer="Layer_1"
     inkscape:document-rotation="0" />
  <title
     id="title2">Generic-GCP</title>
  <path
     style="fill:#ffff00;fill-opacity:1;stroke-width:0.202906"
     d="m 38.535557,128.56791 c -3.16675,-0.5683 -6.22126,-2.28693 -8.09035,-4.55204 -0.79864,-0.96786 -3.82937,-6.73646 -14.05767,-26.756896 C 2.0724166,69.239143 2.0597766,69.213721 1.5920066,67.517398 c -0.49989,-1.812847 -0.46448,-5.28969 0.0733,-7.192505 0.30894,-1.093195 4.12761,-8.702231 14.0074704,-27.911196 13.11056,-25.4902518 13.63238,-26.4649458 15.01084,-28.0382328 1.64733,-1.880163 3.66031,-3.1279651 6.20478,-3.84619406 1.47936,-0.417582 2.1727,-0.428071 28.09251,-0.424976 28.94206,0.0035 27.55615,-0.0521 30.315,1.21523196 1.8033,0.8283831 3.60228,2.1838741 4.672267,3.5204411 0.653076,0.815776 4.983316,9.0565298 14.432696,27.4663758 7.42483,14.465523 13.67509,26.824142 13.88946,27.46362 0.92553,2.760918 0.9095,6.407237 -0.0401,9.122309 -0.21048,0.601804 -6.48167,12.973818 -13.93597,27.493351 -10.63942,20.723547 -13.77379,26.666097 -14.579006,27.640827 -1.324337,1.60313 -3.304917,2.97184 -5.589897,3.86303 l -1.8217,0.71049 -26.65433,0.027 c -14.65988,0.0148 -26.87006,-0.0118 -27.13373,-0.059 z"
     id="path8"
     inkscape:connector-curvature="0"
     inkscape:export-filename="C:\Users\ammoussaoui\modelio\eclipse\modules\CamelDesigner\src\main\conf\res\icon\gui\SecurityControl_48.png"
     inkscape:export-xdpi="36.074642"
     inkscape:export-ydpi="36.074642" />
  <g
     id="g1468"
     style="fill:none;fill-rule:evenodd;stroke:none;stroke-width:1"
     transform="matrix(3.3276836,0,0,3.1468926,27.050845,23.79661)">
    <polygon
       id="Path"
       points="24,24 0,24 0,0 24,0 " />
    <path
       d="M 12,7 V 5 C 12,3.9 11.1,3 10,3 H 4 C 2.9,3 2,3.9 2,5 v 14 c 0,1.1 0.9,2 2,2 h 16 c 1.1,0 2,-0.9 2,-2 V 9 C 22,7.9 21.1,7 20,7 Z M 6,19 H 4 V 17 H 6 Z M 6,15 H 4 V 13 H 6 Z M 6,11 H 4 V 9 H 6 Z M 6,7 H 4 V 5 h 2 z m 4,12 H 8 v -2 h 2 z m 0,-4 H 8 v -2 h 2 z m 0,-4 H 8 V 9 h 2 z M 10,7 H 8 V 5 h 2 z m 9,12 h -7 v -2 h 2 v -2 h -2 v -2 h 2 V 11 H 12 V 9 h 7 c 0.55,0 1,0.45 1,1 v 8 c 0,0.55 -0.45,1 -1,1 z m -1,-8 h -2 v 2 h 2 z m 0,4 h -2 v 2 h 2 z"
       id="🔹-Icon-Color"
       fill="#1d1d1d" />
  </g>
</svg>
