<?xml version="1.0" encoding="UTF-8" standalone="no"?>
<svg
   xmlns:sketch="http://www.bohemiancoding.com/sketch/ns"
   xmlns:dc="http://purl.org/dc/elements/1.1/"
   xmlns:cc="http://creativecommons.org/ns#"
   xmlns:rdf="http://www.w3.org/1999/02/22-rdf-syntax-ns#"
   xmlns:svg="http://www.w3.org/2000/svg"
   xmlns="http://www.w3.org/2000/svg"
   xmlns:sodipodi="http://sodipodi.sourceforge.net/DTD/sodipodi-0.dtd"
   xmlns:inkscape="http://www.inkscape.org/namespaces/inkscape"
   id="Layer_1"
   data-name="Layer 1"
   width="128"
   height="128"
   viewBox="0 0 128 128"
   version="1.1"
   sodipodi:docname="SecurityAttribute.svg"
   inkscape:version="1.0.2-2 (e86c870879, 2021-01-15)"
   inkscape:export-filename="C:\Users\ammoussaoui\modelio\eclipse\modules\CamelDesigner\src\main\conf\res\icon\gui\SLOViolation_24.png"
   inkscape:export-xdpi="18.037327"
   inkscape:export-ydpi="18.037327">
  <metadata
     id="metadata25">
    <rdf:RDF>
      <cc:Work
         rdf:about="">
        <dc:format>image/svg+xml</dc:format>
        <dc:type
           rdf:resource="http://purl.org/dc/dcmitype/StillImage" />
        <dc:title>Generic-GCP</dc:title>
      </cc:Work>
    </rdf:RDF>
  </metadata>
  <defs
     id="defs23" />
  <sodipodi:namedview
     pagecolor="#ffffff"
     bordercolor="#666666"
     borderopacity="1"
     objecttolerance="10"
     gridtolerance="10"
     guidetolerance="10"
     inkscape:pageopacity="0"
     inkscape:pageshadow="2"
     inkscape:window-width="1366"
     inkscape:window-height="705"
     id="namedview21"
     showgrid="false"
     inkscape:zoom="1.84375"
     inkscape:cx="83.340067"
     inkscape:cy="81.058621"
     inkscape:window-x="-8"
     inkscape:window-y="-8"
     inkscape:window-maximized="1"
     inkscape:current-layer="Layer_1"
     inkscape:document-rotation="0" />
  <title
     id="title2">Generic-GCP</title>
  <path
     style="fill:#ffff00;fill-opacity:1;stroke-width:0.202906"
     d="m 37.450813,128.56792 c -3.16675,-0.5683 -6.22126,-2.28693 -8.09035,-4.55204 -0.79864,-0.96786 -3.82937,-6.73646 -14.05767,-26.756905 C 0.98767624,69.239144 0.97502824,69.213722 0.50726324,67.517399 c -0.499895,-1.812847 -0.464479,-5.28969 0.07326,-7.192505 C 0.88946424,59.231699 4.7081272,51.622663 14.58799,32.413698 27.69855,6.9234462 28.22037,5.9487531 29.59883,4.3754658 c 1.64733,-1.8801635 3.66031,-3.1279647 6.20478,-3.84619454 1.47936,-0.4175816 2.1727,-0.4280704 28.09251,-0.4249754 28.94206,0.00349 27.55615,-0.052105 30.315,1.21523184 1.8033,0.8283825 3.60228,2.1838737 4.67227,3.5204405 0.653074,0.8157762 4.98332,9.0565298 14.4327,27.4663758 7.42483,14.465523 13.67509,26.824142 13.88946,27.46362 0.92553,2.760918 0.9095,6.407237 -0.0401,9.122309 -0.21048,0.601804 -6.48167,12.973818 -13.93597,27.493351 -10.63942,20.723556 -13.773796,26.666106 -14.57901,27.640836 -1.32434,1.60313 -3.30492,2.97184 -5.5899,3.86303 l -1.8217,0.71049 -26.65433,0.027 c -14.65988,0.0148 -26.87006,-0.0118 -27.13373,-0.059 z"
     id="path8"
     inkscape:connector-curvature="0"
     inkscape:export-filename="C:\Users\ammoussaoui\modelio\eclipse\modules\CamelDesigner\src\main\conf\res\icon\gui\SecurityAttribute_24.png"
     inkscape:export-xdpi="18.037327"
     inkscape:export-ydpi="18.037327" />
  <text
     xml:space="preserve"
     style="font-style:normal;font-variant:normal;font-weight:bold;font-stretch:normal;font-size:50.6667px;line-height:18.6954px;font-family:sans-serif;-inkscape-font-specification:'sans-serif, Bold';font-variant-ligatures:normal;font-variant-caps:normal;font-variant-numeric:normal;font-feature-settings:normal;text-align:start;letter-spacing:0px;word-spacing:0px;writing-mode:lr-tb;text-anchor:start;fill:#000000;fill-opacity:1;stroke:none;stroke-width:0.747817"
     x="26.948795"
     y="63.69791"
     id="use18"
     transform="scale(0.74781653,1.3372264)"><tspan
       sodipodi:role="line"
       id="tspan20"
       x="26.948795"
       y="63.69791"
       style="font-style:normal;font-variant:normal;font-weight:bold;font-stretch:normal;font-size:50.6667px;font-family:sans-serif;-inkscape-font-specification:'sans-serif, Bold';font-variant-ligatures:normal;font-variant-caps:normal;font-variant-numeric:normal;font-feature-settings:normal;text-align:start;writing-mode:lr-tb;text-anchor:start;fill:#000000;stroke-width:0.747817" /></text>
  <path
     d="M 72.837645,34.771186 H 42.862921 c -3.158436,0 -5.718853,1.746488 -5.718853,3.902512 V 83.3602 c 0,2.155298 2.544024,3.902508 5.703611,3.902508 h 42.847016 c 3.15002,0 5.70361,-1.746238 5.70361,-3.870362 V 49.352165 48.3801 L 74.265388,34.771186 Z m -1.427743,1.944131 H 42.842411 c -1.570067,0 -2.842857,0.88509 -2.842857,1.935298 v 44.732667 c 0,1.068837 1.298415,1.935299 2.855372,1.935299 h 42.832519 c 1.57698,0 2.85537,-0.865033 2.85537,-1.931296 V 50.324231 h -11.4279 c -3.150792,0 -5.705013,-1.723579 -5.705013,-3.899769 z m 2.855486,0.972065 v 8.73151 c 0,1.083145 1.286828,1.961208 2.846175,1.961208 h 10.574472 z m -14.277431,18.46924 v 1.944131 h 22.843888 v -1.944131 z m -14.27743,-1.94413 v 5.832391 h 8.566458 v -5.832391 z m 2.855486,1.94413 v 1.944131 h 2.855486 v -1.944131 z m -2.855486,7.776523 v 5.832391 h 8.566458 v -5.832391 z m 2.855486,1.94413 v 1.944131 h 2.855486 v -1.944131 z m 11.421944,0 v 1.944131 h 22.843888 v -1.944131 z m -14.27743,7.776522 v 5.832392 h 8.566458 v -5.832392 z m 2.855486,1.944131 v 1.944131 h 2.855486 v -1.944131 z m 11.421944,0 v 1.944131 h 22.843888 v -1.944131 z"
     id="document-list"
     sketch:type="MSShapeGroup"
     style="fill:#000000;fill-rule:evenodd;stroke:none;stroke-width:2.35615" />
</svg>
