<?xml version="1.0" encoding="UTF-8" standalone="no"?>
<svg
   xmlns:dc="http://purl.org/dc/elements/1.1/"
   xmlns:cc="http://creativecommons.org/ns#"
   xmlns:rdf="http://www.w3.org/1999/02/22-rdf-syntax-ns#"
   xmlns:svg="http://www.w3.org/2000/svg"
   xmlns="http://www.w3.org/2000/svg"
   xmlns:sodipodi="http://sodipodi.sourceforge.net/DTD/sodipodi-0.dtd"
   xmlns:inkscape="http://www.inkscape.org/namespaces/inkscape"
   id="Layer_1"
   data-name="Layer 1"
   width="128"
   height="128"
   viewBox="0 0 128 128"
   version="1.1"
   sodipodi:docname="SecurityControl.svg"
   inkscape:version="1.0.2-2 (e86c870879, 2021-01-15)"
   inkscape:export-filename="C:\Users\ammoussaoui\modelio\eclipse\modules\CamelDesigner\src\main\conf\res\icon\gui\CompositeSecurityMetric_24.png"
   inkscape:export-xdpi="18.037321"
   inkscape:export-ydpi="18.037321">
  <metadata
     id="metadata25">
    <rdf:RDF>
      <cc:Work
         rdf:about="">
        <dc:format>image/svg+xml</dc:format>
        <dc:type
           rdf:resource="http://purl.org/dc/dcmitype/StillImage" />
        <dc:title>Generic-GCP</dc:title>
      </cc:Work>
    </rdf:RDF>
  </metadata>
  <defs
     id="defs23" />
  <sodipodi:namedview
     pagecolor="#ffffff"
     bordercolor="#666666"
     borderopacity="1"
     objecttolerance="10"
     gridtolerance="10"
     guidetolerance="10"
     inkscape:pageopacity="0"
     inkscape:pageshadow="2"
     inkscape:window-width="1366"
     inkscape:window-height="705"
     id="namedview21"
     showgrid="false"
     inkscape:zoom="1.84375"
     inkscape:cx="86.237288"
     inkscape:cy="59.363706"
     inkscape:window-x="-8"
     inkscape:window-y="-8"
     inkscape:window-maximized="1"
     inkscape:current-layer="Layer_1"
     inkscape:document-rotation="0" />
  <title
     id="title2">Generic-GCP</title>
  <path
     style="fill:#ffff00;fill-opacity:1;stroke-width:0.202906"
     d="m 38.535557,128.56791 c -3.16675,-0.5683 -6.22126,-2.28693 -8.09035,-4.55204 -0.79864,-0.96786 -3.82937,-6.73646 -14.05767,-26.756896 C 2.0724166,69.239143 2.0597766,69.213721 1.5920066,67.517398 c -0.49989,-1.812847 -0.46448,-5.28969 0.0733,-7.192505 0.30894,-1.093195 4.12761,-8.702231 14.0074704,-27.911196 13.11056,-25.4902518 13.63238,-26.4649458 15.01084,-28.0382328 1.64733,-1.880163 3.66031,-3.1279651 6.20478,-3.84619406 1.47936,-0.417582 2.1727,-0.428071 28.09251,-0.424976 28.94206,0.0035 27.55615,-0.0521 30.315,1.21523196 1.8033,0.8283831 3.60228,2.1838741 4.672267,3.5204411 0.653076,0.815776 4.983316,9.0565298 14.432696,27.4663758 7.42483,14.465523 13.67509,26.824142 13.88946,27.46362 0.92553,2.760918 0.9095,6.407237 -0.0401,9.122309 -0.21048,0.601804 -6.48167,12.973818 -13.93597,27.493351 -10.63942,20.723547 -13.77379,26.666097 -14.579006,27.640827 -1.324337,1.60313 -3.304917,2.97184 -5.589897,3.86303 l -1.8217,0.71049 -26.65433,0.027 c -14.65988,0.0148 -26.87006,-0.0118 -27.13373,-0.059 z"
     id="path8"
     inkscape:connector-curvature="0"
     inkscape:export-filename="C:\Users\ammoussaoui\modelio\eclipse\modules\CamelDesigner\src\main\conf\res\icon\gui\SecurityControl_48.png"
     inkscape:export-xdpi="36.074642"
     inkscape:export-ydpi="36.074642" />
  <g
     id="g1440"
     transform="matrix(0.01206316,1.3382187,-1.3028218,0.01239091,97.082527,26.455375)">
    <g
       id="Layer_1-4">
	<path
   d="M 44,19.09 V 1 h -2 v 18.09 c -2.833,0.478 -5,2.942 -5,5.91 0,2.968 2.167,5.431 5,5.91 V 49 h 2 V 30.91 c 2.833,-0.478 5,-2.942 5,-5.91 0,-2.968 -2.167,-5.431 -5,-5.91 z M 43,29 c -2.206,0 -4,-1.794 -4,-4 0,-2.206 1.794,-4 4,-4 2.206,0 4,1.794 4,4 0,2.206 -1.794,4 -4,4 z"
   id="path1418" />

	<path
   d="M 6,1 V 8.09 C 3.167,8.569 1,11.033 1,14 c 0,2.967 2.167,5.431 5,5.91 V 49 H 8 V 19.91 C 10.833,19.432 13,16.968 13,14 13,11.032 10.833,8.569 8,8.09 V 1 Z m 5,13 c 0,2.206 -1.794,4 -4,4 -2.206,0 -4,-1.794 -4,-4 0,-2.206 1.794,-4 4,-4 2.206,0 4,1.794 4,4 z"
   id="path1420" />

	<path
   d="m 24,1 v 30.09 c -2.833,0.478 -5,2.942 -5,5.91 0,2.968 2.167,5.431 5,5.91 V 49 h 2 v -6.09 c 2.833,-0.478 5,-2.942 5,-5.91 0,-2.968 -2.167,-5.431 -5,-5.91 V 1 Z m 5,36 c 0,2.206 -1.794,4 -4,4 -2.206,0 -4,-1.794 -4,-4 0,-2.206 1.794,-4 4,-4 2.206,0 4,1.794 4,4 z"
   id="path1422" />

</g>
    <g
       id="g1425">
</g>
  </g>
</svg>
