<?xml version="1.0" encoding="UTF-8" standalone="no"?>
<svg
   xmlns:dc="http://purl.org/dc/elements/1.1/"
   xmlns:cc="http://creativecommons.org/ns#"
   xmlns:rdf="http://www.w3.org/1999/02/22-rdf-syntax-ns#"
   xmlns:svg="http://www.w3.org/2000/svg"
   xmlns="http://www.w3.org/2000/svg"
   xmlns:sodipodi="http://sodipodi.sourceforge.net/DTD/sodipodi-0.dtd"
   xmlns:inkscape="http://www.inkscape.org/namespaces/inkscape"
   id="Layer_1"
   data-name="Layer 1"
   width="128"
   height="128"
   viewBox="0 0 128 128"
   version="1.1"
   sodipodi:docname="SecurityMetricInstance.svg"
   inkscape:version="1.0.2-2 (e86c870879, 2021-01-15)"
   inkscape:export-filename="C:\Users\ammoussaoui\modelio\eclipse\modules\CamelDesigner\src\main\conf\res\icon\gui\SecurityMetricInstance_24.png"
   inkscape:export-xdpi="18.037327"
   inkscape:export-ydpi="18.037327">
  <metadata
     id="metadata25">
    <rdf:RDF>
      <cc:Work
         rdf:about="">
        <dc:format>image/svg+xml</dc:format>
        <dc:type
           rdf:resource="http://purl.org/dc/dcmitype/StillImage" />
        <dc:title>Generic-GCP</dc:title>
      </cc:Work>
    </rdf:RDF>
  </metadata>
  <defs
     id="defs23" />
  <sodipodi:namedview
     pagecolor="#ffffff"
     bordercolor="#666666"
     borderopacity="1"
     objecttolerance="10"
     gridtolerance="10"
     guidetolerance="10"
     inkscape:pageopacity="0"
     inkscape:pageshadow="2"
     inkscape:window-width="1366"
     inkscape:window-height="705"
     id="namedview21"
     showgrid="false"
     inkscape:zoom="1.84375"
     inkscape:cx="83.340067"
     inkscape:cy="15.973875"
     inkscape:window-x="-8"
     inkscape:window-y="-8"
     inkscape:window-maximized="1"
     inkscape:current-layer="Layer_1"
     inkscape:document-rotation="0" />
  <title
     id="title2">Generic-GCP</title>
  <path
     style="fill:#ffff00;fill-opacity:1;stroke-width:0.202906"
     d="m 37.450813,128.56792 c -3.16675,-0.5683 -6.22126,-2.28693 -8.09035,-4.55204 -0.79864,-0.96786 -3.82937,-6.73646 -14.05767,-26.756905 C 0.98767624,69.239144 0.97502824,69.213722 0.50726324,67.517399 c -0.499895,-1.812847 -0.464479,-5.28969 0.07326,-7.192505 C 0.88946424,59.231699 4.7081272,51.622663 14.58799,32.413698 27.69855,6.9234462 28.22037,5.9487531 29.59883,4.3754658 c 1.64733,-1.8801635 3.66031,-3.1279647 6.20478,-3.84619454 1.47936,-0.4175816 2.1727,-0.4280704 28.09251,-0.4249754 28.94206,0.00349 27.55615,-0.052105 30.315,1.21523184 1.8033,0.8283825 3.60228,2.1838737 4.67227,3.5204405 0.653074,0.8157762 4.98332,9.0565298 14.4327,27.4663758 7.42483,14.465523 13.67509,26.824142 13.88946,27.46362 0.92553,2.760918 0.9095,6.407237 -0.0401,9.122309 -0.21048,0.601804 -6.48167,12.973818 -13.93597,27.493351 -10.63942,20.723556 -13.773796,26.666106 -14.57901,27.640836 -1.32434,1.60313 -3.30492,2.97184 -5.5899,3.86303 l -1.8217,0.71049 -26.65433,0.027 c -14.65988,0.0148 -26.87006,-0.0118 -27.13373,-0.059 z"
     id="path8"
     inkscape:connector-curvature="0"
     inkscape:export-filename="C:\Users\ammoussaoui\modelio\eclipse\modules\CamelDesigner\src\main\conf\res\icon\gui\SecuritySLO_48.png"
     inkscape:export-xdpi="36.074654"
     inkscape:export-ydpi="36.074654" />
  <path
     d="m 113.48267,101.76647 -0.90731,-0.69398 c -2.26448,-1.707525 -4.94492,-1.707001 -7.20904,0.001 l -1.23075,0.9415 -1.23253,-0.9428 c -2.26447,-1.70753 -4.944909,-1.707006 -7.209039,0.001 l -0.90572,0.69293 c -0.4781,0.36396 -0.77807,1.09293 -0.77701,1.88821 v 17.49017 c 0,0.7415 0.26112,1.42947 0.68927,1.81536 0.42814,0.38589 0.96133,0.41408 1.40695,0.0744 2.00442,-1.51198 4.377299,-1.5125 6.381889,-0.002 l 1.4382,1.10049 c 0.005,0.004 0.0111,0.007 0.0164,0.0107 0.007,0.005 0.0144,0.01 0.0219,0.0144 0.0112,0.007 0.0226,0.0123 0.0337,0.0175 0.007,0.003 0.0143,0.007 0.0215,0.01 0.0127,0.005 0.0254,0.009 0.0383,0.0118 0.006,0.002 0.0122,0.003 0.0183,0.005 0.0381,0.007 0.0768,0.007 0.11493,0 0.006,-8.2e-4 0.0124,-0.003 0.0186,-0.005 0.0127,-0.003 0.0254,-0.007 0.0381,-0.0118 0.007,-0.003 0.0143,-0.007 0.0215,-0.01 0.0114,-0.005 0.0226,-0.011 0.0339,-0.0175 0.007,-0.005 0.0145,-0.009 0.0217,-0.0144 0.005,-0.004 0.0111,-0.007 0.0164,-0.0107 l 1.43662,-1.09893 c 2.00441,-1.51198 4.37729,-1.51249 6.38188,-0.002 0.4458,0.34124 0.97934,0.31382 1.40802,-0.0718 0.42867,-0.38589 0.69032,-1.07439 0.69032,-1.8164 v -17.48928 c 0.001,-0.79528 -0.2989,-1.5245 -0.77718,-1.8882 z m -14.182729,18.79771 c -1.25353,-5.7e-4 -2.48941,0.43836 -3.60594,1.28169 -0.16543,0.12663 -0.36352,0.11645 -0.5226,-0.0269 -0.15907,-0.14308 -0.25617,-0.39869 -0.25617,-0.67413 v -17.49016 c -5.8e-4,-0.2953 0.11105,-0.56579 0.28848,-0.70077 l 0.90396,-0.69163 c 2.00441,-1.51171 4.377289,-1.51223 6.381879,-0.001 l 1.19404,0.91356 v 19.26687 l -0.78055,-0.59684 c -1.11564,-0.84255 -2.35046,-1.28144 -3.603099,-1.2804 z m 14.055959,0.58066 c 0,0.27598 -0.0975,0.53185 -0.25706,0.67493 -0.15961,0.14307 -0.35805,0.15247 -0.52348,0.0248 -2.26448,-1.70753 -4.94492,-1.70702 -7.20904,8.2e-4 l -0.77878,0.5958 v -19.26666 l 1.19226,-0.91225 c 2.00442,-1.51171 4.3773,-1.51223 6.38189,-0.001 l 0.90572,0.69294 c 0.17743,0.13498 0.28902,0.40547 0.28849,0.70076 z m 0,0"
     id="path269"
     style="stroke-width:0.0549632" />
  <g
     id="g793"
     transform="matrix(-0.00143729,-0.19281454,0.13467539,-9.0251485e-4,30.933447,114.16111)">
    <g
       id="g709">
	<g
   id="g707">
		<path
   d="M 503.467,290.133 H 8.533 C 3.814,290.133 0,293.947 0,298.666 v 102.4 c 0,4.719 3.814,8.533 8.533,8.533 h 494.933 c 4.719,0 8.533,-3.814 8.533,-8.533 v -102.4 c 10e-4,-4.718 -3.813,-8.533 -8.532,-8.533 z m -8.534,102.4 H 17.067 V 307.2 h 25.6 l -0.009,17.067 c 0,4.71 3.814,8.533 8.533,8.533 4.71,0 8.533,-3.814 8.533,-8.533 L 59.733,307.2 h 34.133 v 34.133 c 0,4.719 3.814,8.533 8.533,8.533 4.719,0 8.533,-3.814 8.533,-8.533 V 307.2 h 34.133 v 17.067 c 0,4.719 3.814,8.533 8.533,8.533 4.719,0 8.533,-3.814 8.533,-8.533 V 307.2 h 34.133 v 34.133 c 0,4.719 3.814,8.533 8.533,8.533 4.719,0 8.533,-3.814 8.533,-8.533 V 307.2 h 34.133 v 17.067 c 0,4.719 3.814,8.533 8.533,8.533 4.719,0 8.533,-3.814 8.533,-8.533 V 307.2 h 34.133 v 34.133 c 0,4.719 3.814,8.533 8.533,8.533 4.719,0 8.533,-3.814 8.533,-8.533 V 307.2 h 34.133 v 17.067 c 0,4.719 3.814,8.533 8.533,8.533 4.719,0 8.533,-3.814 8.533,-8.533 V 307.2 h 34.133 v 34.133 c 0,4.719 3.814,8.533 8.533,8.533 4.719,0 8.533,-3.814 8.533,-8.533 V 307.2 h 34.15 l -0.009,17.067 c 0,4.71 3.814,8.533 8.533,8.533 4.71,0 8.533,-3.814 8.533,-8.533 l 0.009,-17.067 h 25.583 v 85.333 z"
   id="path705" />

	</g>

</g>
    <g
       id="g715">
	<g
   id="g713">
		<path
   d="M 8.533,102.4 C 3.814,102.4 0,106.214 0,110.933 V 256 c 0,4.719 3.814,8.533 8.533,8.533 4.719,0 8.533,-3.814 8.533,-8.533 v -68.267 -76.8 C 17.067,106.214 13.252,102.4 8.533,102.4 Z"
   id="path711" />

	</g>

</g>
    <g
       id="g721">
	<g
   id="g719">
		<path
   d="m 503.467,102.4 c -4.719,0 -8.533,3.814 -8.533,8.533 v 76.8 V 256 c 0,4.719 3.814,8.533 8.533,8.533 4.719,0 8.533,-3.814 8.533,-8.533 V 110.933 c 0,-4.719 -3.814,-8.533 -8.533,-8.533 z"
   id="path717" />

	</g>

</g>
    <g
       id="g727">
	<g
   id="g725">
		<path
   d="m 476.032,182.263 -39.62,-51.2 c -2.142,-2.765 -5.658,-3.763 -8.789,-2.56 -3.132,1.229 -5.222,4.437 -5.222,8.03 V 179.2 H 89.6 v -42.675 c 0,-3.593 -2.091,-6.801 -5.222,-8.021 -3.132,-1.22 -6.639,-0.213 -8.789,2.56 l -39.62,51.208 c -1.22,1.579 -1.835,3.524 -1.835,5.461 0,1.937 0.614,3.883 1.835,5.47 l 39.62,51.2 c 1.536,1.98 3.78,3.063 6.084,3.063 0.905,0 1.818,-0.171 2.697,-0.512 3.132,-1.229 5.222,-4.437 5.222,-8.021 v -42.667 h 332.8 v 42.667 c 0,3.593 2.091,6.801 5.222,8.021 0.879,0.341 1.792,0.512 2.697,0.512 2.304,0 4.548,-1.084 6.093,-3.063 l 39.62,-51.2 c 1.229,-1.587 1.843,-3.524 1.843,-5.47 0,-1.946 -0.615,-3.882 -1.835,-5.47 z M 73.754,215.364 52.369,187.733 73.754,160.102 Z m 364.492,0 v -55.262 l 21.385,27.631 z"
   id="path723" />

	</g>

</g>
    <g
       id="g729">
</g>
    <g
       id="g731">
</g>
    <g
       id="g733">
</g>
    <g
       id="g735">
</g>
    <g
       id="g737">
</g>
    <g
       id="g739">
</g>
    <g
       id="g741">
</g>
    <g
       id="g743">
</g>
    <g
       id="g745">
</g>
    <g
       id="g747">
</g>
    <g
       id="g749">
</g>
    <g
       id="g751">
</g>
    <g
       id="g753">
</g>
    <g
       id="g755">
</g>
    <g
       id="g757">
</g>
  </g>
</svg>
