<?xml version="1.0" encoding="UTF-8" standalone="no"?>
<svg
   id="Layer_1"
   data-name="Layer 1"
   width="128"
   height="128"
   viewBox="0 0 128 128"
   version="1.1"
   sodipodi:docname="Sequence.svg"
   inkscape:version="1.1.1 (3bf5ae0d25, 2021-09-20)"
   inkscape:export-filename="C:\Users\ammoussaoui\modelio\eclipse\modules\CamelDesigner\src\main\conf\res\icon\gui\Parallel_24.png"
   inkscape:export-xdpi="18.03631"
   inkscape:export-ydpi="18.03631"
   xmlns:inkscape="http://www.inkscape.org/namespaces/inkscape"
   xmlns:sodipodi="http://sodipodi.sourceforge.net/DTD/sodipodi-0.dtd"
   xmlns="http://www.w3.org/2000/svg"
   xmlns:svg="http://www.w3.org/2000/svg"
   xmlns:rdf="http://www.w3.org/1999/02/22-rdf-syntax-ns#"
   xmlns:cc="http://creativecommons.org/ns#"
   xmlns:dc="http://purl.org/dc/elements/1.1/">
  <metadata
     id="metadata25">
    <rdf:RDF>
      <cc:Work
         rdf:about="">
        <dc:format>image/svg+xml</dc:format>
        <dc:type
           rdf:resource="http://purl.org/dc/dcmitype/StillImage" />
        <dc:title>Generic-GCP</dc:title>
      </cc:Work>
    </rdf:RDF>
  </metadata>
  <defs
     id="defs23" />
  <sodipodi:namedview
     pagecolor="#ffffff"
     bordercolor="#666666"
     borderopacity="1"
     objecttolerance="10"
     gridtolerance="10"
     guidetolerance="10"
     inkscape:pageopacity="0"
     inkscape:pageshadow="2"
     inkscape:window-width="1920"
     inkscape:window-height="1001"
     id="namedview21"
     showgrid="false"
     inkscape:zoom="1.84375"
     inkscape:cx="-13.559322"
     inkscape:cy="92.474576"
     inkscape:window-x="-9"
     inkscape:window-y="1341"
     inkscape:window-maximized="1"
     inkscape:current-layer="Layer_1"
     inkscape:document-rotation="0"
     inkscape:pagecheckerboard="0" />
  <title
     id="title2">Generic-GCP</title>
  <path
     style="fill:#ff9955;fill-opacity:1;stroke-width:0.202048"
     d="m 38.534497,128.56847 c -3.17635,-0.56351 -6.25987,-2.26763 -8.16719,-4.51362 -0.81498,-0.9597 -3.94308,-6.67961 -14.50932,-26.531101 C 1.0699071,69.740399 1.0568271,69.715189 0.56043712,68.033189 c -0.5305,-1.79755 -0.55377,-5.24505 -0.0481,-7.1318 0.29049,-1.08397 3.98070998,-8.62879 13.53632988,-27.67563 12.6803,-25.2751217 13.18567,-26.2415887 14.53757,-27.8015977 1.61559,-1.864295 3.60751,-3.101565 6.13986,-3.813734 1.47231,-0.414057 2.16547,-0.424457 28.08533,-0.421388 28.94212,0.0035 27.55527,-0.05166 30.33552,1.204975 1.81728,0.821391 3.63914,2.165442 4.73169,3.490729 0.66684,0.808891 5.136193,8.9800947 14.896323,27.2345657 7.669,14.34344 14.12787,26.59775 14.35304,27.23183 0.97213,2.73762 1.01765,6.35316 0.11388,9.04532 -0.20033,0.59672 -6.26268,12.86432 -13.4719,27.26131 -10.28961,20.548671 -13.32367,26.441061 -14.112443,27.407571 -1.29728,1.5896 -3.25475,2.94675 -5.52469,3.83042 l -1.8097,0.7045 -26.65388,0.0267 c -14.65963,0.0147 -26.87026,-0.0117 -27.13473,-0.0585 z"
     id="path8"
     inkscape:connector-curvature="0"
     inkscape:export-filename="C:\Users\ammoussaoui\modelio\eclipse\modules\CamelDesigner\src\main\conf\res\icon\gui\DataMeasurement_48.png"
     inkscape:export-xdpi="36.074654"
     inkscape:export-ydpi="36.074654" />
  <path
     d="M 19.684741,85.593221 38.684615,63.728815 19.684741,41.864403 h 6.695194 L 45.379809,63.728815 26.379935,85.593221 Z m 22.799849,0 L 61.484463,63.728815 42.48459,41.864403 h 6.695193 L 68.179657,63.728815 49.179783,85.593221 Z"
     id="path6384"
     style="stroke-width:0.0840534" />
  <path
     d="M 64.701695,85.322035 83.701569,63.45763 64.701695,41.593218 h 6.695194 L 90.396763,63.45763 71.396889,85.322035 Z m 22.799849,0 L 106.50142,63.45763 87.501544,41.593218 h 6.695193 L 113.19661,63.45763 94.196737,85.322035 Z"
     id="path6384-3"
     style="stroke-width:0.0840534" />
</svg>
