<?xml version="1.0" encoding="UTF-8" standalone="no"?>
<svg
   xmlns:dc="http://purl.org/dc/elements/1.1/"
   xmlns:cc="http://creativecommons.org/ns#"
   xmlns:rdf="http://www.w3.org/1999/02/22-rdf-syntax-ns#"
   xmlns:svg="http://www.w3.org/2000/svg"
   xmlns="http://www.w3.org/2000/svg"
   xmlns:sodipodi="http://sodipodi.sourceforge.net/DTD/sodipodi-0.dtd"
   xmlns:inkscape="http://www.inkscape.org/namespaces/inkscape"
   id="Layer_1"
   data-name="Layer 1"
   width="128"
   height="128"
   viewBox="0 0 128 128"
   version="1.1"
   sodipodi:docname="SLOViolation.svg"
   inkscape:version="1.0.2-2 (e86c870879, 2021-01-15)"
   inkscape:export-filename="C:\Users\ammoussaoui\modelio\eclipse\modules\CamelDesigner\src\main\conf\res\icon\gui\SLOViolation_24.png"
   inkscape:export-xdpi="18.037327"
   inkscape:export-ydpi="18.037327">
  <metadata
     id="metadata25">
    <rdf:RDF>
      <cc:Work
         rdf:about="">
        <dc:format>image/svg+xml</dc:format>
        <dc:type
           rdf:resource="http://purl.org/dc/dcmitype/StillImage" />
        <dc:title>Generic-GCP</dc:title>
      </cc:Work>
    </rdf:RDF>
  </metadata>
  <defs
     id="defs23" />
  <sodipodi:namedview
     pagecolor="#ffffff"
     bordercolor="#666666"
     borderopacity="1"
     objecttolerance="10"
     gridtolerance="10"
     guidetolerance="10"
     inkscape:pageopacity="0"
     inkscape:pageshadow="2"
     inkscape:window-width="1366"
     inkscape:window-height="705"
     id="namedview21"
     showgrid="false"
     inkscape:zoom="1.84375"
     inkscape:cx="83.340067"
     inkscape:cy="81.058621"
     inkscape:window-x="-8"
     inkscape:window-y="-8"
     inkscape:window-maximized="1"
     inkscape:current-layer="Layer_1"
     inkscape:document-rotation="0" />
  <title
     id="title2">Generic-GCP</title>
  <path
     style="fill:#aaffc3;fill-opacity:1;stroke-width:0.202906"
     d="m 35.823694,128.56792 c -3.16675,-0.5683 -6.22126,-2.28693 -8.09035,-4.55204 -0.79864,-0.96786 -3.82937,-6.73646 -14.05767,-26.756905 C -0.6394424,69.239144 -0.6520904,69.213722 -1.1198554,67.517399 c -0.499895,-1.812847 -0.464479,-5.28969 0.07326,-7.192505 0.308941,-1.093195 4.127604,-8.702231 14.0074664,-27.911196 13.11056,-25.4902518 13.63238,-26.4649449 15.01084,-28.0382322 1.64733,-1.8801635 3.66031,-3.1279647 6.20478,-3.84619454 1.47936,-0.4175816 2.1727,-0.4280704 28.09251,-0.4249754 28.94206,0.00349 27.55615,-0.052105 30.315,1.21523184 1.8033,0.8283825 3.60228,2.1838737 4.67227,3.5204405 0.653074,0.8157762 4.983319,9.0565298 14.432699,27.4663758 7.42483,14.465523 13.67509,26.824142 13.88946,27.46362 0.92553,2.760918 0.9095,6.407237 -0.0401,9.122309 -0.21048,0.601804 -6.48167,12.973818 -13.93597,27.493351 -10.63942,20.723556 -13.773795,26.666106 -14.579009,27.640836 -1.32434,1.60313 -3.30492,2.97184 -5.5899,3.86303 l -1.8217,0.71049 -26.65433,0.027 c -14.65988,0.0148 -26.87006,-0.0118 -27.13373,-0.059 z"
     id="path8"
     inkscape:connector-curvature="0" />
  <text
     xml:space="preserve"
     style="font-style:normal;font-variant:normal;font-weight:bold;font-stretch:normal;font-size:50.6667px;line-height:18.6954px;font-family:sans-serif;-inkscape-font-specification:'sans-serif, Bold';font-variant-ligatures:normal;font-variant-caps:normal;font-variant-numeric:normal;font-feature-settings:normal;text-align:start;letter-spacing:0px;word-spacing:0px;writing-mode:lr-tb;text-anchor:start;fill:#000000;fill-opacity:1;stroke:none;stroke-width:0.747817;"
     x="32.246693"
     y="61.81284"
     id="text5085"
     transform="scale(0.74781653,1.3372264)"><tspan
       sodipodi:role="line"
       id="tspan5083"
       x="32.246693"
       y="61.81284"
       style="font-style:normal;font-variant:normal;font-weight:bold;font-stretch:normal;font-size:50.6667px;font-family:sans-serif;-inkscape-font-specification:'sans-serif, Bold';font-variant-ligatures:normal;font-variant-caps:normal;font-variant-numeric:normal;font-feature-settings:normal;text-align:start;writing-mode:lr-tb;text-anchor:start;stroke-width:0.747817;fill:#000000;">SLO</tspan></text>
  <g
     id="g495"
     transform="matrix(0.06527793,0,0,0.07031465,83.30742,87.173993)">
    <path
       d="M 493.09375,465.5625 277.29297,17.824219 c -7.96485,-15.921875 -27.32813,-22.375 -43.25391,-14.414063 -6.30859,3.15625 -11.40625,8.292969 -14.51562,14.625 L 3.914062,465.33594 C -4.050781,481.25781 2.394531,500.625 18.320312,508.58984 22.800781,510.83203 27.742188,512 32.753906,512 H 464.16016 c 17.80468,-0.004 32.23437,-14.44141 32.23046,-32.24609 -0.004,-4.92188 -1.1289,-9.77735 -3.29687,-14.19141 z M 464.16016,479.76172 32.863281,479.55078 248.35938,32.027344 464.23828,479.76172 Z m 0,0"
       id="path478" />
    <path
       d="m 232.33594,383.04687 h 32.23828 v 32.23829 h -32.23828 z m 0,0"
       id="path480" />
    <path
       d="m 232.33594,157.38281 h 32.23828 v 193.42578 h -32.23828 z m 0,0"
       id="path482" />
  </g>
</svg>
