<?xml version="1.0" encoding="UTF-8" standalone="no"?>
<svg
   id="Layer_1"
   data-name="Layer 1"
   width="128"
   height="128"
   viewBox="0 0 128 128"
   version="1.1"
   sodipodi:docname="Switch.svg"
   inkscape:version="1.1.1 (3bf5ae0d25, 2021-09-20)"
   inkscape:export-filename="C:\Users\ammoussaoui\modelio\eclipse\modules\CamelDesigner\src\main\conf\res\icon\gui\Switch_48.png"
   inkscape:export-xdpi="36.07262"
   inkscape:export-ydpi="36.07262"
   xmlns:inkscape="http://www.inkscape.org/namespaces/inkscape"
   xmlns:sodipodi="http://sodipodi.sourceforge.net/DTD/sodipodi-0.dtd"
   xmlns="http://www.w3.org/2000/svg"
   xmlns:svg="http://www.w3.org/2000/svg"
   xmlns:rdf="http://www.w3.org/1999/02/22-rdf-syntax-ns#"
   xmlns:cc="http://creativecommons.org/ns#"
   xmlns:dc="http://purl.org/dc/elements/1.1/">
  <metadata
     id="metadata25">
    <rdf:RDF>
      <cc:Work
         rdf:about="">
        <dc:format>image/svg+xml</dc:format>
        <dc:type
           rdf:resource="http://purl.org/dc/dcmitype/StillImage" />
        <dc:title>Generic-GCP</dc:title>
      </cc:Work>
    </rdf:RDF>
  </metadata>
  <defs
     id="defs23" />
  <sodipodi:namedview
     pagecolor="#ffffff"
     bordercolor="#666666"
     borderopacity="1"
     objecttolerance="10"
     gridtolerance="10"
     guidetolerance="10"
     inkscape:pageopacity="0"
     inkscape:pageshadow="2"
     inkscape:window-width="1920"
     inkscape:window-height="1001"
     id="namedview21"
     showgrid="false"
     inkscape:zoom="1.84375"
     inkscape:cx="-13.559322"
     inkscape:cy="92.474576"
     inkscape:window-x="-9"
     inkscape:window-y="1341"
     inkscape:window-maximized="1"
     inkscape:current-layer="Layer_1"
     inkscape:document-rotation="0"
     inkscape:pagecheckerboard="0" />
  <title
     id="title2">Generic-GCP</title>
  <path
     style="fill:#ff9955;fill-opacity:1;stroke-width:0.202048"
     d="m 35.822633,128.0261 c -3.17635,-0.56351 -6.25987,-2.26763 -8.16719,-4.51362 -0.81498,-0.9597 -3.94308,-6.67961 -14.50932,-26.531104 -14.7880803,-27.78335 -14.8011603,-27.80856 -15.2975503,-29.49056 -0.5305,-1.79755 -0.55377,-5.24505 -0.0481,-7.1318 0.29049,-1.08397 3.98071,-8.62879 13.5363303,-27.67563 12.6803,-25.2751216 13.18567,-26.2415886 14.53757,-27.8015976 1.61559,-1.864295 3.60751,-3.101565 6.13986,-3.813734 1.47231,-0.41405703 2.16547,-0.42445703 28.08533,-0.42138803 28.94212,0.0035 27.55527,-0.05166 30.33552,1.20497503 1.81728,0.821391 3.63914,2.165442 4.73169,3.490729 0.66684,0.808891 5.136197,8.9800946 14.896327,27.2345656 7.669,14.34344 14.12787,26.59775 14.35304,27.23183 0.97213,2.73762 1.01765,6.35316 0.11388,9.04532 -0.20033,0.59672 -6.26268,12.86432 -13.4719,27.26131 -10.28961,20.548674 -13.323674,26.441064 -14.112447,27.407574 -1.29728,1.5896 -3.25475,2.94675 -5.52469,3.83042 l -1.8097,0.7045 -26.65388,0.0267 c -14.65963,0.0147 -26.87026,-0.0117 -27.13473,-0.0585 z"
     id="path8"
     inkscape:connector-curvature="0"
     inkscape:export-filename="C:\Users\ammoussaoui\modelio\eclipse\modules\CamelDesigner\src\main\conf\res\icon\gui\DataMeasurement_48.png"
     inkscape:export-xdpi="36.074654"
     inkscape:export-ydpi="36.074654" />
  <path
     d="m 59.92021,67.973686 q 0.06051,-3.702765 0.998349,-5.399865 0.937831,-1.697101 3.539602,-3.70277 2.541252,-1.954237 3.902638,-3.625624 1.361385,-1.671387 1.361385,-3.574197 0,-2.314228 -1.81518,-3.857047 -1.815181,-1.542819 -5.082505,-1.542819 -3.146313,0 -4.840481,1.517106 -1.694181,1.517105 -2.480747,3.162778 l -5.082505,-1.90281 q 1.331132,-3.03421 4.507698,-5.168444 3.176566,-2.134232 7.896035,-2.134232 6.050601,0 9.317925,2.854214 3.267325,2.854216 3.267325,6.865545 0,2.46851 -1.240373,4.474175 -1.240373,2.005665 -3.963144,4.217038 -2.964795,2.417087 -3.569855,3.702768 -0.60506,1.285683 -0.665566,4.114184 z m 2.904289,12.856824 q -1.754675,0 -2.99506,-1.054259 -1.240361,-1.05426 -1.240361,-2.545651 0,-1.491392 1.240361,-2.545651 1.240385,-1.05426 2.99506,-1.05426 1.754674,0 2.995047,1.05426 1.240373,1.054259 1.240373,2.545651 0,1.491391 -1.240373,2.545651 -1.240373,1.054259 -2.995047,1.054259 z"
     id="path6789-1"
     style="stroke-width:0.0557822" />
  <path
     d="m 10.832404,57.549206 5.107945,-5.315375 9.795364,10.824733 0.279102,-19.915561 q -4.654858,-1.360184 -7.652572,-5.521022 -2.997714,-4.16084 -2.922086,-9.557315 0.09005,-6.424375 4.346654,-10.853854 4.256621,-4.429477 10.247475,-4.332928 5.03231,0.08112 8.820539,3.419323 3.78823,3.338223 4.916176,8.368543 l 39.300001,0.633358 q 1.268399,-4.991701 5.14846,-8.206341 3.880066,-3.214639 8.91239,-3.133539 5.990838,0.09656 10.121428,4.661194 4.13056,4.564647 4.04053,10.989021 -0.0757,5.396475 -3.18858,9.458836 -3.11296,4.06236 -7.80382,5.271928 l -0.27912,19.915562 10.09428,-10.504193 4.95668,5.477578 -18.852547,19.744752 -18.29074,-20.343357 5.107945,-5.315371 9.795362,10.824731 0.279105,-19.915563 Q 89.292633,43.134658 86.578255,40.135032 83.863879,37.135408 82.962964,33.00836 L 43.662959,32.375 q -1.016156,4.096153 -3.813364,7.006953 -2.797209,2.910798 -6.645753,3.876907 l -0.279105,19.915562 10.094267,-10.504191 4.956688,5.477575 -18.852545,19.744758 z m 3.599376,42.468474 q 0.09005,-6.424375 4.346657,-10.853856 4.256619,-4.429481 10.247475,-4.332937 5.029914,0.08105 8.819341,3.4193 3.789427,3.338253 4.917372,8.368566 l 39.300003,0.633358 q 1.268396,-4.991696 5.149659,-8.206312 3.88126,-3.214635 8.91118,-3.13357 5.990853,0.09654 10.121433,4.661203 4.13057,4.564641 4.04053,10.989038 -0.09,6.42437 -4.34664,10.85383 -4.25662,4.4295 -10.247481,4.33294 -5.032318,-0.0812 -8.820547,-3.41932 -3.788229,-3.33822 -4.916175,-8.36855 l -39.300002,-0.63338 q -1.268397,4.99172 -5.14846,8.20635 -3.880064,3.21465 -8.912375,3.13355 -5.990852,-0.0965 -10.121428,-4.6612 -4.130575,-4.56466 -4.040542,-10.98901 z m 8.197402,-71.837155 q -0.04592,3.276431 1.989866,5.526148 2.035782,2.249719 5.091118,2.298958 3.055336,0.04925 5.153234,-2.133861 2.097908,-2.1831 2.143825,-5.45953 0.04591,-3.276431 -1.989867,-5.52615 -2.035776,-2.249717 -5.091111,-2.298957 -3.055336,-0.04923 -5.153242,2.133861 -2.097907,2.1831 -2.143823,5.459531 z m -1.008376,71.953025 q -0.04592,3.27641 1.989867,5.52614 2.035783,2.24972 5.091119,2.29895 3.055334,0.0493 5.153234,-2.13385 2.097904,-2.18311 2.143822,-5.45954 0.04592,-3.276444 -1.989867,-5.526159 -2.035776,-2.249715 -5.091111,-2.298949 -3.055336,-0.04916 -5.153242,2.133863 -2.097904,2.183097 -2.143822,5.459545 z M 89.72674,29.261868 q -0.04591,3.276432 1.989866,5.526151 2.035784,2.24972 5.091124,2.298959 3.055327,0.04925 5.15324,-2.133861 2.09791,-2.1831 2.14382,-5.45953 0.046,-3.276431 -1.98986,-5.52615 -2.03579,-2.24972 -5.091128,-2.298959 -3.055335,-0.04923 -5.153239,2.133861 -2.097906,2.1831 -2.143823,5.459529 z m -1.008377,71.953022 q -0.04591,3.27641 1.989866,5.52614 2.035784,2.24972 5.091116,2.29897 3.055338,0.0493 5.153245,-2.13386 2.09791,-2.18312 2.14383,-5.45954 0.046,-3.276454 -1.98987,-5.526149 -2.035782,-2.249733 -5.091119,-2.298967 -3.055338,-0.04916 -5.153243,2.133863 -2.097908,2.183099 -2.143825,5.459543 z M 29.818205,28.296383 Z M 28.80983,100.2494 Z M 96.915766,29.377726 Z m -1.008371,71.953014 z"
     id="path6981"
     style="stroke-width:0.124091" />
</svg>
