<?xml version="1.0" encoding="UTF-8" standalone="no"?>
<svg
   xmlns:dc="http://purl.org/dc/elements/1.1/"
   xmlns:cc="http://creativecommons.org/ns#"
   xmlns:rdf="http://www.w3.org/1999/02/22-rdf-syntax-ns#"
   xmlns:svg="http://www.w3.org/2000/svg"
   xmlns="http://www.w3.org/2000/svg"
   xmlns:sodipodi="http://sodipodi.sourceforge.net/DTD/sodipodi-0.dtd"
   xmlns:inkscape="http://www.inkscape.org/namespaces/inkscape"
   id="Layer_1"
   data-name="Layer 1"
   width="128"
   height="128"
   viewBox="0 0 128 128"
   version="1.1"
   sodipodi:docname="VerticalScaling_Action.svg"
   inkscape:version="1.0.2-2 (e86c870879, 2021-01-15)"
   inkscape:export-filename="C:\Users\ammoussaoui\modelio\eclipse\modules\CamelDesigner\src\main\conf\res\icon\gui\Measurement_48.png"
   inkscape:export-xdpi="36.157539"
   inkscape:export-ydpi="36.157539">
  <metadata
     id="metadata25">
    <rdf:RDF>
      <cc:Work
         rdf:about="">
        <dc:format>image/svg+xml</dc:format>
        <dc:type
           rdf:resource="http://purl.org/dc/dcmitype/StillImage" />
        <dc:title>Generic-GCP</dc:title>
      </cc:Work>
    </rdf:RDF>
  </metadata>
  <defs
     id="defs23">
    <filter
       inkscape:collect="always"
       style="color-interpolation-filters:sRGB"
       id="filter1015"
       x="-1.0787319e-05"
       width="1.0000216"
       y="-1.0812709e-05"
       height="1.0000216">
      <feGaussianBlur
         inkscape:collect="always"
         stdDeviation="0.00057416526"
         id="feGaussianBlur1017" />
    </filter>
    <pattern
       y="0"
       x="0"
       height="6"
       width="6"
       patternUnits="userSpaceOnUse"
       id="EMFhbasepattern" />
    <pattern
       y="0"
       x="0"
       height="6"
       width="6"
       patternUnits="userSpaceOnUse"
       id="EMFhbasepattern-3" />
    <pattern
       y="0"
       x="0"
       height="6"
       width="6"
       patternUnits="userSpaceOnUse"
       id="EMFhbasepattern-2" />
    <pattern
       y="0"
       x="0"
       height="6"
       width="6"
       patternUnits="userSpaceOnUse"
       id="EMFhbasepattern-1" />
    <pattern
       y="0"
       x="0"
       height="6"
       width="6"
       patternUnits="userSpaceOnUse"
       id="EMFhbasepattern-5" />
    <pattern
       y="0"
       x="0"
       height="6"
       width="6"
       patternUnits="userSpaceOnUse"
       id="EMFhbasepattern-0" />
    <pattern
       y="0"
       x="0"
       height="6"
       width="6"
       patternUnits="userSpaceOnUse"
       id="EMFhbasepattern-3-4" />
    <pattern
       y="0"
       x="0"
       height="6"
       width="6"
       patternUnits="userSpaceOnUse"
       id="EMFhbasepattern-2-6" />
    <pattern
       y="0"
       x="0"
       height="6"
       width="6"
       patternUnits="userSpaceOnUse"
       id="EMFhbasepattern-1-2" />
    <pattern
       y="0"
       x="0"
       height="6"
       width="6"
       patternUnits="userSpaceOnUse"
       id="EMFhbasepattern-5-0" />
  </defs>
  <sodipodi:namedview
     pagecolor="#ffffff"
     bordercolor="#666666"
     borderopacity="1"
     objecttolerance="10"
     gridtolerance="10"
     guidetolerance="10"
     inkscape:pageopacity="0"
     inkscape:pageshadow="2"
     inkscape:window-width="1366"
     inkscape:window-height="705"
     id="namedview21"
     showgrid="false"
     inkscape:zoom="1.84375"
     inkscape:cx="96.361616"
     inkscape:cy="115.20307"
     inkscape:window-x="-8"
     inkscape:window-y="-8"
     inkscape:window-maximized="1"
     inkscape:current-layer="Layer_1"
     inkscape:document-rotation="0" />
  <title
     id="title2">Generic-GCP</title>
  <path
     style="opacity:0.981;fill:#bcec4c;fill-opacity:0.960784;stroke-width:0.202048;filter:url(#filter1015)"
     d="m 38.534494,128.02609 c -3.176343,-0.56351 -6.259862,-2.26763 -8.167187,-4.51362 C 29.55233,122.55277 26.424228,116.83286 15.85799,96.981377 1.0699074,69.198029 1.0568304,69.172821 0.56043244,67.490815 0.02993644,65.693269 0.00666544,62.245769 0.51228244,60.359014 0.80277044,59.275045 4.4929955,51.730227 14.048619,32.683383 26.728913,7.4082639 27.23428,6.4417971 28.586184,4.881788 30.201777,3.0174928 32.193695,1.7802228 34.726041,1.0680547 36.198353,0.65399739 36.891515,0.64359709 62.811378,0.64666599 c 28.942115,0.00346 27.555265,-0.051665 30.335515,1.20497551 1.81728,0.8213911 3.63914,2.1654422 4.73169,3.4907287 0.66684,0.8088912 5.136187,8.9800948 14.896317,27.2345648 7.669,14.343437 14.12787,26.597751 14.35304,27.231832 0.97213,2.737616 1.01765,6.353161 0.11388,9.045318 -0.20033,0.596725 -6.26268,12.864322 -13.4719,27.261312 -10.28961,20.548663 -13.32367,26.441053 -14.112436,27.407563 -1.297281,1.5896 -3.254751,2.94675 -5.524691,3.83042 l -1.8097,0.7045 -26.65388,0.0267 c -14.659629,0.0147 -26.870257,-0.0117 -27.134724,-0.0585 z"
     id="path8"
     inkscape:connector-curvature="0"
     inkscape:export-filename="C:\Users\ammoussaoui\modelio\eclipse\modules\CamelDesigner\src\main\conf\res\icon\gui\DataMeasurement_48.png"
     inkscape:export-xdpi="36.074654"
     inkscape:export-ydpi="36.074654" />
  <style
     type="text/css"
     id="style1245">.st0{fill-rule:evenodd;clip-rule:evenodd;}</style>
  <g
     id="g2644"
     transform="matrix(0.02942355,2.2098178,-0.99978674,0.02570753,40.634272,30.398386)"
     style="fill:#808000">
    <g
       id="g2627"
       style="fill:#808000">
	<path
   d="m 11,23 c -0.3,0 -0.5,-0.1 -0.7,-0.3 l -6,-6 c -0.4,-0.4 -0.4,-1 0,-1.4 l 6,-6 c 0.4,-0.4 1,-0.4 1.4,0 0.4,0.4 0.4,1 0,1.4 l -5.3,5.3 5.3,5.3 c 0.4,0.4 0.4,1 0,1.4 C 11.5,22.9 11.3,23 11,23 Z"
   id="path2625"
   style="fill:#808000" />

</g>
    <g
       id="g2631"
       style="fill:#808000">
	<path
   d="M 27,17 H 5 C 4.4,17 4,16.6 4,16 4,15.4 4.4,15 5,15 h 22 c 0.6,0 1,0.4 1,1 0,0.6 -0.4,1 -1,1 z"
   id="path2629"
   style="fill:#808000" />

</g>
  </g>
  <style
     type="text/css"
     id="style2687">.st0{fill-rule:evenodd;clip-rule:evenodd;}</style>
  <path
     class="st0"
     d="M 92.39791,31.946567 41.00148,52.182164 38.1397,43.703624 89.53613,23.500593 Z m 3.71026,58.25334 H 41.08683 V 52.632689 H 96.10817 Z M 89.24494,31.995419 v -7.213818 l -3.62994,1.41671 v 7.240958 z m -7.22975,2.865986 v -7.240957 l -3.64499,1.400425 v 7.300665 z m -7.48077,2.789994 v -7.164965 l -3.64499,1.416709 v 7.197533 z m 20.55456,22.933315 -2.28942,-6.806716 h -3.88097 l 2.28942,6.806716 z m -7.92762,0 -2.28941,-6.806716 h -3.89603 l 2.30448,6.806716 z M 67.24946,40.701938 v -7.257241 l -3.63998,1.416708 v 7.240957 z m 12.26545,19.882776 -2.28942,-6.806716 h -3.88097 l 2.28942,6.806716 z M 59.76868,43.475647 v -7.197533 l -3.68516,1.41671 V 44.93578 Z M 71.5873,60.584714 69.29788,53.777998 h -3.891 l 2.28941,6.806716 z M 52.60923,46.450193 v -7.262669 l -3.6701,1.465561 v 7.197533 z m 11.16593,14.134521 -2.28942,-6.806716 h -3.88096 l 2.28942,6.806716 z M 45.08829,49.223904 V 42.02637 l -3.645,1.400426 v 7.257241 z m 10.80445,11.36081 -2.32959,-6.806716 h -3.85084 l 2.24925,6.806716 z m -7.73181,0 -2.32958,-6.806716 h -3.88097 l 2.28942,6.806716 z"
     id="path2689"
     style="fill:#808000;stroke-width:0.522036" />
</svg>
