<?xml version="1.0" encoding="UTF-8" standalone="no"?>
<svg
   id="Layer_1"
   data-name="Layer 1"
   width="128"
   height="128"
   viewBox="0 0 128 128"
   version="1.1"
   sodipodi:docname="WindowCriterion.svg"
   inkscape:version="1.1.1 (3bf5ae0d25, 2021-09-20)"
   inkscape:export-filename="C:\Users\ammoussaoui\modelio\eclipse\modules\CamelDesigner\src\main\conf\res\icon\gui\WindowCriterion_48.png"
   inkscape:export-xdpi="36.183678"
   inkscape:export-ydpi="36.183678"
   xmlns:inkscape="http://www.inkscape.org/namespaces/inkscape"
   xmlns:sodipodi="http://sodipodi.sourceforge.net/DTD/sodipodi-0.dtd"
   xmlns="http://www.w3.org/2000/svg"
   xmlns:svg="http://www.w3.org/2000/svg"
   xmlns:rdf="http://www.w3.org/1999/02/22-rdf-syntax-ns#"
   xmlns:cc="http://creativecommons.org/ns#"
   xmlns:dc="http://purl.org/dc/elements/1.1/">
  <metadata
     id="metadata25">
    <rdf:RDF>
      <cc:Work
         rdf:about="">
        <dc:format>image/svg+xml</dc:format>
        <dc:type
           rdf:resource="http://purl.org/dc/dcmitype/StillImage" />
        <dc:title>Generic-GCP</dc:title>
      </cc:Work>
    </rdf:RDF>
  </metadata>
  <defs
     id="defs23">
    <pattern
       y="0"
       x="0"
       height="6"
       width="6"
       patternUnits="userSpaceOnUse"
       id="EMFhbasepattern" />
    <pattern
       y="0"
       x="0"
       height="6"
       width="6"
       patternUnits="userSpaceOnUse"
       id="EMFhbasepattern-3" />
    <pattern
       y="0"
       x="0"
       height="6"
       width="6"
       patternUnits="userSpaceOnUse"
       id="EMFhbasepattern-2" />
    <pattern
       y="0"
       x="0"
       height="6"
       width="6"
       patternUnits="userSpaceOnUse"
       id="EMFhbasepattern-1" />
    <pattern
       y="0"
       x="0"
       height="6"
       width="6"
       patternUnits="userSpaceOnUse"
       id="EMFhbasepattern-5" />
  </defs>
  <sodipodi:namedview
     pagecolor="#ffffff"
     bordercolor="#666666"
     borderopacity="1"
     objecttolerance="10"
     gridtolerance="10"
     guidetolerance="10"
     inkscape:pageopacity="0"
     inkscape:pageshadow="2"
     inkscape:window-width="1920"
     inkscape:window-height="1001"
     id="namedview21"
     showgrid="false"
     inkscape:zoom="1.84375"
     inkscape:cx="52.610169"
     inkscape:cy="140.20339"
     inkscape:window-x="-9"
     inkscape:window-y="1341"
     inkscape:window-maximized="1"
     inkscape:current-layer="g15113"
     inkscape:document-rotation="0"
     inkscape:pagecheckerboard="0">
    <inkscape:grid
       type="xygrid"
       id="grid799" />
  </sodipodi:namedview>
  <title
     id="title2">Generic-GCP</title>
  <g
     id="g797"
     transform="matrix(0.90960453,0,0,0.95480226,40.717515,39.045198)"
     style="fill:#ffffff">
    <g
       id="Layer_1-9"
       style="fill:#ffffff">
      <path
         d="m 11.899,49 c 2.911,0 5.648,-1.134 7.707,-3.192 l 9.201,-9.201 C 30.866,34.548 32,31.811 32,28.899 32,24.074 28.902,19.885 24.292,18.475 l -0.584,1.912 c 3.764,1.152 6.292,4.572 6.292,8.512 0,2.377 -0.926,4.612 -2.606,6.293 l -9.201,9.201 C 16.512,46.074 14.276,47 11.899,47 6.992,47 3,43.008 3,38.101 3,35.724 3.926,33.489 5.606,31.808 l 9.201,-9.201 c 0.291,-0.291 0.604,-0.563 0.93,-0.809 l -1.205,-1.597 c -0.398,0.301 -0.782,0.634 -1.139,0.991 L 4.192,30.393 C 2.134,32.452 1,35.189 1,38.101 1,44.11 5.89,49 11.899,49 Z"
         id="path780"
         style="fill:#ffffff" />
      <path
         d="M 38.101,1 C 35.19,1 32.453,2.134 30.394,4.192 l -9.201,9.201 C 19.134,15.452 18,18.189 18,21.101 c 0,5.208 3.705,9.707 8.81,10.699 l 0.381,-1.963 c -4.166,-0.81 -7.19,-4.483 -7.19,-8.736 0,-2.377 0.926,-4.612 2.606,-6.293 L 31.808,5.607 C 33.488,3.926 35.724,3 38.101,3 43.008,3 47,6.992 47,11.899 c 0,2.377 -0.926,4.612 -2.606,6.293 l -9.2,9.201 c -0.259,0.258 -0.53,0.499 -0.809,0.716 l 1.23,1.576 c 0.342,-0.267 0.676,-0.562 0.991,-0.877 l 9.201,-9.201 C 47.866,17.548 49,14.811 49,11.899 49,5.89 44.11,1 38.101,1 Z"
         id="path782"
         style="fill:#ffffff" />
    </g>
    <g
       id="g785"
       style="fill:#ffffff" />
  </g>
  <g
     id="g1081"
     transform="matrix(1.061108,0,0,1.061108,-121.04605,21.052501)">
    <g
       transform="matrix(3.230437,-1.4626805,1.4626805,3.230437,-9.3871092,42.998146)"
       id="g927">
      <g
         id="g874" />
      <g
         id="g876" />
      <g
         id="g878" />
      <g
         id="g880" />
      <g
         id="g882" />
      <g
         id="g884" />
      <g
         id="g886" />
      <g
         id="g888" />
      <g
         id="g890" />
      <g
         id="g892" />
      <g
         id="g894" />
      <g
         id="g896" />
      <g
         id="g898" />
      <g
         id="g900" />
      <g
         id="g902" />
      <g
         id="g855"
         transform="matrix(0.25689038,0.11631508,-0.11631508,0.25689038,2.6632737,-2.554589)">
        <text
           xml:space="preserve"
           style="font-style:normal;font-variant:normal;font-weight:normal;font-stretch:normal;font-size:49.9197px;line-height:1.25;font-family:sans-serif;-inkscape-font-specification:'sans-serif, Normal';font-variant-ligatures:normal;font-variant-caps:normal;font-variant-numeric:normal;font-feature-settings:normal;text-align:start;letter-spacing:0px;word-spacing:0px;writing-mode:lr-tb;text-anchor:start;fill:#000000;fill-opacity:1;stroke:none;stroke-width:1.24799"
           x="5.4791756"
           y="60.735191"
           id="text931"><tspan
             style="stroke-width:1.24799"
             y="60.735191"
             x="5.4791756"
             id="tspan834"
             sodipodi:role="line" /></text>
      </g>
    </g>
  </g>
  <path
     d="M 94.526008,106.94731 H 73.59489 c -2.310793,0 -4.186219,-1.89567 -4.186219,-4.2314 0,-2.33574 1.875426,-4.231411 4.186219,-4.231411 h 16.744898 c 2.310794,0 4.18622,-1.895662 4.18622,-4.231403 v -16.92564 c 0,-2.335738 1.875436,-4.23141 4.186232,-4.23141 2.31079,0 4.18622,1.895672 4.18622,4.23141 v 21.157043 c 0,4.675711 -3.746672,8.462811 -8.372452,8.462811 z M 19.173977,51.938999 V 30.781951 c 0,-4.675707 3.746672,-8.462819 8.372449,-8.462819 h 20.931118 c 2.310793,0 4.186229,1.895671 4.186229,4.23141 0,2.335737 -1.875436,4.231409 -4.186229,4.231409 H 31.732646 c -2.310794,0 -4.18622,1.895671 -4.18622,4.23141 v 16.925638 c 0,2.335737 -1.875436,4.23141 -4.186229,4.23141 -2.310794,0 -4.18622,-1.895673 -4.18622,-4.23141 z m 0.0419,12.694229 -0.0419,0.04232 v -0.08463 z"
     id="focus_point_round-[#844]"
     style="fill:#ffffff;fill-rule:evenodd;stroke:none;stroke-width:4.20875"
     sodipodi:nodetypes="sssssssssssssssssssssscccc" />
  <g
     id="g15113"
     transform="matrix(1.0174877,0,0,1.105437,2.5794479,-7.1964682)">
    <path
       style="fill:#00a400;fill-opacity:0.65942;stroke-width:0.189816"
       d="m 34.567137,123.31085 c -3.102948,-0.50756 -6.095919,-2.04253 -7.927342,-4.06559 -0.78255,-0.86443 -3.752214,-6.01657 -13.774433,-23.897564 -14.0266938,-25.02553 -14.039086,-25.04824 -14.4974263,-26.56329 -0.4898229,-1.61912 -0.4551214,-4.72442 0.071784,-6.42389 0.3027163,-0.97637 4.0444394,-7.77228 13.7252383,-24.928507 12.846404,-22.766278 13.357711,-23.636812 14.708393,-25.041973 1.614139,-1.679241 3.586568,-2.793698 6.079765,-3.435175 1.449555,-0.372957 2.128929,-0.382325 27.526495,-0.37956 28.358918,0.0031 27.000936,-0.04653 29.704196,1.085367 1.766967,0.739859 3.529707,1.950497 4.578133,3.144232 0.639911,0.7286 4.882913,8.088719 14.1419,24.53123 7.27523,12.919676 13.39956,23.957616 13.60961,24.528756 0.90688,2.46588 0.89118,5.72254 -0.0393,8.14747 -0.20624,0.5375 -6.35108,11.58739 -13.65518,24.55532 -10.425051,18.508964 -13.496274,23.816474 -14.285268,24.687034 -1.297653,1.43182 -3.238323,2.65427 -5.477271,3.45021 l -1.784994,0.63457 -26.117288,0.0241 c -14.364509,0.0132 -26.32867,-0.0105 -26.587025,-0.0527 z"
       id="path8-1"
       inkscape:connector-curvature="0" />
    <path
       style="fill:#7c7c7c;fill-rule:evenodd;stroke:none;stroke-width:0.134693"
       inkscape:connector-curvature="0"
       id="path3"
       d="m 48.513606,43.667976 c 1.683932,0.0079 4.423589,0.0079 6.088126,0 1.664536,-0.0079 0.286761,-0.01441 -3.061708,-0.01441 -3.348469,0 -4.710351,0.0065 -3.026418,0.01441 m 9.316718,10.384834 c 5.39e-4,0.11853 0.01158,0.160689 0.02451,0.09361 0.01293,-0.06694 0.01239,-0.163921 -0.0011,-0.215508 -0.01347,-0.05145 -0.02411,0.0034 -0.02344,0.121897 m -1.589513,14.072999 c 0.06667,0.01293 0.175775,0.01293 0.242448,0 0.06667,-0.0128 0.01212,-0.0233 -0.121224,-0.0233 -0.133346,0 -0.187897,0.01051 -0.121224,0.0233 m 7.866074,4.797497 c 1.637194,0.0079 4.316239,0.0079 5.953433,0 1.637194,-0.0079 0.297672,-0.01441 -2.976716,-0.01441 -3.274388,0 -4.613911,0.0065 -2.976717,0.01441" />
    <path
       d="m 49.413826,94.135509 v -5.207951 h 6.80473 v -8.67992 H 34.063622 q -1.898996,0 -3.32324,-1.562384 -1.424247,-1.562386 -1.424247,-3.645565 V 36.848044 q 0,-2.083181 1.424247,-3.645565 1.424244,-1.562387 3.32324,-1.562387 h 53.804839 q 1.898994,0 3.323241,1.562387 1.424244,1.562384 1.424244,3.645565 v 38.191645 q 0,2.083179 -1.424244,3.645565 -1.424247,1.562384 -3.323241,1.562384 H 65.713527 v 8.67992 h 6.80473 v 5.207951 z M 34.063622,75.039689 H 87.868461 V 36.848044 H 34.063622 Z m 0,0 V 36.848044 Z"
       id="path6249"
       style="fill:#ccffaa;stroke-width:1.65747" />
    <path
       d="m 10.141242,111.76319 -6.97797,-6.4228 2.06391,-1.8997 4.91406,4.47787 8.79618,-8.096348 2.06391,1.944928 z m 0,-14.473908 -6.97797,-6.422803 2.06391,-1.899701 4.91406,4.477867 8.79618,-8.096346 2.06391,1.944932 z m 14.64392,11.036358 v -2.71386 H 42.47579 v 2.71386 z m 0,-14.473916 V 91.137865 H 42.47579 v 2.713859 z"
       id="path6694"
       style="stroke-width:0.942906" />
  </g>
</svg>
